<?xml version="1.0" encoding="utf-8"?>
<svg xmlns="http://www.w3.org/2000/svg" xmlns:xlink="http://www.w3.org/1999/xlink" width="600" height="400" viewBox="0 0 2400 1600">
<defs>
  <clipPath id="clip930">
    <rect x="0" y="0" width="2400" height="1600"/>
  </clipPath>
</defs>
<path clip-path="url(#clip930)" d="M0 1600 L2400 1600 L2400 0 L0 0  Z" fill="#ffffff" fill-rule="evenodd" fill-opacity="1"/>
<defs>
  <clipPath id="clip931">
    <rect x="480" y="0" width="1681" height="1600"/>
  </clipPath>
</defs>
<path clip-path="url(#clip930)" d="M284.422 1486.45 L2352.76 1486.45 L2352.76 123.472 L284.422 123.472  Z" fill="#ffffff" fill-rule="evenodd" fill-opacity="1"/>
<defs>
  <clipPath id="clip932">
    <rect x="284" y="123" width="2069" height="1364"/>
  </clipPath>
</defs>
<polyline clip-path="url(#clip932)" style="stroke:#000000; stroke-linecap:round; stroke-linejoin:round; stroke-width:2; stroke-opacity:0.1; fill:none" points="284.422,1486.45 284.422,123.472 "/>
<polyline clip-path="url(#clip932)" style="stroke:#000000; stroke-linecap:round; stroke-linejoin:round; stroke-width:2; stroke-opacity:0.1; fill:none" points="801.505,1486.45 801.505,123.472 "/>
<polyline clip-path="url(#clip932)" style="stroke:#000000; stroke-linecap:round; stroke-linejoin:round; stroke-width:2; stroke-opacity:0.1; fill:none" points="1318.59,1486.45 1318.59,123.472 "/>
<polyline clip-path="url(#clip932)" style="stroke:#000000; stroke-linecap:round; stroke-linejoin:round; stroke-width:2; stroke-opacity:0.1; fill:none" points="1835.67,1486.45 1835.67,123.472 "/>
<polyline clip-path="url(#clip932)" style="stroke:#000000; stroke-linecap:round; stroke-linejoin:round; stroke-width:2; stroke-opacity:0.1; fill:none" points="2352.76,1486.45 2352.76,123.472 "/>
<polyline clip-path="url(#clip930)" style="stroke:#000000; stroke-linecap:round; stroke-linejoin:round; stroke-width:4; stroke-opacity:1; fill:none" points="284.422,1486.45 2352.76,1486.45 "/>
<polyline clip-path="url(#clip930)" style="stroke:#000000; stroke-linecap:round; stroke-linejoin:round; stroke-width:4; stroke-opacity:1; fill:none" points="284.422,1486.45 284.422,1467.55 "/>
<polyline clip-path="url(#clip930)" style="stroke:#000000; stroke-linecap:round; stroke-linejoin:round; stroke-width:4; stroke-opacity:1; fill:none" points="801.505,1486.45 801.505,1467.55 "/>
<polyline clip-path="url(#clip930)" style="stroke:#000000; stroke-linecap:round; stroke-linejoin:round; stroke-width:4; stroke-opacity:1; fill:none" points="1318.59,1486.45 1318.59,1467.55 "/>
<polyline clip-path="url(#clip930)" style="stroke:#000000; stroke-linecap:round; stroke-linejoin:round; stroke-width:4; stroke-opacity:1; fill:none" points="1835.67,1486.45 1835.67,1467.55 "/>
<polyline clip-path="url(#clip930)" style="stroke:#000000; stroke-linecap:round; stroke-linejoin:round; stroke-width:4; stroke-opacity:1; fill:none" points="2352.76,1486.45 2352.76,1467.55 "/>
<path clip-path="url(#clip930)" d="M230.95 1532.02 L260.625 1532.02 L260.625 1535.95 L230.95 1535.95 L230.95 1532.02 Z" fill="#000000" fill-rule="nonzero" fill-opacity="1" /><path clip-path="url(#clip930)" d="M271.528 1544.91 L279.167 1544.91 L279.167 1518.55 L270.857 1520.21 L270.857 1515.95 L279.121 1514.29 L283.797 1514.29 L283.797 1544.91 L291.435 1544.91 L291.435 1548.85 L271.528 1548.85 L271.528 1544.91 Z" fill="#000000" fill-rule="nonzero" fill-opacity="1" /><path clip-path="url(#clip930)" d="M300.88 1542.97 L305.764 1542.97 L305.764 1548.85 L300.88 1548.85 L300.88 1542.97 Z" fill="#000000" fill-rule="nonzero" fill-opacity="1" /><path clip-path="url(#clip930)" d="M325.949 1517.37 Q322.338 1517.37 320.509 1520.93 Q318.704 1524.47 318.704 1531.6 Q318.704 1538.71 320.509 1542.27 Q322.338 1545.82 325.949 1545.82 Q329.583 1545.82 331.389 1542.27 Q333.218 1538.71 333.218 1531.6 Q333.218 1524.47 331.389 1520.93 Q329.583 1517.37 325.949 1517.37 M325.949 1513.66 Q331.759 1513.66 334.815 1518.27 Q337.894 1522.85 337.894 1531.6 Q337.894 1540.33 334.815 1544.94 Q331.759 1549.52 325.949 1549.52 Q320.139 1549.52 317.06 1544.94 Q314.005 1540.33 314.005 1531.6 Q314.005 1522.85 317.06 1518.27 Q320.139 1513.66 325.949 1513.66 Z" fill="#000000" fill-rule="nonzero" fill-opacity="1" /><path clip-path="url(#clip930)" d="M748.531 1532.02 L778.207 1532.02 L778.207 1535.95 L748.531 1535.95 L748.531 1532.02 Z" fill="#000000" fill-rule="nonzero" fill-opacity="1" /><path clip-path="url(#clip930)" d="M798.299 1517.37 Q794.688 1517.37 792.859 1520.93 Q791.054 1524.47 791.054 1531.6 Q791.054 1538.71 792.859 1542.27 Q794.688 1545.82 798.299 1545.82 Q801.933 1545.82 803.739 1542.27 Q805.568 1538.71 805.568 1531.6 Q805.568 1524.47 803.739 1520.93 Q801.933 1517.37 798.299 1517.37 M798.299 1513.66 Q804.109 1513.66 807.165 1518.27 Q810.244 1522.85 810.244 1531.6 Q810.244 1540.33 807.165 1544.94 Q804.109 1549.52 798.299 1549.52 Q792.489 1549.52 789.41 1544.94 Q786.355 1540.33 786.355 1531.6 Q786.355 1522.85 789.41 1518.27 Q792.489 1513.66 798.299 1513.66 Z" fill="#000000" fill-rule="nonzero" fill-opacity="1" /><path clip-path="url(#clip930)" d="M818.461 1542.97 L823.345 1542.97 L823.345 1548.85 L818.461 1548.85 L818.461 1542.97 Z" fill="#000000" fill-rule="nonzero" fill-opacity="1" /><path clip-path="url(#clip930)" d="M833.577 1514.29 L851.933 1514.29 L851.933 1518.22 L837.859 1518.22 L837.859 1526.7 Q838.878 1526.35 839.896 1526.19 Q840.915 1526 841.933 1526 Q847.72 1526 851.1 1529.17 Q854.479 1532.34 854.479 1537.76 Q854.479 1543.34 851.007 1546.44 Q847.535 1549.52 841.216 1549.52 Q839.04 1549.52 836.771 1549.15 Q834.526 1548.78 832.118 1548.04 L832.118 1543.34 Q834.202 1544.47 836.424 1545.03 Q838.646 1545.58 841.123 1545.58 Q845.128 1545.58 847.466 1543.48 Q849.804 1541.37 849.804 1537.76 Q849.804 1534.15 847.466 1532.04 Q845.128 1529.94 841.123 1529.94 Q839.248 1529.94 837.373 1530.35 Q835.521 1530.77 833.577 1531.65 L833.577 1514.29 Z" fill="#000000" fill-rule="nonzero" fill-opacity="1" /><path clip-path="url(#clip930)" d="M1295.97 1517.37 Q1292.36 1517.37 1290.53 1520.93 Q1288.73 1524.47 1288.73 1531.6 Q1288.73 1538.71 1290.53 1542.27 Q1292.36 1545.82 1295.97 1545.82 Q1299.61 1545.82 1301.41 1542.27 Q1303.24 1538.71 1303.24 1531.6 Q1303.24 1524.47 1301.41 1520.93 Q1299.61 1517.37 1295.97 1517.37 M1295.97 1513.66 Q1301.78 1513.66 1304.84 1518.27 Q1307.92 1522.85 1307.92 1531.6 Q1307.92 1540.33 1304.84 1544.94 Q1301.78 1549.52 1295.97 1549.52 Q1290.16 1549.52 1287.08 1544.94 Q1284.03 1540.33 1284.03 1531.6 Q1284.03 1522.85 1287.08 1518.27 Q1290.16 1513.66 1295.97 1513.66 Z" fill="#000000" fill-rule="nonzero" fill-opacity="1" /><path clip-path="url(#clip930)" d="M1316.14 1542.97 L1321.02 1542.97 L1321.02 1548.85 L1316.14 1548.85 L1316.14 1542.97 Z" fill="#000000" fill-rule="nonzero" fill-opacity="1" /><path clip-path="url(#clip930)" d="M1341.2 1517.37 Q1337.59 1517.37 1335.76 1520.93 Q1333.96 1524.47 1333.96 1531.6 Q1333.96 1538.71 1335.76 1542.27 Q1337.59 1545.82 1341.2 1545.82 Q1344.84 1545.82 1346.64 1542.27 Q1348.47 1538.71 1348.47 1531.6 Q1348.47 1524.47 1346.64 1520.93 Q1344.84 1517.37 1341.2 1517.37 M1341.2 1513.66 Q1347.01 1513.66 1350.07 1518.27 Q1353.15 1522.85 1353.15 1531.6 Q1353.15 1540.33 1350.07 1544.94 Q1347.01 1549.52 1341.2 1549.52 Q1335.39 1549.52 1332.32 1544.94 Q1329.26 1540.33 1329.26 1531.6 Q1329.26 1522.85 1332.32 1518.27 Q1335.39 1513.66 1341.2 1513.66 Z" fill="#000000" fill-rule="nonzero" fill-opacity="1" /><path clip-path="url(#clip930)" d="M1813.55 1517.37 Q1809.94 1517.37 1808.11 1520.93 Q1806.31 1524.47 1806.31 1531.6 Q1806.31 1538.71 1808.11 1542.27 Q1809.94 1545.82 1813.55 1545.82 Q1817.19 1545.82 1818.99 1542.27 Q1820.82 1538.71 1820.82 1531.6 Q1820.82 1524.47 1818.99 1520.93 Q1817.19 1517.37 1813.55 1517.37 M1813.55 1513.66 Q1819.36 1513.66 1822.42 1518.27 Q1825.5 1522.85 1825.5 1531.6 Q1825.5 1540.33 1822.42 1544.94 Q1819.36 1549.52 1813.55 1549.52 Q1807.74 1549.52 1804.67 1544.94 Q1801.61 1540.33 1801.61 1531.6 Q1801.61 1522.85 1804.67 1518.27 Q1807.74 1513.66 1813.55 1513.66 Z" fill="#000000" fill-rule="nonzero" fill-opacity="1" /><path clip-path="url(#clip930)" d="M1833.72 1542.97 L1838.6 1542.97 L1838.6 1548.85 L1833.72 1548.85 L1833.72 1542.97 Z" fill="#000000" fill-rule="nonzero" fill-opacity="1" /><path clip-path="url(#clip930)" d="M1848.83 1514.29 L1867.19 1514.29 L1867.19 1518.22 L1853.11 1518.22 L1853.11 1526.7 Q1854.13 1526.35 1855.15 1526.19 Q1856.17 1526 1857.19 1526 Q1862.98 1526 1866.36 1529.17 Q1869.73 1532.34 1869.73 1537.76 Q1869.73 1543.34 1866.26 1546.44 Q1862.79 1549.52 1856.47 1549.52 Q1854.29 1549.52 1852.03 1549.15 Q1849.78 1548.78 1847.37 1548.04 L1847.37 1543.34 Q1849.46 1544.47 1851.68 1545.03 Q1853.9 1545.58 1856.38 1545.58 Q1860.38 1545.58 1862.72 1543.48 Q1865.06 1541.37 1865.06 1537.76 Q1865.06 1534.15 1862.72 1532.04 Q1860.38 1529.94 1856.38 1529.94 Q1854.5 1529.94 1852.63 1530.35 Q1850.78 1530.77 1848.83 1531.65 L1848.83 1514.29 Z" fill="#000000" fill-rule="nonzero" fill-opacity="1" /><path clip-path="url(#clip930)" d="M2319.91 1544.91 L2327.55 1544.91 L2327.55 1518.55 L2319.24 1520.21 L2319.24 1515.95 L2327.5 1514.29 L2332.18 1514.29 L2332.18 1544.91 L2339.82 1544.91 L2339.82 1548.85 L2319.91 1548.85 L2319.91 1544.91 Z" fill="#000000" fill-rule="nonzero" fill-opacity="1" /><path clip-path="url(#clip930)" d="M2349.26 1542.97 L2354.14 1542.97 L2354.14 1548.85 L2349.26 1548.85 L2349.26 1542.97 Z" fill="#000000" fill-rule="nonzero" fill-opacity="1" /><path clip-path="url(#clip930)" d="M2374.33 1517.37 Q2370.72 1517.37 2368.89 1520.93 Q2367.08 1524.47 2367.08 1531.6 Q2367.08 1538.71 2368.89 1542.27 Q2370.72 1545.82 2374.33 1545.82 Q2377.96 1545.82 2379.77 1542.27 Q2381.6 1538.71 2381.6 1531.6 Q2381.6 1524.47 2379.77 1520.93 Q2377.96 1517.37 2374.33 1517.37 M2374.33 1513.66 Q2380.14 1513.66 2383.2 1518.27 Q2386.27 1522.85 2386.27 1531.6 Q2386.27 1540.33 2383.2 1544.94 Q2380.14 1549.52 2374.33 1549.52 Q2368.52 1549.52 2365.44 1544.94 Q2362.39 1540.33 2362.39 1531.6 Q2362.39 1522.85 2365.44 1518.27 Q2368.52 1513.66 2374.33 1513.66 Z" fill="#000000" fill-rule="nonzero" fill-opacity="1" /><polyline clip-path="url(#clip932)" style="stroke:#000000; stroke-linecap:round; stroke-linejoin:round; stroke-width:2; stroke-opacity:0.1; fill:none" points="284.422,1370.15 2352.76,1370.15 "/>
<polyline clip-path="url(#clip932)" style="stroke:#000000; stroke-linecap:round; stroke-linejoin:round; stroke-width:2; stroke-opacity:0.1; fill:none" points="284.422,1181.75 2352.76,1181.75 "/>
<polyline clip-path="url(#clip932)" style="stroke:#000000; stroke-linecap:round; stroke-linejoin:round; stroke-width:2; stroke-opacity:0.1; fill:none" points="284.422,993.353 2352.76,993.353 "/>
<polyline clip-path="url(#clip932)" style="stroke:#000000; stroke-linecap:round; stroke-linejoin:round; stroke-width:2; stroke-opacity:0.1; fill:none" points="284.422,804.955 2352.76,804.955 "/>
<polyline clip-path="url(#clip932)" style="stroke:#000000; stroke-linecap:round; stroke-linejoin:round; stroke-width:2; stroke-opacity:0.1; fill:none" points="284.422,616.557 2352.76,616.557 "/>
<polyline clip-path="url(#clip932)" style="stroke:#000000; stroke-linecap:round; stroke-linejoin:round; stroke-width:2; stroke-opacity:0.1; fill:none" points="284.422,428.159 2352.76,428.159 "/>
<polyline clip-path="url(#clip932)" style="stroke:#000000; stroke-linecap:round; stroke-linejoin:round; stroke-width:2; stroke-opacity:0.1; fill:none" points="284.422,239.761 2352.76,239.761 "/>
<polyline clip-path="url(#clip930)" style="stroke:#000000; stroke-linecap:round; stroke-linejoin:round; stroke-width:4; stroke-opacity:1; fill:none" points="284.422,1486.45 284.422,123.472 "/>
<polyline clip-path="url(#clip930)" style="stroke:#000000; stroke-linecap:round; stroke-linejoin:round; stroke-width:4; stroke-opacity:1; fill:none" points="284.422,1370.15 303.319,1370.15 "/>
<polyline clip-path="url(#clip930)" style="stroke:#000000; stroke-linecap:round; stroke-linejoin:round; stroke-width:4; stroke-opacity:1; fill:none" points="284.422,1181.75 303.319,1181.75 "/>
<polyline clip-path="url(#clip930)" style="stroke:#000000; stroke-linecap:round; stroke-linejoin:round; stroke-width:4; stroke-opacity:1; fill:none" points="284.422,993.353 303.319,993.353 "/>
<polyline clip-path="url(#clip930)" style="stroke:#000000; stroke-linecap:round; stroke-linejoin:round; stroke-width:4; stroke-opacity:1; fill:none" points="284.422,804.955 303.319,804.955 "/>
<polyline clip-path="url(#clip930)" style="stroke:#000000; stroke-linecap:round; stroke-linejoin:round; stroke-width:4; stroke-opacity:1; fill:none" points="284.422,616.557 303.319,616.557 "/>
<polyline clip-path="url(#clip930)" style="stroke:#000000; stroke-linecap:round; stroke-linejoin:round; stroke-width:4; stroke-opacity:1; fill:none" points="284.422,428.159 303.319,428.159 "/>
<polyline clip-path="url(#clip930)" style="stroke:#000000; stroke-linecap:round; stroke-linejoin:round; stroke-width:4; stroke-opacity:1; fill:none" points="284.422,239.761 303.319,239.761 "/>
<path clip-path="url(#clip930)" d="M51.9875 1370.6 L81.6633 1370.6 L81.6633 1374.54 L51.9875 1374.54 L51.9875 1370.6 Z" fill="#000000" fill-rule="nonzero" fill-opacity="1" /><path clip-path="url(#clip930)" d="M101.756 1355.95 Q98.1447 1355.95 96.316 1359.51 Q94.5104 1363.05 94.5104 1370.18 Q94.5104 1377.29 96.316 1380.85 Q98.1447 1384.4 101.756 1384.4 Q105.39 1384.4 107.196 1380.85 Q109.024 1377.29 109.024 1370.18 Q109.024 1363.05 107.196 1359.51 Q105.39 1355.95 101.756 1355.95 M101.756 1352.24 Q107.566 1352.24 110.621 1356.85 Q113.7 1361.43 113.7 1370.18 Q113.7 1378.91 110.621 1383.52 Q107.566 1388.1 101.756 1388.1 Q95.9456 1388.1 92.8669 1383.52 Q89.8114 1378.91 89.8114 1370.18 Q89.8114 1361.43 92.8669 1356.85 Q95.9456 1352.24 101.756 1352.24 Z" fill="#000000" fill-rule="nonzero" fill-opacity="1" /><path clip-path="url(#clip930)" d="M121.918 1381.55 L126.802 1381.55 L126.802 1387.43 L121.918 1387.43 L121.918 1381.55 Z" fill="#000000" fill-rule="nonzero" fill-opacity="1" /><path clip-path="url(#clip930)" d="M146.987 1355.95 Q143.376 1355.95 141.547 1359.51 Q139.742 1363.05 139.742 1370.18 Q139.742 1377.29 141.547 1380.85 Q143.376 1384.4 146.987 1384.4 Q150.621 1384.4 152.427 1380.85 Q154.255 1377.29 154.255 1370.18 Q154.255 1363.05 152.427 1359.51 Q150.621 1355.95 146.987 1355.95 M146.987 1352.24 Q152.797 1352.24 155.853 1356.85 Q158.931 1361.43 158.931 1370.18 Q158.931 1378.91 155.853 1383.52 Q152.797 1388.1 146.987 1388.1 Q141.177 1388.1 138.098 1383.52 Q135.043 1378.91 135.043 1370.18 Q135.043 1361.43 138.098 1356.85 Q141.177 1352.24 146.987 1352.24 Z" fill="#000000" fill-rule="nonzero" fill-opacity="1" /><path clip-path="url(#clip930)" d="M177.149 1355.95 Q173.538 1355.95 171.709 1359.51 Q169.904 1363.05 169.904 1370.18 Q169.904 1377.29 171.709 1380.85 Q173.538 1384.4 177.149 1384.4 Q180.783 1384.4 182.589 1380.85 Q184.417 1377.29 184.417 1370.18 Q184.417 1363.05 182.589 1359.51 Q180.783 1355.95 177.149 1355.95 M177.149 1352.24 Q182.959 1352.24 186.015 1356.85 Q189.093 1361.43 189.093 1370.18 Q189.093 1378.91 186.015 1383.52 Q182.959 1388.1 177.149 1388.1 Q171.339 1388.1 168.26 1383.52 Q165.204 1378.91 165.204 1370.18 Q165.204 1361.43 168.26 1356.85 Q171.339 1352.24 177.149 1352.24 Z" fill="#000000" fill-rule="nonzero" fill-opacity="1" /><path clip-path="url(#clip930)" d="M196.13 1352.87 L218.352 1352.87 L218.352 1354.86 L205.806 1387.43 L200.922 1387.43 L212.727 1356.8 L196.13 1356.8 L196.13 1352.87 Z" fill="#000000" fill-rule="nonzero" fill-opacity="1" /><path clip-path="url(#clip930)" d="M227.519 1352.87 L245.875 1352.87 L245.875 1356.8 L231.801 1356.8 L231.801 1365.28 Q232.82 1364.93 233.838 1364.77 Q234.857 1364.58 235.875 1364.58 Q241.662 1364.58 245.042 1367.75 Q248.422 1370.92 248.422 1376.34 Q248.422 1381.92 244.949 1385.02 Q241.477 1388.1 235.158 1388.1 Q232.982 1388.1 230.713 1387.73 Q228.468 1387.36 226.061 1386.62 L226.061 1381.92 Q228.144 1383.05 230.366 1383.61 Q232.588 1384.16 235.065 1384.16 Q239.07 1384.16 241.408 1382.06 Q243.746 1379.95 243.746 1376.34 Q243.746 1372.73 241.408 1370.62 Q239.07 1368.52 235.065 1368.52 Q233.19 1368.52 231.315 1368.93 Q229.463 1369.35 227.519 1370.23 L227.519 1352.87 Z" fill="#000000" fill-rule="nonzero" fill-opacity="1" /><path clip-path="url(#clip930)" d="M50.9921 1182.2 L80.6679 1182.2 L80.6679 1186.14 L50.9921 1186.14 L50.9921 1182.2 Z" fill="#000000" fill-rule="nonzero" fill-opacity="1" /><path clip-path="url(#clip930)" d="M100.76 1167.55 Q97.1493 1167.55 95.3206 1171.11 Q93.515 1174.66 93.515 1181.79 Q93.515 1188.89 95.3206 1192.46 Q97.1493 1196 100.76 1196 Q104.395 1196 106.2 1192.46 Q108.029 1188.89 108.029 1181.79 Q108.029 1174.66 106.2 1171.11 Q104.395 1167.55 100.76 1167.55 M100.76 1163.85 Q106.571 1163.85 109.626 1168.45 Q112.705 1173.04 112.705 1181.79 Q112.705 1190.51 109.626 1195.12 Q106.571 1199.7 100.76 1199.7 Q94.9502 1199.7 91.8715 1195.12 Q88.816 1190.51 88.816 1181.79 Q88.816 1173.04 91.8715 1168.45 Q94.9502 1163.85 100.76 1163.85 Z" fill="#000000" fill-rule="nonzero" fill-opacity="1" /><path clip-path="url(#clip930)" d="M120.922 1193.15 L125.807 1193.15 L125.807 1199.03 L120.922 1199.03 L120.922 1193.15 Z" fill="#000000" fill-rule="nonzero" fill-opacity="1" /><path clip-path="url(#clip930)" d="M145.992 1167.55 Q142.381 1167.55 140.552 1171.11 Q138.746 1174.66 138.746 1181.79 Q138.746 1188.89 140.552 1192.46 Q142.381 1196 145.992 1196 Q149.626 1196 151.431 1192.46 Q153.26 1188.89 153.26 1181.79 Q153.26 1174.66 151.431 1171.11 Q149.626 1167.55 145.992 1167.55 M145.992 1163.85 Q151.802 1163.85 154.857 1168.45 Q157.936 1173.04 157.936 1181.79 Q157.936 1190.51 154.857 1195.12 Q151.802 1199.7 145.992 1199.7 Q140.181 1199.7 137.103 1195.12 Q134.047 1190.51 134.047 1181.79 Q134.047 1173.04 137.103 1168.45 Q140.181 1163.85 145.992 1163.85 Z" fill="#000000" fill-rule="nonzero" fill-opacity="1" /><path clip-path="url(#clip930)" d="M176.153 1167.55 Q172.542 1167.55 170.714 1171.11 Q168.908 1174.66 168.908 1181.79 Q168.908 1188.89 170.714 1192.46 Q172.542 1196 176.153 1196 Q179.788 1196 181.593 1192.46 Q183.422 1188.89 183.422 1181.79 Q183.422 1174.66 181.593 1171.11 Q179.788 1167.55 176.153 1167.55 M176.153 1163.85 Q181.964 1163.85 185.019 1168.45 Q188.098 1173.04 188.098 1181.79 Q188.098 1190.51 185.019 1195.12 Q181.964 1199.7 176.153 1199.7 Q170.343 1199.7 167.265 1195.12 Q164.209 1190.51 164.209 1181.79 Q164.209 1173.04 167.265 1168.45 Q170.343 1163.85 176.153 1163.85 Z" fill="#000000" fill-rule="nonzero" fill-opacity="1" /><path clip-path="url(#clip930)" d="M196.362 1164.47 L214.718 1164.47 L214.718 1168.41 L200.644 1168.41 L200.644 1176.88 Q201.663 1176.53 202.681 1176.37 Q203.7 1176.18 204.718 1176.18 Q210.505 1176.18 213.885 1179.36 Q217.264 1182.53 217.264 1187.94 Q217.264 1193.52 213.792 1196.62 Q210.32 1199.7 204.001 1199.7 Q201.825 1199.7 199.556 1199.33 Q197.311 1198.96 194.903 1198.22 L194.903 1193.52 Q196.987 1194.66 199.209 1195.21 Q201.431 1195.77 203.908 1195.77 Q207.913 1195.77 210.251 1193.66 Q212.588 1191.55 212.588 1187.94 Q212.588 1184.33 210.251 1182.23 Q207.913 1180.12 203.908 1180.12 Q202.033 1180.12 200.158 1180.54 Q198.306 1180.95 196.362 1181.83 L196.362 1164.47 Z" fill="#000000" fill-rule="nonzero" fill-opacity="1" /><path clip-path="url(#clip930)" d="M236.477 1167.55 Q232.866 1167.55 231.037 1171.11 Q229.232 1174.66 229.232 1181.79 Q229.232 1188.89 231.037 1192.46 Q232.866 1196 236.477 1196 Q240.111 1196 241.917 1192.46 Q243.746 1188.89 243.746 1181.79 Q243.746 1174.66 241.917 1171.11 Q240.111 1167.55 236.477 1167.55 M236.477 1163.85 Q242.287 1163.85 245.343 1168.45 Q248.422 1173.04 248.422 1181.79 Q248.422 1190.51 245.343 1195.12 Q242.287 1199.7 236.477 1199.7 Q230.667 1199.7 227.588 1195.12 Q224.533 1190.51 224.533 1181.79 Q224.533 1173.04 227.588 1168.45 Q230.667 1163.85 236.477 1163.85 Z" fill="#000000" fill-rule="nonzero" fill-opacity="1" /><path clip-path="url(#clip930)" d="M51.9875 993.804 L81.6633 993.804 L81.6633 997.739 L51.9875 997.739 L51.9875 993.804 Z" fill="#000000" fill-rule="nonzero" fill-opacity="1" /><path clip-path="url(#clip930)" d="M101.756 979.152 Q98.1447 979.152 96.316 982.716 Q94.5104 986.258 94.5104 993.388 Q94.5104 1000.49 96.316 1004.06 Q98.1447 1007.6 101.756 1007.6 Q105.39 1007.6 107.196 1004.06 Q109.024 1000.49 109.024 993.388 Q109.024 986.258 107.196 982.716 Q105.39 979.152 101.756 979.152 M101.756 975.448 Q107.566 975.448 110.621 980.054 Q113.7 984.638 113.7 993.388 Q113.7 1002.11 110.621 1006.72 Q107.566 1011.3 101.756 1011.3 Q95.9456 1011.3 92.8669 1006.72 Q89.8114 1002.11 89.8114 993.388 Q89.8114 984.638 92.8669 980.054 Q95.9456 975.448 101.756 975.448 Z" fill="#000000" fill-rule="nonzero" fill-opacity="1" /><path clip-path="url(#clip930)" d="M121.918 1004.75 L126.802 1004.75 L126.802 1010.63 L121.918 1010.63 L121.918 1004.75 Z" fill="#000000" fill-rule="nonzero" fill-opacity="1" /><path clip-path="url(#clip930)" d="M146.987 979.152 Q143.376 979.152 141.547 982.716 Q139.742 986.258 139.742 993.388 Q139.742 1000.49 141.547 1004.06 Q143.376 1007.6 146.987 1007.6 Q150.621 1007.6 152.427 1004.06 Q154.255 1000.49 154.255 993.388 Q154.255 986.258 152.427 982.716 Q150.621 979.152 146.987 979.152 M146.987 975.448 Q152.797 975.448 155.853 980.054 Q158.931 984.638 158.931 993.388 Q158.931 1002.11 155.853 1006.72 Q152.797 1011.3 146.987 1011.3 Q141.177 1011.3 138.098 1006.72 Q135.043 1002.11 135.043 993.388 Q135.043 984.638 138.098 980.054 Q141.177 975.448 146.987 975.448 Z" fill="#000000" fill-rule="nonzero" fill-opacity="1" /><path clip-path="url(#clip930)" d="M177.149 979.152 Q173.538 979.152 171.709 982.716 Q169.904 986.258 169.904 993.388 Q169.904 1000.49 171.709 1004.06 Q173.538 1007.6 177.149 1007.6 Q180.783 1007.6 182.589 1004.06 Q184.417 1000.49 184.417 993.388 Q184.417 986.258 182.589 982.716 Q180.783 979.152 177.149 979.152 M177.149 975.448 Q182.959 975.448 186.015 980.054 Q189.093 984.638 189.093 993.388 Q189.093 1002.11 186.015 1006.72 Q182.959 1011.3 177.149 1011.3 Q171.339 1011.3 168.26 1006.72 Q165.204 1002.11 165.204 993.388 Q165.204 984.638 168.26 980.054 Q171.339 975.448 177.149 975.448 Z" fill="#000000" fill-rule="nonzero" fill-opacity="1" /><path clip-path="url(#clip930)" d="M201.339 1006.7 L217.658 1006.7 L217.658 1010.63 L195.714 1010.63 L195.714 1006.7 Q198.376 1003.94 202.959 999.314 Q207.565 994.661 208.746 993.318 Q210.991 990.795 211.871 989.059 Q212.774 987.3 212.774 985.61 Q212.774 982.855 210.829 981.119 Q208.908 979.383 205.806 979.383 Q203.607 979.383 201.153 980.147 Q198.723 980.911 195.945 982.462 L195.945 977.74 Q198.769 976.605 201.223 976.027 Q203.676 975.448 205.714 975.448 Q211.084 975.448 214.278 978.133 Q217.473 980.818 217.473 985.309 Q217.473 987.439 216.663 989.36 Q215.876 991.258 213.769 993.851 Q213.19 994.522 210.088 997.739 Q206.987 1000.93 201.339 1006.7 Z" fill="#000000" fill-rule="nonzero" fill-opacity="1" /><path clip-path="url(#clip930)" d="M227.519 976.073 L245.875 976.073 L245.875 980.008 L231.801 980.008 L231.801 988.48 Q232.82 988.133 233.838 987.971 Q234.857 987.786 235.875 987.786 Q241.662 987.786 245.042 990.957 Q248.422 994.128 248.422 999.545 Q248.422 1005.12 244.949 1008.23 Q241.477 1011.3 235.158 1011.3 Q232.982 1011.3 230.713 1010.93 Q228.468 1010.56 226.061 1009.82 L226.061 1005.12 Q228.144 1006.26 230.366 1006.81 Q232.588 1007.37 235.065 1007.37 Q239.07 1007.37 241.408 1005.26 Q243.746 1003.16 243.746 999.545 Q243.746 995.934 241.408 993.827 Q239.07 991.721 235.065 991.721 Q233.19 991.721 231.315 992.138 Q229.463 992.554 227.519 993.434 L227.519 976.073 Z" fill="#000000" fill-rule="nonzero" fill-opacity="1" /><path clip-path="url(#clip930)" d="M100.76 790.754 Q97.1493 790.754 95.3206 794.318 Q93.515 797.86 93.515 804.99 Q93.515 812.096 95.3206 815.661 Q97.1493 819.203 100.76 819.203 Q104.395 819.203 106.2 815.661 Q108.029 812.096 108.029 804.99 Q108.029 797.86 106.2 794.318 Q104.395 790.754 100.76 790.754 M100.76 787.05 Q106.571 787.05 109.626 791.656 Q112.705 796.24 112.705 804.99 Q112.705 813.717 109.626 818.323 Q106.571 822.906 100.76 822.906 Q94.9502 822.906 91.8715 818.323 Q88.816 813.717 88.816 804.99 Q88.816 796.24 91.8715 791.656 Q94.9502 787.05 100.76 787.05 Z" fill="#000000" fill-rule="nonzero" fill-opacity="1" /><path clip-path="url(#clip930)" d="M120.922 816.355 L125.807 816.355 L125.807 822.235 L120.922 822.235 L120.922 816.355 Z" fill="#000000" fill-rule="nonzero" fill-opacity="1" /><path clip-path="url(#clip930)" d="M145.992 790.754 Q142.381 790.754 140.552 794.318 Q138.746 797.86 138.746 804.99 Q138.746 812.096 140.552 815.661 Q142.381 819.203 145.992 819.203 Q149.626 819.203 151.431 815.661 Q153.26 812.096 153.26 804.99 Q153.26 797.86 151.431 794.318 Q149.626 790.754 145.992 790.754 M145.992 787.05 Q151.802 787.05 154.857 791.656 Q157.936 796.24 157.936 804.99 Q157.936 813.717 154.857 818.323 Q151.802 822.906 145.992 822.906 Q140.181 822.906 137.103 818.323 Q134.047 813.717 134.047 804.99 Q134.047 796.24 137.103 791.656 Q140.181 787.05 145.992 787.05 Z" fill="#000000" fill-rule="nonzero" fill-opacity="1" /><path clip-path="url(#clip930)" d="M176.153 790.754 Q172.542 790.754 170.714 794.318 Q168.908 797.86 168.908 804.99 Q168.908 812.096 170.714 815.661 Q172.542 819.203 176.153 819.203 Q179.788 819.203 181.593 815.661 Q183.422 812.096 183.422 804.99 Q183.422 797.86 181.593 794.318 Q179.788 790.754 176.153 790.754 M176.153 787.05 Q181.964 787.05 185.019 791.656 Q188.098 796.24 188.098 804.99 Q188.098 813.717 185.019 818.323 Q181.964 822.906 176.153 822.906 Q170.343 822.906 167.265 818.323 Q164.209 813.717 164.209 804.99 Q164.209 796.24 167.265 791.656 Q170.343 787.05 176.153 787.05 Z" fill="#000000" fill-rule="nonzero" fill-opacity="1" /><path clip-path="url(#clip930)" d="M206.315 790.754 Q202.704 790.754 200.876 794.318 Q199.07 797.86 199.07 804.99 Q199.07 812.096 200.876 815.661 Q202.704 819.203 206.315 819.203 Q209.95 819.203 211.755 815.661 Q213.584 812.096 213.584 804.99 Q213.584 797.86 211.755 794.318 Q209.95 790.754 206.315 790.754 M206.315 787.05 Q212.126 787.05 215.181 791.656 Q218.26 796.24 218.26 804.99 Q218.26 813.717 215.181 818.323 Q212.126 822.906 206.315 822.906 Q200.505 822.906 197.427 818.323 Q194.371 813.717 194.371 804.99 Q194.371 796.24 197.427 791.656 Q200.505 787.05 206.315 787.05 Z" fill="#000000" fill-rule="nonzero" fill-opacity="1" /><path clip-path="url(#clip930)" d="M236.477 790.754 Q232.866 790.754 231.037 794.318 Q229.232 797.86 229.232 804.99 Q229.232 812.096 231.037 815.661 Q232.866 819.203 236.477 819.203 Q240.111 819.203 241.917 815.661 Q243.746 812.096 243.746 804.99 Q243.746 797.86 241.917 794.318 Q240.111 790.754 236.477 790.754 M236.477 787.05 Q242.287 787.05 245.343 791.656 Q248.422 796.24 248.422 804.99 Q248.422 813.717 245.343 818.323 Q242.287 822.906 236.477 822.906 Q230.667 822.906 227.588 818.323 Q224.533 813.717 224.533 804.99 Q224.533 796.24 227.588 791.656 Q230.667 787.05 236.477 787.05 Z" fill="#000000" fill-rule="nonzero" fill-opacity="1" /><path clip-path="url(#clip930)" d="M101.756 602.356 Q98.1447 602.356 96.316 605.921 Q94.5104 609.462 94.5104 616.592 Q94.5104 623.698 96.316 627.263 Q98.1447 630.805 101.756 630.805 Q105.39 630.805 107.196 627.263 Q109.024 623.698 109.024 616.592 Q109.024 609.462 107.196 605.921 Q105.39 602.356 101.756 602.356 M101.756 598.652 Q107.566 598.652 110.621 603.259 Q113.7 607.842 113.7 616.592 Q113.7 625.319 110.621 629.925 Q107.566 634.508 101.756 634.508 Q95.9456 634.508 92.8669 629.925 Q89.8114 625.319 89.8114 616.592 Q89.8114 607.842 92.8669 603.259 Q95.9456 598.652 101.756 598.652 Z" fill="#000000" fill-rule="nonzero" fill-opacity="1" /><path clip-path="url(#clip930)" d="M121.918 627.957 L126.802 627.957 L126.802 633.837 L121.918 633.837 L121.918 627.957 Z" fill="#000000" fill-rule="nonzero" fill-opacity="1" /><path clip-path="url(#clip930)" d="M146.987 602.356 Q143.376 602.356 141.547 605.921 Q139.742 609.462 139.742 616.592 Q139.742 623.698 141.547 627.263 Q143.376 630.805 146.987 630.805 Q150.621 630.805 152.427 627.263 Q154.255 623.698 154.255 616.592 Q154.255 609.462 152.427 605.921 Q150.621 602.356 146.987 602.356 M146.987 598.652 Q152.797 598.652 155.853 603.259 Q158.931 607.842 158.931 616.592 Q158.931 625.319 155.853 629.925 Q152.797 634.508 146.987 634.508 Q141.177 634.508 138.098 629.925 Q135.043 625.319 135.043 616.592 Q135.043 607.842 138.098 603.259 Q141.177 598.652 146.987 598.652 Z" fill="#000000" fill-rule="nonzero" fill-opacity="1" /><path clip-path="url(#clip930)" d="M177.149 602.356 Q173.538 602.356 171.709 605.921 Q169.904 609.462 169.904 616.592 Q169.904 623.698 171.709 627.263 Q173.538 630.805 177.149 630.805 Q180.783 630.805 182.589 627.263 Q184.417 623.698 184.417 616.592 Q184.417 609.462 182.589 605.921 Q180.783 602.356 177.149 602.356 M177.149 598.652 Q182.959 598.652 186.015 603.259 Q189.093 607.842 189.093 616.592 Q189.093 625.319 186.015 629.925 Q182.959 634.508 177.149 634.508 Q171.339 634.508 168.26 629.925 Q165.204 625.319 165.204 616.592 Q165.204 607.842 168.26 603.259 Q171.339 598.652 177.149 598.652 Z" fill="#000000" fill-rule="nonzero" fill-opacity="1" /><path clip-path="url(#clip930)" d="M201.339 629.902 L217.658 629.902 L217.658 633.837 L195.714 633.837 L195.714 629.902 Q198.376 627.147 202.959 622.518 Q207.565 617.865 208.746 616.522 Q210.991 613.999 211.871 612.263 Q212.774 610.504 212.774 608.814 Q212.774 606.059 210.829 604.323 Q208.908 602.587 205.806 602.587 Q203.607 602.587 201.153 603.351 Q198.723 604.115 195.945 605.666 L195.945 600.944 Q198.769 599.809 201.223 599.231 Q203.676 598.652 205.714 598.652 Q211.084 598.652 214.278 601.337 Q217.473 604.022 217.473 608.513 Q217.473 610.643 216.663 612.564 Q215.876 614.462 213.769 617.055 Q213.19 617.726 210.088 620.944 Q206.987 624.138 201.339 629.902 Z" fill="#000000" fill-rule="nonzero" fill-opacity="1" /><path clip-path="url(#clip930)" d="M227.519 599.277 L245.875 599.277 L245.875 603.212 L231.801 603.212 L231.801 611.684 Q232.82 611.337 233.838 611.175 Q234.857 610.99 235.875 610.99 Q241.662 610.99 245.042 614.161 Q248.422 617.333 248.422 622.749 Q248.422 628.328 244.949 631.43 Q241.477 634.508 235.158 634.508 Q232.982 634.508 230.713 634.138 Q228.468 633.768 226.061 633.027 L226.061 628.328 Q228.144 629.462 230.366 630.018 Q232.588 630.573 235.065 630.573 Q239.07 630.573 241.408 628.467 Q243.746 626.36 243.746 622.749 Q243.746 619.138 241.408 617.032 Q239.07 614.925 235.065 614.925 Q233.19 614.925 231.315 615.342 Q229.463 615.758 227.519 616.638 L227.519 599.277 Z" fill="#000000" fill-rule="nonzero" fill-opacity="1" /><path clip-path="url(#clip930)" d="M100.76 413.958 Q97.1493 413.958 95.3206 417.523 Q93.515 421.064 93.515 428.194 Q93.515 435.3 95.3206 438.865 Q97.1493 442.407 100.76 442.407 Q104.395 442.407 106.2 438.865 Q108.029 435.3 108.029 428.194 Q108.029 421.064 106.2 417.523 Q104.395 413.958 100.76 413.958 M100.76 410.254 Q106.571 410.254 109.626 414.861 Q112.705 419.444 112.705 428.194 Q112.705 436.921 109.626 441.527 Q106.571 446.11 100.76 446.11 Q94.9502 446.11 91.8715 441.527 Q88.816 436.921 88.816 428.194 Q88.816 419.444 91.8715 414.861 Q94.9502 410.254 100.76 410.254 Z" fill="#000000" fill-rule="nonzero" fill-opacity="1" /><path clip-path="url(#clip930)" d="M120.922 439.56 L125.807 439.56 L125.807 445.439 L120.922 445.439 L120.922 439.56 Z" fill="#000000" fill-rule="nonzero" fill-opacity="1" /><path clip-path="url(#clip930)" d="M145.992 413.958 Q142.381 413.958 140.552 417.523 Q138.746 421.064 138.746 428.194 Q138.746 435.3 140.552 438.865 Q142.381 442.407 145.992 442.407 Q149.626 442.407 151.431 438.865 Q153.26 435.3 153.26 428.194 Q153.26 421.064 151.431 417.523 Q149.626 413.958 145.992 413.958 M145.992 410.254 Q151.802 410.254 154.857 414.861 Q157.936 419.444 157.936 428.194 Q157.936 436.921 154.857 441.527 Q151.802 446.11 145.992 446.11 Q140.181 446.11 137.103 441.527 Q134.047 436.921 134.047 428.194 Q134.047 419.444 137.103 414.861 Q140.181 410.254 145.992 410.254 Z" fill="#000000" fill-rule="nonzero" fill-opacity="1" /><path clip-path="url(#clip930)" d="M176.153 413.958 Q172.542 413.958 170.714 417.523 Q168.908 421.064 168.908 428.194 Q168.908 435.3 170.714 438.865 Q172.542 442.407 176.153 442.407 Q179.788 442.407 181.593 438.865 Q183.422 435.3 183.422 428.194 Q183.422 421.064 181.593 417.523 Q179.788 413.958 176.153 413.958 M176.153 410.254 Q181.964 410.254 185.019 414.861 Q188.098 419.444 188.098 428.194 Q188.098 436.921 185.019 441.527 Q181.964 446.11 176.153 446.11 Q170.343 446.11 167.265 441.527 Q164.209 436.921 164.209 428.194 Q164.209 419.444 167.265 414.861 Q170.343 410.254 176.153 410.254 Z" fill="#000000" fill-rule="nonzero" fill-opacity="1" /><path clip-path="url(#clip930)" d="M196.362 410.879 L214.718 410.879 L214.718 414.814 L200.644 414.814 L200.644 423.286 Q201.663 422.939 202.681 422.777 Q203.7 422.592 204.718 422.592 Q210.505 422.592 213.885 425.763 Q217.264 428.935 217.264 434.351 Q217.264 439.93 213.792 443.032 Q210.32 446.11 204.001 446.11 Q201.825 446.11 199.556 445.74 Q197.311 445.37 194.903 444.629 L194.903 439.93 Q196.987 441.064 199.209 441.62 Q201.431 442.175 203.908 442.175 Q207.913 442.175 210.251 440.069 Q212.588 437.962 212.588 434.351 Q212.588 430.74 210.251 428.634 Q207.913 426.527 203.908 426.527 Q202.033 426.527 200.158 426.944 Q198.306 427.36 196.362 428.24 L196.362 410.879 Z" fill="#000000" fill-rule="nonzero" fill-opacity="1" /><path clip-path="url(#clip930)" d="M236.477 413.958 Q232.866 413.958 231.037 417.523 Q229.232 421.064 229.232 428.194 Q229.232 435.3 231.037 438.865 Q232.866 442.407 236.477 442.407 Q240.111 442.407 241.917 438.865 Q243.746 435.3 243.746 428.194 Q243.746 421.064 241.917 417.523 Q240.111 413.958 236.477 413.958 M236.477 410.254 Q242.287 410.254 245.343 414.861 Q248.422 419.444 248.422 428.194 Q248.422 436.921 245.343 441.527 Q242.287 446.11 236.477 446.11 Q230.667 446.11 227.588 441.527 Q224.533 436.921 224.533 428.194 Q224.533 419.444 227.588 414.861 Q230.667 410.254 236.477 410.254 Z" fill="#000000" fill-rule="nonzero" fill-opacity="1" /><path clip-path="url(#clip930)" d="M101.756 225.56 Q98.1447 225.56 96.316 229.125 Q94.5104 232.666 94.5104 239.796 Q94.5104 246.902 96.316 250.467 Q98.1447 254.009 101.756 254.009 Q105.39 254.009 107.196 250.467 Q109.024 246.902 109.024 239.796 Q109.024 232.666 107.196 229.125 Q105.39 225.56 101.756 225.56 M101.756 221.856 Q107.566 221.856 110.621 226.463 Q113.7 231.046 113.7 239.796 Q113.7 248.523 110.621 253.129 Q107.566 257.712 101.756 257.712 Q95.9456 257.712 92.8669 253.129 Q89.8114 248.523 89.8114 239.796 Q89.8114 231.046 92.8669 226.463 Q95.9456 221.856 101.756 221.856 Z" fill="#000000" fill-rule="nonzero" fill-opacity="1" /><path clip-path="url(#clip930)" d="M121.918 251.162 L126.802 251.162 L126.802 257.041 L121.918 257.041 L121.918 251.162 Z" fill="#000000" fill-rule="nonzero" fill-opacity="1" /><path clip-path="url(#clip930)" d="M146.987 225.56 Q143.376 225.56 141.547 229.125 Q139.742 232.666 139.742 239.796 Q139.742 246.902 141.547 250.467 Q143.376 254.009 146.987 254.009 Q150.621 254.009 152.427 250.467 Q154.255 246.902 154.255 239.796 Q154.255 232.666 152.427 229.125 Q150.621 225.56 146.987 225.56 M146.987 221.856 Q152.797 221.856 155.853 226.463 Q158.931 231.046 158.931 239.796 Q158.931 248.523 155.853 253.129 Q152.797 257.712 146.987 257.712 Q141.177 257.712 138.098 253.129 Q135.043 248.523 135.043 239.796 Q135.043 231.046 138.098 226.463 Q141.177 221.856 146.987 221.856 Z" fill="#000000" fill-rule="nonzero" fill-opacity="1" /><path clip-path="url(#clip930)" d="M177.149 225.56 Q173.538 225.56 171.709 229.125 Q169.904 232.666 169.904 239.796 Q169.904 246.902 171.709 250.467 Q173.538 254.009 177.149 254.009 Q180.783 254.009 182.589 250.467 Q184.417 246.902 184.417 239.796 Q184.417 232.666 182.589 229.125 Q180.783 225.56 177.149 225.56 M177.149 221.856 Q182.959 221.856 186.015 226.463 Q189.093 231.046 189.093 239.796 Q189.093 248.523 186.015 253.129 Q182.959 257.712 177.149 257.712 Q171.339 257.712 168.26 253.129 Q165.204 248.523 165.204 239.796 Q165.204 231.046 168.26 226.463 Q171.339 221.856 177.149 221.856 Z" fill="#000000" fill-rule="nonzero" fill-opacity="1" /><path clip-path="url(#clip930)" d="M196.13 222.481 L218.352 222.481 L218.352 224.472 L205.806 257.041 L200.922 257.041 L212.727 226.416 L196.13 226.416 L196.13 222.481 Z" fill="#000000" fill-rule="nonzero" fill-opacity="1" /><path clip-path="url(#clip930)" d="M227.519 222.481 L245.875 222.481 L245.875 226.416 L231.801 226.416 L231.801 234.889 Q232.82 234.541 233.838 234.379 Q234.857 234.194 235.875 234.194 Q241.662 234.194 245.042 237.365 Q248.422 240.537 248.422 245.953 Q248.422 251.532 244.949 254.634 Q241.477 257.712 235.158 257.712 Q232.982 257.712 230.713 257.342 Q228.468 256.972 226.061 256.231 L226.061 251.532 Q228.144 252.666 230.366 253.222 Q232.588 253.777 235.065 253.777 Q239.07 253.777 241.408 251.671 Q243.746 249.564 243.746 245.953 Q243.746 242.342 241.408 240.236 Q239.07 238.129 235.065 238.129 Q233.19 238.129 231.315 238.546 Q229.463 238.963 227.519 239.842 L227.519 222.481 Z" fill="#000000" fill-rule="nonzero" fill-opacity="1" /><path clip-path="url(#clip930)" d="M1089.85 65.7705 L1089.85 89.8329 L1082.36 89.8329 L1082.36 27.2059 L1089.85 27.2059 L1089.85 34.0924 Q1092.2 30.0415 1095.77 28.0971 Q1099.37 26.1121 1104.36 26.1121 Q1112.62 26.1121 1117.77 32.6746 Q1122.95 39.2371 1122.95 49.9314 Q1122.95 60.6258 1117.77 67.1883 Q1112.62 73.7508 1104.36 73.7508 Q1099.37 73.7508 1095.77 71.8063 Q1092.2 69.8214 1089.85 65.7705 M1115.21 49.9314 Q1115.21 41.7081 1111.81 37.0496 Q1108.45 32.3505 1102.53 32.3505 Q1096.62 32.3505 1093.22 37.0496 Q1089.85 41.7081 1089.85 49.9314 Q1089.85 58.1548 1093.22 62.8538 Q1096.62 67.5124 1102.53 67.5124 Q1108.45 67.5124 1111.81 62.8538 Q1115.21 58.1548 1115.21 49.9314 Z" fill="#000000" fill-rule="nonzero" fill-opacity="1" /><path clip-path="url(#clip930)" d="M1152.89 32.4315 Q1146.89 32.4315 1143.41 37.1306 Q1139.92 41.7891 1139.92 49.9314 Q1139.92 58.0738 1143.37 62.7728 Q1146.85 67.4314 1152.89 67.4314 Q1158.84 67.4314 1162.33 62.7323 Q1165.81 58.0333 1165.81 49.9314 Q1165.81 41.8701 1162.33 37.1711 Q1158.84 32.4315 1152.89 32.4315 M1152.89 26.1121 Q1162.61 26.1121 1168.16 32.4315 Q1173.71 38.7509 1173.71 49.9314 Q1173.71 61.0714 1168.16 67.4314 Q1162.61 73.7508 1152.89 73.7508 Q1143.12 73.7508 1137.57 67.4314 Q1132.06 61.0714 1132.06 49.9314 Q1132.06 38.7509 1137.57 32.4315 Q1143.12 26.1121 1152.89 26.1121 Z" fill="#000000" fill-rule="nonzero" fill-opacity="1" /><path clip-path="url(#clip930)" d="M1212.35 34.1734 Q1211.1 33.4443 1209.6 33.1202 Q1208.14 32.7556 1206.36 32.7556 Q1200.04 32.7556 1196.64 36.8875 Q1193.27 40.9789 1193.27 48.6757 L1193.27 72.576 L1185.78 72.576 L1185.78 27.2059 L1193.27 27.2059 L1193.27 34.2544 Q1195.62 30.1225 1199.39 28.1376 Q1203.16 26.1121 1208.55 26.1121 Q1209.32 26.1121 1210.25 26.2337 Q1211.18 26.3147 1212.31 26.5172 L1212.35 34.1734 Z" fill="#000000" fill-rule="nonzero" fill-opacity="1" /><path clip-path="url(#clip930)" d="M1235.93 32.4315 Q1229.93 32.4315 1226.45 37.1306 Q1222.97 41.7891 1222.97 49.9314 Q1222.97 58.0738 1226.41 62.7728 Q1229.89 67.4314 1235.93 67.4314 Q1241.88 67.4314 1245.37 62.7323 Q1248.85 58.0333 1248.85 49.9314 Q1248.85 41.8701 1245.37 37.1711 Q1241.88 32.4315 1235.93 32.4315 M1235.93 26.1121 Q1245.65 26.1121 1251.2 32.4315 Q1256.75 38.7509 1256.75 49.9314 Q1256.75 61.0714 1251.2 67.4314 Q1245.65 73.7508 1235.93 73.7508 Q1226.17 73.7508 1220.62 67.4314 Q1215.11 61.0714 1215.11 49.9314 Q1215.11 38.7509 1220.62 32.4315 Q1226.17 26.1121 1235.93 26.1121 M1241.56 6.22219 L1249.62 6.22219 L1236.42 21.4536 L1230.22 21.4536 L1241.56 6.22219 Z" fill="#000000" fill-rule="nonzero" fill-opacity="1" /><path clip-path="url(#clip930)" d="M1264.77 27.2059 L1272.23 27.2059 L1281.54 62.6108 L1290.82 27.2059 L1299.61 27.2059 L1308.93 62.6108 L1318.2 27.2059 L1325.66 27.2059 L1313.79 72.576 L1305 72.576 L1295.24 35.3887 L1285.43 72.576 L1276.64 72.576 L1264.77 27.2059 Z" fill="#000000" fill-rule="nonzero" fill-opacity="1" /><path clip-path="url(#clip930)" d="M1374.67 45.1919 L1374.67 72.576 L1367.22 72.576 L1367.22 45.4349 Q1367.22 38.994 1364.71 35.7938 Q1362.2 32.5936 1357.17 32.5936 Q1351.14 32.5936 1347.65 36.4419 Q1344.17 40.2903 1344.17 46.9338 L1344.17 72.576 L1336.68 72.576 L1336.68 27.2059 L1344.17 27.2059 L1344.17 34.2544 Q1346.84 30.163 1350.45 28.1376 Q1354.09 26.1121 1358.83 26.1121 Q1366.65 26.1121 1370.66 30.9732 Q1374.67 35.7938 1374.67 45.1919 Z" fill="#000000" fill-rule="nonzero" fill-opacity="1" /><path clip-path="url(#clip930)" d="M1410.16 49.7694 Q1401.13 49.7694 1397.64 51.8354 Q1394.16 53.9013 1394.16 58.8839 Q1394.16 62.8538 1396.75 65.2034 Q1399.38 67.5124 1403.88 67.5124 Q1410.08 67.5124 1413.81 63.1374 Q1417.57 58.7219 1417.57 51.4303 L1417.57 49.7694 L1410.16 49.7694 M1425.03 46.6907 L1425.03 72.576 L1417.57 72.576 L1417.57 65.6895 Q1415.02 69.8214 1411.21 71.8063 Q1407.4 73.7508 1401.9 73.7508 Q1394.93 73.7508 1390.8 69.8619 Q1386.7 65.9325 1386.7 59.3701 Q1386.7 51.7138 1391.81 47.825 Q1396.95 43.9361 1407.12 43.9361 L1417.57 43.9361 L1417.57 43.2069 Q1417.57 38.0623 1414.17 35.2672 Q1410.81 32.4315 1404.69 32.4315 Q1400.8 32.4315 1397.12 33.3632 Q1393.43 34.295 1390.03 36.1584 L1390.03 29.2718 Q1394.12 27.692 1397.97 26.9223 Q1401.81 26.1121 1405.46 26.1121 Q1415.3 26.1121 1420.17 31.2163 Q1425.03 36.3204 1425.03 46.6907 Z" fill="#000000" fill-rule="nonzero" fill-opacity="1" /><path clip-path="url(#clip930)" d="M1478.09 45.1919 L1478.09 72.576 L1470.64 72.576 L1470.64 45.4349 Q1470.64 38.994 1468.13 35.7938 Q1465.62 32.5936 1460.59 32.5936 Q1454.56 32.5936 1451.07 36.4419 Q1447.59 40.2903 1447.59 46.9338 L1447.59 72.576 L1440.1 72.576 L1440.1 27.2059 L1447.59 27.2059 L1447.59 34.2544 Q1450.26 30.163 1453.87 28.1376 Q1457.51 26.1121 1462.25 26.1121 Q1470.07 26.1121 1474.08 30.9732 Q1478.09 35.7938 1478.09 45.1919 Z" fill="#000000" fill-rule="nonzero" fill-opacity="1" /><path clip-path="url(#clip930)" d="M1492.96 27.2059 L1500.41 27.2059 L1500.41 72.576 L1492.96 72.576 L1492.96 27.2059 M1492.96 9.54393 L1500.41 9.54393 L1500.41 18.9825 L1492.96 18.9825 L1492.96 9.54393 Z" fill="#000000" fill-rule="nonzero" fill-opacity="1" /><path clip-path="url(#clip930)" d="M1554.82 48.0275 L1554.82 51.6733 L1520.55 51.6733 Q1521.03 59.3701 1525.16 63.421 Q1529.34 67.4314 1536.75 67.4314 Q1541.04 67.4314 1545.05 66.3781 Q1549.11 65.3249 1553.08 63.2184 L1553.08 70.267 Q1549.06 71.9684 1544.85 72.8596 Q1540.64 73.7508 1536.3 73.7508 Q1525.45 73.7508 1519.09 67.4314 Q1512.77 61.1119 1512.77 50.3365 Q1512.77 39.1965 1518.76 32.6746 Q1524.8 26.1121 1535.01 26.1121 Q1544.16 26.1121 1549.47 32.0264 Q1554.82 37.9003 1554.82 48.0275 M1547.36 45.84 Q1547.28 39.7232 1543.92 36.0774 Q1540.6 32.4315 1535.09 32.4315 Q1528.85 32.4315 1525.08 35.9558 Q1521.36 39.4801 1520.79 45.8805 L1547.36 45.84 Z" fill="#000000" fill-rule="nonzero" fill-opacity="1" /><polyline clip-path="url(#clip932)" style="stroke:#009af9; stroke-linecap:round; stroke-linejoin:round; stroke-width:4; stroke-opacity:1; fill:none" points="284.422,804.955 286.105,760.453 287.788,718.06 289.471,677.716 291.155,639.361 292.838,602.934 294.521,568.378 295.363,551.784 296.204,535.637 297.046,519.93 297.888,504.656 299.833,470.969 301.779,439.48 303.724,410.107 305.67,382.776 307.615,357.409 309.561,333.934 311.506,312.28 313.452,292.377 315.397,274.157 317.343,257.554 319.288,242.505 321.234,228.947 323.179,216.819 325.125,206.063 327.07,196.622 329.016,188.439 330.961,181.461 332.907,175.635 334.852,170.909 336.798,167.235 338.743,164.564 340.689,162.85 342.634,162.047 344.58,162.111 348.471,164.67 352.362,170.203 356.253,178.401 360.144,188.979 364.035,201.667 367.926,216.212 371.817,232.379 375.708,249.948 379.599,268.714 383.49,288.486 387.381,309.088 391.272,330.355 406.836,419.21 422.4,508.526 431.753,560.021 441.107,608.788 445.783,631.942 450.46,654.192 455.137,675.487 459.813,695.788 464.49,715.063 469.167,733.289 473.844,750.453 478.52,766.547 483.197,781.569 487.874,795.524 492.55,808.422 497.227,820.277 505.135,838.007 513.043,852.925 520.951,865.172 528.859,874.904 536.768,882.294 544.676,887.526 552.584,890.789 560.492,892.274 569.082,892.099 577.673,890.297 586.263,887.107 594.854,882.757 612.035,871.437 629.216,857.92 660.894,831.58 692.573,808.38 709.554,798.534 726.536,790.857 743.517,785.421 760.498,782.161 780.173,780.873 799.848,781.869 819.522,784.659 839.197,788.715 874.166,797.43 909.135,805.89 939.799,811.598 970.464,814.958 1003.9,815.753 1037.33,813.935 1070.96,810.294 1104.59,805.889 1141.78,801.397 1178.96,798.403 1214.34,797.547 1249.72,798.708 1323.29,805.46 1385.22,811.068 1423.03,812.364 1460.84,811.362 1495.47,808.506 1530.1,804.347 1562.09,800.138 1594.07,796.499 1626.48,794.337 1658.88,794.502 1695.19,797.989 1731.5,804.785 1764.41,812.838 1797.31,821.041 1816.15,824.978 1834.99,827.793 1853.82,829.019 1872.66,828.219 1890.1,825.348 1907.54,820.213 1924.98,812.716 1942.42,802.909 1959.62,791.204 1976.82,777.9 1994.01,763.647 2011.21,749.336 2027.9,736.469 2044.6,725.902 2052.94,721.937 2061.29,719.116 2069.64,717.653 2077.99,717.766 2086.54,719.753 2095.1,723.876 2103.66,730.379 2112.21,739.498 2120.77,751.46 2129.33,766.474 2133.61,775.185 2137.89,784.727 2142.17,795.118 2146.44,806.373 2151.13,819.713 2155.82,834.119 2160.51,849.6 2165.19,866.158 2169.88,883.789 2174.57,902.483 2179.26,922.222 2183.95,942.979 2188.63,964.721 2193.32,987.403 2198.01,1010.97 2202.7,1035.36 2212.07,1086.26 2221.45,1139.31 2235.07,1218.04 2248.69,1294.82 2252.09,1313.06 2255.5,1330.73 2258.9,1347.7 2262.31,1363.85 2265.71,1379.05 2269.12,1393.16 2272.52,1406.04 2275.93,1417.52 2279.33,1427.45 2282.74,1435.64 2286.14,1441.9 2289.55,1446.05 2292.95,1447.87 2296.35,1447.14 2299.76,1443.63 2303.16,1437.09 2304.87,1432.61 2306.57,1427.27 2308.27,1421.04 2309.97,1413.89 2311.68,1405.77 2313.38,1396.66 2315.08,1386.51 2316.78,1375.29 2318.49,1362.95 2320.19,1349.45 2321.89,1334.76 2323.59,1318.82 2325.3,1301.6 2327,1283.05 2328.7,1263.12 2330.4,1241.77 2331.8,1223.15 2333.2,1203.51 2334.59,1182.83 2335.99,1161.07 2337.39,1138.2 2338.79,1114.2 2340.18,1089.04 2341.58,1062.68 2342.98,1035.1 2344.37,1006.26 2345.77,976.128 2347.17,944.675 2348.56,911.866 2349.96,877.666 2351.36,842.041 2352.76,804.955 "/>
<polyline clip-path="url(#clip932)" style="stroke:#e26f46; stroke-linecap:round; stroke-linejoin:round; stroke-width:4; stroke-opacity:1; fill:none" points="284.422,878.548 285.263,871.418 286.105,864.52 286.946,857.849 287.788,851.4 288.63,845.17 289.471,839.155 290.313,833.349 291.155,827.749 291.996,822.35 292.838,817.15 293.679,812.143 294.521,807.327 295.363,802.696 296.204,798.247 297.046,793.977 297.888,789.882 298.86,785.362 299.833,781.065 300.806,776.986 301.779,773.118 302.751,769.458 303.724,766 304.697,762.738 305.67,759.667 306.642,756.784 307.615,754.082 308.588,751.557 309.561,749.204 310.533,747.019 311.506,744.997 312.479,743.134 313.452,741.424 314.424,739.865 315.397,738.451 316.37,737.179 317.343,736.044 318.315,735.042 319.288,734.17 320.261,733.423 321.234,732.797 322.206,732.29 323.179,731.896 324.152,731.613 325.125,731.437 326.097,731.364 327.07,731.392 328.043,731.516 329.016,731.733 330.961,732.435 332.907,733.472 334.852,734.82 336.798,736.456 338.743,738.357 340.689,740.501 342.634,742.868 344.58,745.438 346.525,748.192 348.471,751.112 350.416,754.18 352.362,757.379 356.253,764.107 360.144,771.178 367.926,785.919 375.708,800.847 379.599,808.184 383.49,815.349 387.381,822.286 391.272,828.945 395.163,835.282 399.054,841.261 401,844.107 402.945,846.852 404.891,849.493 406.836,852.027 408.782,854.453 410.727,856.767 412.673,858.969 414.618,861.056 416.564,863.027 418.509,864.881 420.455,866.617 422.4,868.234 424.738,870.021 427.077,871.635 429.415,873.077 431.753,874.348 434.092,875.447 436.43,876.377 438.768,877.139 441.107,877.734 443.445,878.165 445.783,878.435 448.122,878.545 450.46,878.498 452.798,878.299 455.137,877.949 457.475,877.454 459.813,876.815 462.152,876.037 464.49,875.125 466.829,874.082 469.167,872.912 471.505,871.62 473.844,870.211 476.182,868.688 478.52,867.057 480.859,865.321 483.197,863.487 485.535,861.559 487.874,859.541 492.55,855.255 497.227,850.671 501.181,846.59 505.135,842.346 509.089,837.963 513.043,833.463 520.951,824.205 528.859,814.746 536.768,805.254 544.676,795.883 552.584,786.777 560.492,778.067 564.787,773.544 569.082,769.19 573.378,765.02 577.673,761.048 581.968,757.289 586.263,753.753 590.559,750.451 594.854,747.394 599.149,744.588 603.444,742.042 607.74,739.76 612.035,737.748 616.33,736.009 620.625,734.545 624.92,733.358 629.216,732.448 633.175,731.853 637.135,731.492 641.095,731.363 645.055,731.461 649.015,731.786 652.975,732.332 656.934,733.095 660.894,734.07 664.854,735.252 668.814,736.635 672.774,738.212 676.734,739.977 680.693,741.922 684.653,744.039 688.613,746.322 692.573,748.761 696.818,751.54 701.063,754.478 705.309,757.565 709.554,760.79 713.8,764.14 718.045,767.604 722.29,771.17 726.536,774.827 735.026,782.363 743.517,790.118 752.008,797.997 760.498,805.906 770.336,814.989 780.173,823.856 785.092,828.169 790.01,832.381 794.929,836.478 799.848,840.446 804.766,844.271 809.685,847.942 814.603,851.447 819.522,854.775 824.441,857.915 829.359,860.858 834.278,863.596 839.197,866.122 843.568,868.181 847.939,870.063 852.31,871.762 856.681,873.277 861.052,874.604 865.423,875.741 869.795,876.686 874.166,877.438 878.537,877.997 882.908,878.362 887.279,878.533 891.65,878.512 896.021,878.299 900.392,877.897 904.763,877.307 909.135,876.533 912.968,875.704 916.801,874.738 920.634,873.637 924.467,872.403 928.3,871.041 932.133,869.553 935.966,867.943 939.799,866.214 943.632,864.371 947.465,862.416 951.298,860.355 955.131,858.192 962.798,853.577 970.464,848.61 978.822,842.839 987.18,836.751 995.538,830.401 1003.9,823.845 1020.61,810.354 1037.33,796.745 1045.74,790.002 1054.14,783.402 1062.55,777.001 1070.96,770.852 1079.37,765.004 1087.78,759.504 1091.98,756.899 1096.18,754.397 1100.39,752.004 1104.59,749.723 1109.24,747.338 1113.89,745.102 1118.54,743.02 1123.18,741.098 1127.83,739.338 1132.48,737.746 1137.13,736.326 1141.78,735.079 1146.42,734.009 1151.07,733.118 1155.72,732.408 1160.37,731.881 1165.02,731.536 1169.66,731.375 1174.31,731.398 1178.96,731.604 1183.38,731.969 1187.8,732.498 1192.23,733.19 1196.65,734.043 1201.07,735.054 1205.49,736.222 1209.92,737.542 1214.34,739.013 1218.76,740.631 1223.18,742.391 1227.61,744.291 1232.03,746.325 1236.45,748.489 1240.87,750.777 1245.3,753.186 1249.72,755.709 1258.91,761.296 1268.11,767.3 1277.31,773.662 1286.5,780.321 1304.9,794.275 1323.29,808.634 1338.77,820.635 1354.26,832.215 1362,837.75 1369.74,843.063 1377.48,848.119 1385.22,852.884 1389.95,855.635 1394.67,858.259 1399.4,860.748 1404.13,863.096 1408.85,865.297 1413.58,867.346 1418.3,869.236 1423.03,870.963 1427.76,872.523 1432.48,873.91 1437.21,875.122 1441.93,876.155 1446.66,877.006 1451.38,877.673 1456.11,878.153 1460.84,878.445 1465.17,878.546 1469.49,878.489 1473.82,878.272 1478.15,877.896 1482.48,877.361 1486.81,876.668 1491.14,875.819 1495.47,874.814 1499.8,873.656 1504.13,872.347 1508.46,870.889 1512.79,869.286 1517.11,867.539 1521.44,865.654 1525.77,863.632 1530.1,861.48 1538.1,857.173 1546.09,852.463 1554.09,847.384 1562.09,841.971 1570.08,836.264 1578.08,830.305 1586.08,824.138 1594.07,817.809 1610.27,804.688 1626.48,791.513 1634.58,785.038 1642.68,778.71 1650.78,772.58 1658.88,766.701 1663.42,763.536 1667.95,760.474 1672.49,757.524 1677.03,754.694 1681.57,751.992 1686.11,749.427 1690.65,747.006 1695.19,744.735 1699.73,742.622 1704.27,740.673 1708.81,738.895 1713.35,737.293 1717.88,735.873 1722.42,734.639 1726.96,733.597 1731.5,732.749 1735.61,732.152 1739.73,731.721 1743.84,731.457 1747.95,731.362 1752.07,731.438 1756.18,731.684 1760.29,732.101 1764.41,732.691 1768.52,733.451 1772.63,734.382 1776.75,735.483 1780.86,736.751 1784.97,738.186 1789.09,739.785 1793.2,741.544 1797.31,743.462 1802.02,745.847 1806.73,748.428 1811.44,751.199 1816.15,754.153 1820.86,757.281 1825.57,760.575 1830.28,764.025 1834.99,767.622 1839.69,771.355 1844.4,775.212 1849.11,779.182 1853.82,783.253 1863.24,791.643 1872.66,800.275 1881.38,808.381 1890.1,816.498 1898.82,824.526 1907.54,832.363 1911.9,836.178 1916.26,839.906 1920.62,843.535 1924.98,847.051 1929.34,850.443 1933.7,853.697 1938.06,856.801 1942.42,859.743 1946.72,862.473 1951.02,865.024 1955.32,867.384 1959.62,869.543 1963.92,871.492 1968.22,873.22 1972.52,874.72 1976.82,875.983 1981.11,877.001 1985.41,877.768 1989.71,878.278 1994.01,878.524 1998.31,878.503 2002.61,878.21 2006.91,877.643 2011.21,876.8 2015.38,875.716 2019.55,874.371 2023.73,872.765 2027.9,870.901 2032.07,868.781 2036.25,866.409 2040.42,863.79 2044.6,860.93 2048.77,857.836 2052.94,854.516 2057.12,850.979 2061.29,847.235 2065.46,843.297 2069.64,839.176 2073.81,834.887 2077.99,830.443 2086.54,820.921 2095.1,810.971 2103.66,800.764 2112.21,790.489 2120.77,780.348 2129.33,770.558 2133.61,765.866 2137.89,761.348 2142.17,757.033 2146.44,752.952 2151.13,748.785 2155.82,744.972 2158.16,743.212 2160.51,741.554 2162.85,740.005 2165.19,738.568 2167.54,737.249 2169.88,736.052 2172.23,734.98 2174.57,734.04 2176.91,733.234 2179.26,732.567 2181.6,732.042 2183.95,731.665 2186.29,731.437 2188.63,731.362 2190.98,731.444 2193.32,731.686 2195.67,732.089 2198.01,732.657 2200.35,733.393 2202.7,734.296 2205.04,735.37 2207.38,736.616 2209.73,738.034 2212.07,739.625 2214.42,741.389 2216.76,743.325 2219.1,745.434 2221.45,747.714 2224.85,751.326 2228.26,755.289 2231.66,759.592 2235.07,764.223 2238.47,769.169 2241.88,774.41 2245.28,779.927 2248.69,785.694 2252.09,791.685 2255.5,797.866 2258.9,804.204 2262.31,810.657 2269.12,823.73 2275.93,836.671 2279.33,842.94 2282.74,848.983 2286.14,854.723 2289.55,860.075 2291.25,862.579 2292.95,864.951 2294.65,867.18 2296.35,869.253 2298.06,871.156 2299.76,872.876 2301.46,874.398 2303.16,875.708 2304.87,876.79 2306.57,877.628 2308.27,878.206 2309.97,878.507 2311.68,878.513 2313.38,878.207 2315.08,877.568 2316.78,876.58 2317.64,875.947 2318.49,875.22 2319.34,874.394 2320.19,873.469 2321.04,872.44 2321.89,871.305 2322.74,870.061 2323.59,868.706 2324.44,867.237 2325.3,865.65 2326.15,863.944 2327,862.114 2327.85,860.158 2328.7,858.073 2329.55,855.856 2330.4,853.503 2331.8,849.339 2333.2,844.788 2333.9,842.362 2334.59,839.833 2335.29,837.2 2335.99,834.461 2336.69,831.613 2337.39,828.655 2338.09,825.584 2338.79,822.399 2339.48,819.098 2340.18,815.678 2340.88,812.138 2341.58,808.475 2342.28,804.687 2342.98,800.773 2343.68,796.729 2344.37,792.554 2345.07,788.245 2345.77,783.8 2346.47,779.217 2347.17,774.493 2347.87,769.627 2348.56,764.616 2349.26,759.457 2349.96,754.148 2350.66,748.686 2351.36,743.07 2352.06,737.296 2352.76,731.362 "/>
<path clip-path="url(#clip930)" d="M1573.99 324.425 L2283.81 324.425 L2283.81 168.905 L1573.99 168.905  Z" fill="#ffffff" fill-rule="evenodd" fill-opacity="1"/>
<polyline clip-path="url(#clip930)" style="stroke:#000000; stroke-linecap:round; stroke-linejoin:round; stroke-width:4; stroke-opacity:1; fill:none" points="1573.99,324.425 2283.81,324.425 2283.81,168.905 1573.99,168.905 1573.99,324.425 "/>
<polyline clip-path="url(#clip930)" style="stroke:#009af9; stroke-linecap:round; stroke-linejoin:round; stroke-width:4; stroke-opacity:1; fill:none" points="1596.98,220.745 1734.87,220.745 "/>
<path clip-path="url(#clip930)" d="M1779.56 222.377 L1779.56 238.025 L1775.3 238.025 L1775.3 222.515 Q1775.3 218.835 1773.86 217.006 Q1772.43 215.178 1769.56 215.178 Q1766.11 215.178 1764.12 217.377 Q1762.13 219.576 1762.13 223.372 L1762.13 238.025 L1757.85 238.025 L1757.85 212.099 L1762.13 212.099 L1762.13 216.127 Q1763.66 213.789 1765.72 212.631 Q1767.8 211.474 1770.51 211.474 Q1774.98 211.474 1777.27 214.252 Q1779.56 217.006 1779.56 222.377 Z" fill="#000000" fill-rule="nonzero" fill-opacity="1" /><path clip-path="url(#clip930)" d="M1803.68 216.497 L1833.36 216.497 L1833.36 220.386 L1803.68 220.386 L1803.68 216.497 M1803.68 225.941 L1833.36 225.941 L1833.36 229.877 L1803.68 229.877 L1803.68 225.941 Z" fill="#000000" fill-rule="nonzero" fill-opacity="1" /><path clip-path="url(#clip930)" d="M1859.33 234.089 L1866.97 234.089 L1866.97 207.724 L1858.66 209.391 L1858.66 205.131 L1866.92 203.465 L1871.6 203.465 L1871.6 234.089 L1879.23 234.089 L1879.23 238.025 L1859.33 238.025 L1859.33 234.089 Z" fill="#000000" fill-rule="nonzero" fill-opacity="1" /><path clip-path="url(#clip930)" d="M1898.68 206.543 Q1895.07 206.543 1893.24 210.108 Q1891.43 213.65 1891.43 220.779 Q1891.43 227.886 1893.24 231.451 Q1895.07 234.992 1898.68 234.992 Q1902.31 234.992 1904.12 231.451 Q1905.95 227.886 1905.95 220.779 Q1905.95 213.65 1904.12 210.108 Q1902.31 206.543 1898.68 206.543 M1898.68 202.84 Q1904.49 202.84 1907.54 207.446 Q1910.62 212.029 1910.62 220.779 Q1910.62 229.506 1907.54 234.113 Q1904.49 238.696 1898.68 238.696 Q1892.87 238.696 1889.79 234.113 Q1886.73 229.506 1886.73 220.779 Q1886.73 212.029 1889.79 207.446 Q1892.87 202.84 1898.68 202.84 Z" fill="#000000" fill-rule="nonzero" fill-opacity="1" /><path clip-path="url(#clip930)" d="M1919.33 232.145 L1924.21 232.145 L1924.21 236.127 L1920.42 243.534 L1917.43 243.534 L1919.33 236.127 L1919.33 232.145 Z" fill="#000000" fill-rule="nonzero" fill-opacity="1" /><path clip-path="url(#clip930)" d="M1963.4 216.08 Q1962.68 215.664 1961.83 215.478 Q1960.99 215.27 1959.98 215.27 Q1956.36 215.27 1954.42 217.631 Q1952.5 219.969 1952.5 224.367 L1952.5 238.025 L1948.22 238.025 L1948.22 212.099 L1952.5 212.099 L1952.5 216.127 Q1953.84 213.766 1955.99 212.631 Q1958.15 211.474 1961.23 211.474 Q1961.66 211.474 1962.2 211.543 Q1962.73 211.59 1963.38 211.705 L1963.4 216.08 Z" fill="#000000" fill-rule="nonzero" fill-opacity="1" /><path clip-path="url(#clip930)" d="M1976.87 215.085 Q1973.45 215.085 1971.46 217.77 Q1969.47 220.432 1969.47 225.085 Q1969.47 229.738 1971.43 232.423 Q1973.42 235.085 1976.87 235.085 Q1980.28 235.085 1982.27 232.4 Q1984.26 229.715 1984.26 225.085 Q1984.26 220.478 1982.27 217.793 Q1980.28 215.085 1976.87 215.085 M1976.87 211.474 Q1982.43 211.474 1985.6 215.085 Q1988.77 218.696 1988.77 225.085 Q1988.77 231.451 1985.6 235.085 Q1982.43 238.696 1976.87 238.696 Q1971.29 238.696 1968.12 235.085 Q1964.98 231.451 1964.98 225.085 Q1964.98 218.696 1968.12 215.085 Q1971.29 211.474 1976.87 211.474 M1980.09 200.108 L1984.7 200.108 L1977.15 208.812 L1973.61 208.812 L1980.09 200.108 Z" fill="#000000" fill-rule="nonzero" fill-opacity="1" /><path clip-path="url(#clip930)" d="M1993.35 212.099 L1997.61 212.099 L2002.94 232.33 L2008.24 212.099 L2013.26 212.099 L2018.59 232.33 L2023.89 212.099 L2028.15 212.099 L2021.36 238.025 L2016.34 238.025 L2010.76 216.775 L2005.16 238.025 L2000.14 238.025 L1993.35 212.099 Z" fill="#000000" fill-rule="nonzero" fill-opacity="1" /><path clip-path="url(#clip930)" d="M2056.16 222.377 L2056.16 238.025 L2051.9 238.025 L2051.9 222.515 Q2051.9 218.835 2050.46 217.006 Q2049.03 215.178 2046.16 215.178 Q2042.71 215.178 2040.72 217.377 Q2038.72 219.576 2038.72 223.372 L2038.72 238.025 L2034.44 238.025 L2034.44 212.099 L2038.72 212.099 L2038.72 216.127 Q2040.25 213.789 2042.31 212.631 Q2044.4 211.474 2047.1 211.474 Q2051.57 211.474 2053.86 214.252 Q2056.16 217.006 2056.16 222.377 Z" fill="#000000" fill-rule="nonzero" fill-opacity="1" /><path clip-path="url(#clip930)" d="M2074.7 215.085 Q2071.27 215.085 2069.28 217.77 Q2067.29 220.432 2067.29 225.085 Q2067.29 229.738 2069.26 232.423 Q2071.25 235.085 2074.7 235.085 Q2078.1 235.085 2080.09 232.4 Q2082.08 229.715 2082.08 225.085 Q2082.08 220.478 2080.09 217.793 Q2078.1 215.085 2074.7 215.085 M2074.7 211.474 Q2080.25 211.474 2083.42 215.085 Q2086.59 218.696 2086.59 225.085 Q2086.59 231.451 2083.42 235.085 Q2080.25 238.696 2074.7 238.696 Q2069.12 238.696 2065.95 235.085 Q2062.8 231.451 2062.8 225.085 Q2062.8 218.696 2065.95 215.085 Q2069.12 211.474 2074.7 211.474 Z" fill="#000000" fill-rule="nonzero" fill-opacity="1" /><path clip-path="url(#clip930)" d="M2103.7 215.085 Q2100.28 215.085 2098.28 217.77 Q2096.29 220.432 2096.29 225.085 Q2096.29 229.738 2098.26 232.423 Q2100.25 235.085 2103.7 235.085 Q2107.1 235.085 2109.09 232.4 Q2111.09 229.715 2111.09 225.085 Q2111.09 220.478 2109.09 217.793 Q2107.1 215.085 2103.7 215.085 M2103.7 211.474 Q2109.26 211.474 2112.43 215.085 Q2115.6 218.696 2115.6 225.085 Q2115.6 231.451 2112.43 235.085 Q2109.26 238.696 2103.7 238.696 Q2098.12 238.696 2094.95 235.085 Q2091.8 231.451 2091.8 225.085 Q2091.8 218.696 2094.95 215.085 Q2098.12 211.474 2103.7 211.474 Z" fill="#000000" fill-rule="nonzero" fill-opacity="1" /><path clip-path="url(#clip930)" d="M2139.72 216.034 L2139.72 202.006 L2143.98 202.006 L2143.98 238.025 L2139.72 238.025 L2139.72 234.136 Q2138.38 236.451 2136.32 237.585 Q2134.28 238.696 2131.41 238.696 Q2126.71 238.696 2123.75 234.946 Q2120.81 231.196 2120.81 225.085 Q2120.81 218.974 2123.75 215.224 Q2126.71 211.474 2131.41 211.474 Q2134.28 211.474 2136.32 212.608 Q2138.38 213.719 2139.72 216.034 M2125.21 225.085 Q2125.21 229.784 2127.13 232.469 Q2129.07 235.131 2132.45 235.131 Q2135.83 235.131 2137.78 232.469 Q2139.72 229.784 2139.72 225.085 Q2139.72 220.386 2137.78 217.724 Q2135.83 215.039 2132.45 215.039 Q2129.07 215.039 2127.13 217.724 Q2125.21 220.386 2125.21 225.085 Z" fill="#000000" fill-rule="nonzero" fill-opacity="1" /><path clip-path="url(#clip930)" d="M2152.75 202.006 L2157.01 202.006 L2157.01 238.025 L2152.75 238.025 L2152.75 202.006 Z" fill="#000000" fill-rule="nonzero" fill-opacity="1" /><path clip-path="url(#clip930)" d="M2188.1 223.997 L2188.1 226.08 L2168.52 226.08 Q2168.79 230.478 2171.15 232.793 Q2173.54 235.085 2177.77 235.085 Q2180.23 235.085 2182.52 234.483 Q2184.83 233.881 2187.1 232.677 L2187.1 236.705 Q2184.81 237.677 2182.4 238.187 Q2180 238.696 2177.52 238.696 Q2171.32 238.696 2167.68 235.085 Q2164.07 231.474 2164.07 225.316 Q2164.07 218.951 2167.5 215.224 Q2170.95 211.474 2176.78 211.474 Q2182.01 211.474 2185.04 214.853 Q2188.1 218.21 2188.1 223.997 M2183.84 222.747 Q2183.79 219.252 2181.87 217.168 Q2179.97 215.085 2176.83 215.085 Q2173.26 215.085 2171.11 217.099 Q2168.98 219.113 2168.65 222.77 L2183.84 222.747 Z" fill="#000000" fill-rule="nonzero" fill-opacity="1" /><path clip-path="url(#clip930)" d="M2212.15 224.761 Q2212.15 220.131 2210.23 217.585 Q2208.33 215.039 2204.88 215.039 Q2201.46 215.039 2199.53 217.585 Q2197.64 220.131 2197.64 224.761 Q2197.64 229.367 2199.53 231.914 Q2201.46 234.46 2204.88 234.46 Q2208.33 234.46 2210.23 231.914 Q2212.15 229.367 2212.15 224.761 M2216.41 234.807 Q2216.41 241.427 2213.47 244.645 Q2210.53 247.886 2204.46 247.886 Q2202.22 247.886 2200.23 247.538 Q2198.24 247.214 2196.36 246.52 L2196.36 242.376 Q2198.24 243.395 2200.07 243.881 Q2201.9 244.367 2203.79 244.367 Q2207.98 244.367 2210.07 242.168 Q2212.15 239.992 2212.15 235.571 L2212.15 233.464 Q2210.83 235.756 2208.77 236.89 Q2206.71 238.025 2203.84 238.025 Q2199.07 238.025 2196.15 234.39 Q2193.24 230.756 2193.24 224.761 Q2193.24 218.742 2196.15 215.108 Q2199.07 211.474 2203.84 211.474 Q2206.71 211.474 2208.77 212.608 Q2210.83 213.742 2212.15 216.034 L2212.15 212.099 L2216.41 212.099 L2216.41 234.807 Z" fill="#000000" fill-rule="nonzero" fill-opacity="1" /><path clip-path="url(#clip930)" d="M2225.32 202.006 L2229.58 202.006 L2229.58 215.941 L2232.47 213.858 L2234.23 216.312 L2229.58 219.576 L2229.58 238.025 L2225.32 238.025 L2225.32 222.608 L2222.47 224.645 L2220.76 222.191 L2225.32 218.928 L2225.32 202.006 Z" fill="#000000" fill-rule="nonzero" fill-opacity="1" /><path clip-path="url(#clip930)" d="M2260.83 223.997 L2260.83 226.08 L2241.25 226.08 Q2241.52 230.478 2243.89 232.793 Q2246.27 235.085 2250.51 235.085 Q2252.96 235.085 2255.25 234.483 Q2257.57 233.881 2259.83 232.677 L2259.83 236.705 Q2257.54 237.677 2255.14 238.187 Q2252.73 238.696 2250.25 238.696 Q2244.05 238.696 2240.41 235.085 Q2236.8 231.474 2236.8 225.316 Q2236.8 218.951 2240.23 215.224 Q2243.68 211.474 2249.51 211.474 Q2254.74 211.474 2257.77 214.853 Q2260.83 218.21 2260.83 223.997 M2256.57 222.747 Q2256.52 219.252 2254.6 217.168 Q2252.7 215.085 2249.56 215.085 Q2245.99 215.085 2243.84 217.099 Q2241.71 219.113 2241.39 222.77 L2256.57 222.747 Z" fill="#000000" fill-rule="nonzero" fill-opacity="1" /><polyline clip-path="url(#clip930)" style="stroke:#e26f46; stroke-linecap:round; stroke-linejoin:round; stroke-width:4; stroke-opacity:1; fill:none" points="1596.98,272.585 1734.87,272.585 "/>
<path clip-path="url(#clip930)" d="M1779.56 274.217 L1779.56 289.865 L1775.3 289.865 L1775.3 274.355 Q1775.3 270.675 1773.86 268.846 Q1772.43 267.018 1769.56 267.018 Q1766.11 267.018 1764.12 269.217 Q1762.13 271.416 1762.13 275.212 L1762.13 289.865 L1757.85 289.865 L1757.85 263.939 L1762.13 263.939 L1762.13 267.967 Q1763.66 265.629 1765.72 264.471 Q1767.8 263.314 1770.51 263.314 Q1774.98 263.314 1777.27 266.092 Q1779.56 268.846 1779.56 274.217 Z" fill="#000000" fill-rule="nonzero" fill-opacity="1" /><path clip-path="url(#clip930)" d="M1803.68 268.337 L1833.36 268.337 L1833.36 272.226 L1803.68 272.226 L1803.68 268.337 M1803.68 277.781 L1833.36 277.781 L1833.36 281.717 L1803.68 281.717 L1803.68 277.781 Z" fill="#000000" fill-rule="nonzero" fill-opacity="1" /><path clip-path="url(#clip930)" d="M1859.33 285.929 L1866.97 285.929 L1866.97 259.564 L1858.66 261.231 L1858.66 256.971 L1866.92 255.305 L1871.6 255.305 L1871.6 285.929 L1879.23 285.929 L1879.23 289.865 L1859.33 289.865 L1859.33 285.929 Z" fill="#000000" fill-rule="nonzero" fill-opacity="1" /><path clip-path="url(#clip930)" d="M1898.68 258.383 Q1895.07 258.383 1893.24 261.948 Q1891.43 265.49 1891.43 272.619 Q1891.43 279.726 1893.24 283.291 Q1895.07 286.832 1898.68 286.832 Q1902.31 286.832 1904.12 283.291 Q1905.95 279.726 1905.95 272.619 Q1905.95 265.49 1904.12 261.948 Q1902.31 258.383 1898.68 258.383 M1898.68 254.68 Q1904.49 254.68 1907.54 259.286 Q1910.62 263.869 1910.62 272.619 Q1910.62 281.346 1907.54 285.953 Q1904.49 290.536 1898.68 290.536 Q1892.87 290.536 1889.79 285.953 Q1886.73 281.346 1886.73 272.619 Q1886.73 263.869 1889.79 259.286 Q1892.87 254.68 1898.68 254.68 Z" fill="#000000" fill-rule="nonzero" fill-opacity="1" /><path clip-path="url(#clip930)" d="M1919.33 283.985 L1924.21 283.985 L1924.21 287.967 L1920.42 295.374 L1917.43 295.374 L1919.33 287.967 L1919.33 283.985 Z" fill="#000000" fill-rule="nonzero" fill-opacity="1" /><path clip-path="url(#clip930)" d="M1974.44 257.967 L1974.44 262.897 Q1972.08 260.698 1969.4 259.61 Q1966.73 258.522 1963.73 258.522 Q1957.8 258.522 1954.65 262.156 Q1951.5 265.768 1951.5 272.619 Q1951.5 279.448 1954.65 283.082 Q1957.8 286.693 1963.73 286.693 Q1966.73 286.693 1969.4 285.605 Q1972.08 284.517 1974.44 282.318 L1974.44 287.203 Q1971.99 288.869 1969.23 289.703 Q1966.5 290.536 1963.45 290.536 Q1955.6 290.536 1951.09 285.744 Q1946.57 280.93 1946.57 272.619 Q1946.57 264.286 1951.09 259.494 Q1955.6 254.68 1963.45 254.68 Q1966.55 254.68 1969.28 255.513 Q1972.04 256.323 1974.44 257.967 Z" fill="#000000" fill-rule="nonzero" fill-opacity="1" /><path clip-path="url(#clip930)" d="M1979.63 263.939 L1999.86 263.939 L1999.86 267.828 L1983.84 286.462 L1999.86 286.462 L1999.86 289.865 L1979.05 289.865 L1979.05 285.976 L1995.07 267.342 L1979.63 267.342 L1979.63 263.939 Z" fill="#000000" fill-rule="nonzero" fill-opacity="1" /><path clip-path="url(#clip930)" d="M2028.54 275.837 L2028.54 277.92 L2008.96 277.92 Q2009.23 282.318 2011.6 284.633 Q2013.98 286.925 2018.22 286.925 Q2020.67 286.925 2022.96 286.323 Q2025.28 285.721 2027.54 284.517 L2027.54 288.545 Q2025.25 289.517 2022.85 290.027 Q2020.44 290.536 2017.96 290.536 Q2011.76 290.536 2008.12 286.925 Q2004.51 283.314 2004.51 277.156 Q2004.51 270.791 2007.94 267.064 Q2011.39 263.314 2017.22 263.314 Q2022.45 263.314 2025.48 266.693 Q2028.54 270.05 2028.54 275.837 M2024.28 274.587 Q2024.23 271.092 2022.31 269.008 Q2020.41 266.925 2017.27 266.925 Q2013.7 266.925 2011.55 268.939 Q2009.42 270.953 2009.1 274.61 L2024.28 274.587 Z" fill="#000000" fill-rule="nonzero" fill-opacity="1" /><path clip-path="url(#clip930)" d="M2054.14 276.925 Q2054.14 272.226 2052.2 269.564 Q2050.28 266.879 2046.9 266.879 Q2043.52 266.879 2041.57 269.564 Q2039.65 272.226 2039.65 276.925 Q2039.65 281.624 2041.57 284.309 Q2043.52 286.971 2046.9 286.971 Q2050.28 286.971 2052.2 284.309 Q2054.14 281.624 2054.14 276.925 M2039.65 267.874 Q2040.99 265.559 2043.03 264.448 Q2045.09 263.314 2047.94 263.314 Q2052.66 263.314 2055.6 267.064 Q2058.56 270.814 2058.56 276.925 Q2058.56 283.036 2055.6 286.786 Q2052.66 290.536 2047.94 290.536 Q2045.09 290.536 2043.03 289.425 Q2040.99 288.291 2039.65 285.976 L2039.65 289.865 L2035.37 289.865 L2035.37 253.846 L2039.65 253.846 L2039.65 267.874 Z" fill="#000000" fill-rule="nonzero" fill-opacity="1" /><path clip-path="url(#clip930)" d="M2076.41 292.272 Q2074.6 296.902 2072.89 298.314 Q2071.18 299.726 2068.31 299.726 L2064.91 299.726 L2064.91 296.161 L2067.41 296.161 Q2069.16 296.161 2070.14 295.328 Q2071.11 294.494 2072.29 291.392 L2073.05 289.448 L2062.57 263.939 L2067.08 263.939 L2075.18 284.217 L2083.28 263.939 L2087.8 263.939 L2076.41 292.272 Z" fill="#000000" fill-rule="nonzero" fill-opacity="1" /><path clip-path="url(#clip930)" d="M2110.21 264.703 L2110.21 268.731 Q2108.4 267.805 2106.46 267.342 Q2104.51 266.879 2102.43 266.879 Q2099.26 266.879 2097.66 267.851 Q2096.09 268.823 2096.09 270.768 Q2096.09 272.249 2097.22 273.105 Q2098.35 273.939 2101.78 274.703 L2103.24 275.027 Q2107.78 275.999 2109.67 277.781 Q2111.59 279.541 2111.59 282.712 Q2111.59 286.323 2108.72 288.429 Q2105.88 290.536 2100.88 290.536 Q2098.79 290.536 2096.53 290.119 Q2094.28 289.726 2091.78 288.916 L2091.78 284.517 Q2094.14 285.744 2096.43 286.369 Q2098.72 286.971 2100.97 286.971 Q2103.98 286.971 2105.6 285.953 Q2107.22 284.911 2107.22 283.036 Q2107.22 281.3 2106.04 280.374 Q2104.88 279.448 2100.92 278.592 L2099.44 278.244 Q2095.48 277.411 2093.72 275.698 Q2091.97 273.962 2091.97 270.953 Q2091.97 267.295 2094.56 265.305 Q2097.15 263.314 2101.92 263.314 Q2104.28 263.314 2106.36 263.661 Q2108.45 264.008 2110.21 264.703 Z" fill="#000000" fill-rule="nonzero" fill-opacity="1" /><path clip-path="url(#clip930)" d="M2116.53 263.939 L2136.76 263.939 L2136.76 267.828 L2120.74 286.462 L2136.76 286.462 L2136.76 289.865 L2115.95 289.865 L2115.95 285.976 L2131.96 267.342 L2116.53 267.342 L2116.53 263.939 Z" fill="#000000" fill-rule="nonzero" fill-opacity="1" /><path clip-path="url(#clip930)" d="M2165.44 275.837 L2165.44 277.92 L2145.85 277.92 Q2146.13 282.318 2148.49 284.633 Q2150.88 286.925 2155.11 286.925 Q2157.57 286.925 2159.86 286.323 Q2162.17 285.721 2164.44 284.517 L2164.44 288.545 Q2162.15 289.517 2159.74 290.027 Q2157.34 290.536 2154.86 290.536 Q2148.65 290.536 2145.02 286.925 Q2141.41 283.314 2141.41 277.156 Q2141.41 270.791 2144.84 267.064 Q2148.28 263.314 2154.12 263.314 Q2159.35 263.314 2162.38 266.693 Q2165.44 270.05 2165.44 275.837 M2161.18 274.587 Q2161.13 271.092 2159.21 269.008 Q2157.31 266.925 2154.16 266.925 Q2150.6 266.925 2148.45 268.939 Q2146.32 270.953 2145.99 274.61 L2161.18 274.587 Z" fill="#000000" fill-rule="nonzero" fill-opacity="1" /><path clip-path="url(#clip930)" d="M2169.95 263.939 L2174.21 263.939 L2179.53 284.17 L2184.83 263.939 L2189.86 263.939 L2195.18 284.17 L2200.48 263.939 L2204.74 263.939 L2197.96 289.865 L2192.94 289.865 L2187.36 268.615 L2181.76 289.865 L2176.73 289.865 L2169.95 263.939 Z" fill="#000000" fill-rule="nonzero" fill-opacity="1" /><path clip-path="url(#clip930)" d="M2222.98 276.832 Q2217.82 276.832 2215.83 278.013 Q2213.84 279.193 2213.84 282.041 Q2213.84 284.309 2215.32 285.652 Q2216.83 286.971 2219.39 286.971 Q2222.94 286.971 2225.07 284.471 Q2227.22 281.948 2227.22 277.781 L2227.22 276.832 L2222.98 276.832 M2231.48 275.073 L2231.48 289.865 L2227.22 289.865 L2227.22 285.929 Q2225.76 288.291 2223.58 289.425 Q2221.41 290.536 2218.26 290.536 Q2214.28 290.536 2211.92 288.314 Q2209.58 286.068 2209.58 282.318 Q2209.58 277.943 2212.5 275.721 Q2215.44 273.499 2221.25 273.499 L2227.22 273.499 L2227.22 273.082 Q2227.22 270.143 2225.27 268.545 Q2223.35 266.925 2219.86 266.925 Q2217.64 266.925 2215.53 267.457 Q2213.42 267.99 2211.48 269.055 L2211.48 265.119 Q2213.82 264.217 2216.02 263.777 Q2218.21 263.314 2220.3 263.314 Q2225.92 263.314 2228.7 266.231 Q2231.48 269.147 2231.48 275.073 Z" fill="#000000" fill-rule="nonzero" fill-opacity="1" /></svg>
