<?xml version="1.0" encoding="utf-8"?>
<svg xmlns="http://www.w3.org/2000/svg" xmlns:xlink="http://www.w3.org/1999/xlink" width="600" height="400" viewBox="0 0 2400 1600">
<defs>
  <clipPath id="clip440">
    <rect x="0" y="0" width="2400" height="1600"/>
  </clipPath>
</defs>
<path clip-path="url(#clip440)" d="M0 1600 L2400 1600 L2400 0 L0 0  Z" fill="#ffffff" fill-rule="evenodd" fill-opacity="1"/>
<defs>
  <clipPath id="clip441">
    <rect x="480" y="0" width="1681" height="1600"/>
  </clipPath>
</defs>
<path clip-path="url(#clip440)" d="M224.098 1486.45 L2352.76 1486.45 L2352.76 123.472 L224.098 123.472  Z" fill="#ffffff" fill-rule="evenodd" fill-opacity="1"/>
<defs>
  <clipPath id="clip442">
    <rect x="224" y="123" width="2130" height="1364"/>
  </clipPath>
</defs>
<polyline clip-path="url(#clip442)" style="stroke:#000000; stroke-linecap:round; stroke-linejoin:round; stroke-width:2; stroke-opacity:0.1; fill:none" points="224.098,1486.45 224.098,123.472 "/>
<polyline clip-path="url(#clip442)" style="stroke:#000000; stroke-linecap:round; stroke-linejoin:round; stroke-width:2; stroke-opacity:0.1; fill:none" points="756.262,1486.45 756.262,123.472 "/>
<polyline clip-path="url(#clip442)" style="stroke:#000000; stroke-linecap:round; stroke-linejoin:round; stroke-width:2; stroke-opacity:0.1; fill:none" points="1288.43,1486.45 1288.43,123.472 "/>
<polyline clip-path="url(#clip442)" style="stroke:#000000; stroke-linecap:round; stroke-linejoin:round; stroke-width:2; stroke-opacity:0.1; fill:none" points="1820.59,1486.45 1820.59,123.472 "/>
<polyline clip-path="url(#clip442)" style="stroke:#000000; stroke-linecap:round; stroke-linejoin:round; stroke-width:2; stroke-opacity:0.1; fill:none" points="2352.76,1486.45 2352.76,123.472 "/>
<polyline clip-path="url(#clip440)" style="stroke:#000000; stroke-linecap:round; stroke-linejoin:round; stroke-width:4; stroke-opacity:1; fill:none" points="224.098,1486.45 2352.76,1486.45 "/>
<polyline clip-path="url(#clip440)" style="stroke:#000000; stroke-linecap:round; stroke-linejoin:round; stroke-width:4; stroke-opacity:1; fill:none" points="224.098,1486.45 224.098,1467.55 "/>
<polyline clip-path="url(#clip440)" style="stroke:#000000; stroke-linecap:round; stroke-linejoin:round; stroke-width:4; stroke-opacity:1; fill:none" points="756.262,1486.45 756.262,1467.55 "/>
<polyline clip-path="url(#clip440)" style="stroke:#000000; stroke-linecap:round; stroke-linejoin:round; stroke-width:4; stroke-opacity:1; fill:none" points="1288.43,1486.45 1288.43,1467.55 "/>
<polyline clip-path="url(#clip440)" style="stroke:#000000; stroke-linecap:round; stroke-linejoin:round; stroke-width:4; stroke-opacity:1; fill:none" points="1820.59,1486.45 1820.59,1467.55 "/>
<polyline clip-path="url(#clip440)" style="stroke:#000000; stroke-linecap:round; stroke-linejoin:round; stroke-width:4; stroke-opacity:1; fill:none" points="2352.76,1486.45 2352.76,1467.55 "/>
<path clip-path="url(#clip440)" d="M170.626 1532.02 L200.302 1532.02 L200.302 1535.95 L170.626 1535.95 L170.626 1532.02 Z" fill="#000000" fill-rule="nonzero" fill-opacity="1" /><path clip-path="url(#clip440)" d="M211.204 1544.91 L218.843 1544.91 L218.843 1518.55 L210.533 1520.21 L210.533 1515.95 L218.797 1514.29 L223.473 1514.29 L223.473 1544.91 L231.112 1544.91 L231.112 1548.85 L211.204 1548.85 L211.204 1544.91 Z" fill="#000000" fill-rule="nonzero" fill-opacity="1" /><path clip-path="url(#clip440)" d="M240.556 1542.97 L245.44 1542.97 L245.44 1548.85 L240.556 1548.85 L240.556 1542.97 Z" fill="#000000" fill-rule="nonzero" fill-opacity="1" /><path clip-path="url(#clip440)" d="M265.625 1517.37 Q262.014 1517.37 260.186 1520.93 Q258.38 1524.47 258.38 1531.6 Q258.38 1538.71 260.186 1542.27 Q262.014 1545.82 265.625 1545.82 Q269.26 1545.82 271.065 1542.27 Q272.894 1538.71 272.894 1531.6 Q272.894 1524.47 271.065 1520.93 Q269.26 1517.37 265.625 1517.37 M265.625 1513.66 Q271.436 1513.66 274.491 1518.27 Q277.57 1522.85 277.57 1531.6 Q277.57 1540.33 274.491 1544.94 Q271.436 1549.52 265.625 1549.52 Q259.815 1549.52 256.737 1544.94 Q253.681 1540.33 253.681 1531.6 Q253.681 1522.85 256.737 1518.27 Q259.815 1513.66 265.625 1513.66 Z" fill="#000000" fill-rule="nonzero" fill-opacity="1" /><path clip-path="url(#clip440)" d="M703.288 1532.02 L732.964 1532.02 L732.964 1535.95 L703.288 1535.95 L703.288 1532.02 Z" fill="#000000" fill-rule="nonzero" fill-opacity="1" /><path clip-path="url(#clip440)" d="M753.056 1517.37 Q749.445 1517.37 747.617 1520.93 Q745.811 1524.47 745.811 1531.6 Q745.811 1538.71 747.617 1542.27 Q749.445 1545.82 753.056 1545.82 Q756.691 1545.82 758.496 1542.27 Q760.325 1538.71 760.325 1531.6 Q760.325 1524.47 758.496 1520.93 Q756.691 1517.37 753.056 1517.37 M753.056 1513.66 Q758.867 1513.66 761.922 1518.27 Q765.001 1522.85 765.001 1531.6 Q765.001 1540.33 761.922 1544.94 Q758.867 1549.52 753.056 1549.52 Q747.246 1549.52 744.168 1544.94 Q741.112 1540.33 741.112 1531.6 Q741.112 1522.85 744.168 1518.27 Q747.246 1513.66 753.056 1513.66 Z" fill="#000000" fill-rule="nonzero" fill-opacity="1" /><path clip-path="url(#clip440)" d="M773.218 1542.97 L778.103 1542.97 L778.103 1548.85 L773.218 1548.85 L773.218 1542.97 Z" fill="#000000" fill-rule="nonzero" fill-opacity="1" /><path clip-path="url(#clip440)" d="M788.334 1514.29 L806.69 1514.29 L806.69 1518.22 L792.616 1518.22 L792.616 1526.7 Q793.635 1526.35 794.653 1526.19 Q795.672 1526 796.69 1526 Q802.477 1526 805.857 1529.17 Q809.237 1532.34 809.237 1537.76 Q809.237 1543.34 805.764 1546.44 Q802.292 1549.52 795.973 1549.52 Q793.797 1549.52 791.528 1549.15 Q789.283 1548.78 786.876 1548.04 L786.876 1543.34 Q788.959 1544.47 791.181 1545.03 Q793.403 1545.58 795.88 1545.58 Q799.885 1545.58 802.223 1543.48 Q804.561 1541.37 804.561 1537.76 Q804.561 1534.15 802.223 1532.04 Q799.885 1529.94 795.88 1529.94 Q794.005 1529.94 792.13 1530.35 Q790.278 1530.77 788.334 1531.65 L788.334 1514.29 Z" fill="#000000" fill-rule="nonzero" fill-opacity="1" /><path clip-path="url(#clip440)" d="M1265.81 1517.37 Q1262.2 1517.37 1260.37 1520.93 Q1258.57 1524.47 1258.57 1531.6 Q1258.57 1538.71 1260.37 1542.27 Q1262.2 1545.82 1265.81 1545.82 Q1269.45 1545.82 1271.25 1542.27 Q1273.08 1538.71 1273.08 1531.6 Q1273.08 1524.47 1271.25 1520.93 Q1269.45 1517.37 1265.81 1517.37 M1265.81 1513.66 Q1271.62 1513.66 1274.68 1518.27 Q1277.76 1522.85 1277.76 1531.6 Q1277.76 1540.33 1274.68 1544.94 Q1271.62 1549.52 1265.81 1549.52 Q1260 1549.52 1256.92 1544.94 Q1253.87 1540.33 1253.87 1531.6 Q1253.87 1522.85 1256.92 1518.27 Q1260 1513.66 1265.81 1513.66 Z" fill="#000000" fill-rule="nonzero" fill-opacity="1" /><path clip-path="url(#clip440)" d="M1285.97 1542.97 L1290.86 1542.97 L1290.86 1548.85 L1285.97 1548.85 L1285.97 1542.97 Z" fill="#000000" fill-rule="nonzero" fill-opacity="1" /><path clip-path="url(#clip440)" d="M1311.04 1517.37 Q1307.43 1517.37 1305.6 1520.93 Q1303.8 1524.47 1303.8 1531.6 Q1303.8 1538.71 1305.6 1542.27 Q1307.43 1545.82 1311.04 1545.82 Q1314.68 1545.82 1316.48 1542.27 Q1318.31 1538.71 1318.31 1531.6 Q1318.31 1524.47 1316.48 1520.93 Q1314.68 1517.37 1311.04 1517.37 M1311.04 1513.66 Q1316.85 1513.66 1319.91 1518.27 Q1322.99 1522.85 1322.99 1531.6 Q1322.99 1540.33 1319.91 1544.94 Q1316.85 1549.52 1311.04 1549.52 Q1305.23 1549.52 1302.15 1544.94 Q1299.1 1540.33 1299.1 1531.6 Q1299.1 1522.85 1302.15 1518.27 Q1305.23 1513.66 1311.04 1513.66 Z" fill="#000000" fill-rule="nonzero" fill-opacity="1" /><path clip-path="url(#clip440)" d="M1798.47 1517.37 Q1794.86 1517.37 1793.03 1520.93 Q1791.23 1524.47 1791.23 1531.6 Q1791.23 1538.71 1793.03 1542.27 Q1794.86 1545.82 1798.47 1545.82 Q1802.11 1545.82 1803.91 1542.27 Q1805.74 1538.71 1805.74 1531.6 Q1805.74 1524.47 1803.91 1520.93 Q1802.11 1517.37 1798.47 1517.37 M1798.47 1513.66 Q1804.28 1513.66 1807.34 1518.27 Q1810.42 1522.85 1810.42 1531.6 Q1810.42 1540.33 1807.34 1544.94 Q1804.28 1549.52 1798.47 1549.52 Q1792.66 1549.52 1789.58 1544.94 Q1786.53 1540.33 1786.53 1531.6 Q1786.53 1522.85 1789.58 1518.27 Q1792.66 1513.66 1798.47 1513.66 Z" fill="#000000" fill-rule="nonzero" fill-opacity="1" /><path clip-path="url(#clip440)" d="M1818.64 1542.97 L1823.52 1542.97 L1823.52 1548.85 L1818.64 1548.85 L1818.64 1542.97 Z" fill="#000000" fill-rule="nonzero" fill-opacity="1" /><path clip-path="url(#clip440)" d="M1833.75 1514.29 L1852.11 1514.29 L1852.11 1518.22 L1838.03 1518.22 L1838.03 1526.7 Q1839.05 1526.35 1840.07 1526.19 Q1841.09 1526 1842.11 1526 Q1847.89 1526 1851.27 1529.17 Q1854.65 1532.34 1854.65 1537.76 Q1854.65 1543.34 1851.18 1546.44 Q1847.71 1549.52 1841.39 1549.52 Q1839.21 1549.52 1836.95 1549.15 Q1834.7 1548.78 1832.29 1548.04 L1832.29 1543.34 Q1834.38 1544.47 1836.6 1545.03 Q1838.82 1545.58 1841.3 1545.58 Q1845.3 1545.58 1847.64 1543.48 Q1849.98 1541.37 1849.98 1537.76 Q1849.98 1534.15 1847.64 1532.04 Q1845.3 1529.94 1841.3 1529.94 Q1839.42 1529.94 1837.55 1530.35 Q1835.7 1530.77 1833.75 1531.65 L1833.75 1514.29 Z" fill="#000000" fill-rule="nonzero" fill-opacity="1" /><path clip-path="url(#clip440)" d="M2319.91 1544.91 L2327.55 1544.91 L2327.55 1518.55 L2319.24 1520.21 L2319.24 1515.95 L2327.5 1514.29 L2332.18 1514.29 L2332.18 1544.91 L2339.82 1544.91 L2339.82 1548.85 L2319.91 1548.85 L2319.91 1544.91 Z" fill="#000000" fill-rule="nonzero" fill-opacity="1" /><path clip-path="url(#clip440)" d="M2349.26 1542.97 L2354.14 1542.97 L2354.14 1548.85 L2349.26 1548.85 L2349.26 1542.97 Z" fill="#000000" fill-rule="nonzero" fill-opacity="1" /><path clip-path="url(#clip440)" d="M2374.33 1517.37 Q2370.72 1517.37 2368.89 1520.93 Q2367.08 1524.47 2367.08 1531.6 Q2367.08 1538.71 2368.89 1542.27 Q2370.72 1545.82 2374.33 1545.82 Q2377.96 1545.82 2379.77 1542.27 Q2381.6 1538.71 2381.6 1531.6 Q2381.6 1524.47 2379.77 1520.93 Q2377.96 1517.37 2374.33 1517.37 M2374.33 1513.66 Q2380.14 1513.66 2383.2 1518.27 Q2386.27 1522.85 2386.27 1531.6 Q2386.27 1540.33 2383.2 1544.94 Q2380.14 1549.52 2374.33 1549.52 Q2368.52 1549.52 2365.44 1544.94 Q2362.39 1540.33 2362.39 1531.6 Q2362.39 1522.85 2365.44 1518.27 Q2368.52 1513.66 2374.33 1513.66 Z" fill="#000000" fill-rule="nonzero" fill-opacity="1" /><polyline clip-path="url(#clip442)" style="stroke:#000000; stroke-linecap:round; stroke-linejoin:round; stroke-width:2; stroke-opacity:0.1; fill:none" points="224.098,1372.87 2352.76,1372.87 "/>
<polyline clip-path="url(#clip442)" style="stroke:#000000; stroke-linecap:round; stroke-linejoin:round; stroke-width:2; stroke-opacity:0.1; fill:none" points="224.098,1088.91 2352.76,1088.91 "/>
<polyline clip-path="url(#clip442)" style="stroke:#000000; stroke-linecap:round; stroke-linejoin:round; stroke-width:2; stroke-opacity:0.1; fill:none" points="224.098,804.96 2352.76,804.96 "/>
<polyline clip-path="url(#clip442)" style="stroke:#000000; stroke-linecap:round; stroke-linejoin:round; stroke-width:2; stroke-opacity:0.1; fill:none" points="224.098,521.007 2352.76,521.007 "/>
<polyline clip-path="url(#clip442)" style="stroke:#000000; stroke-linecap:round; stroke-linejoin:round; stroke-width:2; stroke-opacity:0.1; fill:none" points="224.098,237.053 2352.76,237.053 "/>
<polyline clip-path="url(#clip440)" style="stroke:#000000; stroke-linecap:round; stroke-linejoin:round; stroke-width:4; stroke-opacity:1; fill:none" points="224.098,1486.45 224.098,123.472 "/>
<polyline clip-path="url(#clip440)" style="stroke:#000000; stroke-linecap:round; stroke-linejoin:round; stroke-width:4; stroke-opacity:1; fill:none" points="224.098,1372.87 242.996,1372.87 "/>
<polyline clip-path="url(#clip440)" style="stroke:#000000; stroke-linecap:round; stroke-linejoin:round; stroke-width:4; stroke-opacity:1; fill:none" points="224.098,1088.91 242.996,1088.91 "/>
<polyline clip-path="url(#clip440)" style="stroke:#000000; stroke-linecap:round; stroke-linejoin:round; stroke-width:4; stroke-opacity:1; fill:none" points="224.098,804.96 242.996,804.96 "/>
<polyline clip-path="url(#clip440)" style="stroke:#000000; stroke-linecap:round; stroke-linejoin:round; stroke-width:4; stroke-opacity:1; fill:none" points="224.098,521.007 242.996,521.007 "/>
<polyline clip-path="url(#clip440)" style="stroke:#000000; stroke-linecap:round; stroke-linejoin:round; stroke-width:4; stroke-opacity:1; fill:none" points="224.098,237.053 242.996,237.053 "/>
<path clip-path="url(#clip440)" d="M50.9921 1373.32 L80.6679 1373.32 L80.6679 1377.25 L50.9921 1377.25 L50.9921 1373.32 Z" fill="#000000" fill-rule="nonzero" fill-opacity="1" /><path clip-path="url(#clip440)" d="M100.76 1358.67 Q97.1493 1358.67 95.3206 1362.23 Q93.515 1365.77 93.515 1372.9 Q93.515 1380.01 95.3206 1383.57 Q97.1493 1387.11 100.76 1387.11 Q104.395 1387.11 106.2 1383.57 Q108.029 1380.01 108.029 1372.9 Q108.029 1365.77 106.2 1362.23 Q104.395 1358.67 100.76 1358.67 M100.76 1354.96 Q106.571 1354.96 109.626 1359.57 Q112.705 1364.15 112.705 1372.9 Q112.705 1381.63 109.626 1386.23 Q106.571 1390.82 100.76 1390.82 Q94.9502 1390.82 91.8715 1386.23 Q88.816 1381.63 88.816 1372.9 Q88.816 1364.15 91.8715 1359.57 Q94.9502 1354.96 100.76 1354.96 Z" fill="#000000" fill-rule="nonzero" fill-opacity="1" /><path clip-path="url(#clip440)" d="M120.922 1384.27 L125.807 1384.27 L125.807 1390.15 L120.922 1390.15 L120.922 1384.27 Z" fill="#000000" fill-rule="nonzero" fill-opacity="1" /><path clip-path="url(#clip440)" d="M136.802 1386.21 L144.441 1386.21 L144.441 1359.85 L136.131 1361.51 L136.131 1357.25 L144.394 1355.59 L149.07 1355.59 L149.07 1386.21 L156.709 1386.21 L156.709 1390.15 L136.802 1390.15 L136.802 1386.21 Z" fill="#000000" fill-rule="nonzero" fill-opacity="1" /><path clip-path="url(#clip440)" d="M176.153 1358.67 Q172.542 1358.67 170.714 1362.23 Q168.908 1365.77 168.908 1372.9 Q168.908 1380.01 170.714 1383.57 Q172.542 1387.11 176.153 1387.11 Q179.788 1387.11 181.593 1383.57 Q183.422 1380.01 183.422 1372.9 Q183.422 1365.77 181.593 1362.23 Q179.788 1358.67 176.153 1358.67 M176.153 1354.96 Q181.964 1354.96 185.019 1359.57 Q188.098 1364.15 188.098 1372.9 Q188.098 1381.63 185.019 1386.23 Q181.964 1390.82 176.153 1390.82 Q170.343 1390.82 167.265 1386.23 Q164.209 1381.63 164.209 1372.9 Q164.209 1364.15 167.265 1359.57 Q170.343 1354.96 176.153 1354.96 Z" fill="#000000" fill-rule="nonzero" fill-opacity="1" /><path clip-path="url(#clip440)" d="M51.9875 1089.36 L81.6633 1089.36 L81.6633 1093.3 L51.9875 1093.3 L51.9875 1089.36 Z" fill="#000000" fill-rule="nonzero" fill-opacity="1" /><path clip-path="url(#clip440)" d="M101.756 1074.71 Q98.1447 1074.71 96.316 1078.28 Q94.5104 1081.82 94.5104 1088.95 Q94.5104 1096.05 96.316 1099.62 Q98.1447 1103.16 101.756 1103.16 Q105.39 1103.16 107.196 1099.62 Q109.024 1096.05 109.024 1088.95 Q109.024 1081.82 107.196 1078.28 Q105.39 1074.71 101.756 1074.71 M101.756 1071.01 Q107.566 1071.01 110.621 1075.61 Q113.7 1080.2 113.7 1088.95 Q113.7 1097.67 110.621 1102.28 Q107.566 1106.86 101.756 1106.86 Q95.9456 1106.86 92.8669 1102.28 Q89.8114 1097.67 89.8114 1088.95 Q89.8114 1080.2 92.8669 1075.61 Q95.9456 1071.01 101.756 1071.01 Z" fill="#000000" fill-rule="nonzero" fill-opacity="1" /><path clip-path="url(#clip440)" d="M121.918 1100.31 L126.802 1100.31 L126.802 1106.19 L121.918 1106.19 L121.918 1100.31 Z" fill="#000000" fill-rule="nonzero" fill-opacity="1" /><path clip-path="url(#clip440)" d="M146.987 1074.71 Q143.376 1074.71 141.547 1078.28 Q139.742 1081.82 139.742 1088.95 Q139.742 1096.05 141.547 1099.62 Q143.376 1103.16 146.987 1103.16 Q150.621 1103.16 152.427 1099.62 Q154.255 1096.05 154.255 1088.95 Q154.255 1081.82 152.427 1078.28 Q150.621 1074.71 146.987 1074.71 M146.987 1071.01 Q152.797 1071.01 155.853 1075.61 Q158.931 1080.2 158.931 1088.95 Q158.931 1097.67 155.853 1102.28 Q152.797 1106.86 146.987 1106.86 Q141.177 1106.86 138.098 1102.28 Q135.043 1097.67 135.043 1088.95 Q135.043 1080.2 138.098 1075.61 Q141.177 1071.01 146.987 1071.01 Z" fill="#000000" fill-rule="nonzero" fill-opacity="1" /><path clip-path="url(#clip440)" d="M167.195 1071.63 L185.552 1071.63 L185.552 1075.57 L171.478 1075.57 L171.478 1084.04 Q172.496 1083.69 173.515 1083.53 Q174.533 1083.35 175.552 1083.35 Q181.339 1083.35 184.718 1086.52 Q188.098 1089.69 188.098 1095.11 Q188.098 1100.68 184.626 1103.79 Q181.153 1106.86 174.834 1106.86 Q172.658 1106.86 170.39 1106.49 Q168.144 1106.12 165.737 1105.38 L165.737 1100.68 Q167.82 1101.82 170.042 1102.37 Q172.265 1102.93 174.741 1102.93 Q178.746 1102.93 181.084 1100.82 Q183.422 1098.72 183.422 1095.11 Q183.422 1091.49 181.084 1089.39 Q178.746 1087.28 174.741 1087.28 Q172.866 1087.28 170.991 1087.7 Q169.14 1088.11 167.195 1088.99 L167.195 1071.63 Z" fill="#000000" fill-rule="nonzero" fill-opacity="1" /><path clip-path="url(#clip440)" d="M100.76 790.759 Q97.1493 790.759 95.3206 794.323 Q93.515 797.865 93.515 804.995 Q93.515 812.101 95.3206 815.666 Q97.1493 819.208 100.76 819.208 Q104.395 819.208 106.2 815.666 Q108.029 812.101 108.029 804.995 Q108.029 797.865 106.2 794.323 Q104.395 790.759 100.76 790.759 M100.76 787.055 Q106.571 787.055 109.626 791.661 Q112.705 796.245 112.705 804.995 Q112.705 813.722 109.626 818.328 Q106.571 822.911 100.76 822.911 Q94.9502 822.911 91.8715 818.328 Q88.816 813.722 88.816 804.995 Q88.816 796.245 91.8715 791.661 Q94.9502 787.055 100.76 787.055 Z" fill="#000000" fill-rule="nonzero" fill-opacity="1" /><path clip-path="url(#clip440)" d="M120.922 816.36 L125.807 816.36 L125.807 822.24 L120.922 822.24 L120.922 816.36 Z" fill="#000000" fill-rule="nonzero" fill-opacity="1" /><path clip-path="url(#clip440)" d="M145.992 790.759 Q142.381 790.759 140.552 794.323 Q138.746 797.865 138.746 804.995 Q138.746 812.101 140.552 815.666 Q142.381 819.208 145.992 819.208 Q149.626 819.208 151.431 815.666 Q153.26 812.101 153.26 804.995 Q153.26 797.865 151.431 794.323 Q149.626 790.759 145.992 790.759 M145.992 787.055 Q151.802 787.055 154.857 791.661 Q157.936 796.245 157.936 804.995 Q157.936 813.722 154.857 818.328 Q151.802 822.911 145.992 822.911 Q140.181 822.911 137.103 818.328 Q134.047 813.722 134.047 804.995 Q134.047 796.245 137.103 791.661 Q140.181 787.055 145.992 787.055 Z" fill="#000000" fill-rule="nonzero" fill-opacity="1" /><path clip-path="url(#clip440)" d="M176.153 790.759 Q172.542 790.759 170.714 794.323 Q168.908 797.865 168.908 804.995 Q168.908 812.101 170.714 815.666 Q172.542 819.208 176.153 819.208 Q179.788 819.208 181.593 815.666 Q183.422 812.101 183.422 804.995 Q183.422 797.865 181.593 794.323 Q179.788 790.759 176.153 790.759 M176.153 787.055 Q181.964 787.055 185.019 791.661 Q188.098 796.245 188.098 804.995 Q188.098 813.722 185.019 818.328 Q181.964 822.911 176.153 822.911 Q170.343 822.911 167.265 818.328 Q164.209 813.722 164.209 804.995 Q164.209 796.245 167.265 791.661 Q170.343 787.055 176.153 787.055 Z" fill="#000000" fill-rule="nonzero" fill-opacity="1" /><path clip-path="url(#clip440)" d="M101.756 506.805 Q98.1447 506.805 96.316 510.37 Q94.5104 513.912 94.5104 521.041 Q94.5104 528.148 96.316 531.713 Q98.1447 535.254 101.756 535.254 Q105.39 535.254 107.196 531.713 Q109.024 528.148 109.024 521.041 Q109.024 513.912 107.196 510.37 Q105.39 506.805 101.756 506.805 M101.756 503.102 Q107.566 503.102 110.621 507.708 Q113.7 512.291 113.7 521.041 Q113.7 529.768 110.621 534.375 Q107.566 538.958 101.756 538.958 Q95.9456 538.958 92.8669 534.375 Q89.8114 529.768 89.8114 521.041 Q89.8114 512.291 92.8669 507.708 Q95.9456 503.102 101.756 503.102 Z" fill="#000000" fill-rule="nonzero" fill-opacity="1" /><path clip-path="url(#clip440)" d="M121.918 532.407 L126.802 532.407 L126.802 538.287 L121.918 538.287 L121.918 532.407 Z" fill="#000000" fill-rule="nonzero" fill-opacity="1" /><path clip-path="url(#clip440)" d="M146.987 506.805 Q143.376 506.805 141.547 510.37 Q139.742 513.912 139.742 521.041 Q139.742 528.148 141.547 531.713 Q143.376 535.254 146.987 535.254 Q150.621 535.254 152.427 531.713 Q154.255 528.148 154.255 521.041 Q154.255 513.912 152.427 510.37 Q150.621 506.805 146.987 506.805 M146.987 503.102 Q152.797 503.102 155.853 507.708 Q158.931 512.291 158.931 521.041 Q158.931 529.768 155.853 534.375 Q152.797 538.958 146.987 538.958 Q141.177 538.958 138.098 534.375 Q135.043 529.768 135.043 521.041 Q135.043 512.291 138.098 507.708 Q141.177 503.102 146.987 503.102 Z" fill="#000000" fill-rule="nonzero" fill-opacity="1" /><path clip-path="url(#clip440)" d="M167.195 503.727 L185.552 503.727 L185.552 507.662 L171.478 507.662 L171.478 516.134 Q172.496 515.787 173.515 515.625 Q174.533 515.44 175.552 515.44 Q181.339 515.44 184.718 518.611 Q188.098 521.782 188.098 527.199 Q188.098 532.777 184.626 535.879 Q181.153 538.958 174.834 538.958 Q172.658 538.958 170.39 538.588 Q168.144 538.217 165.737 537.477 L165.737 532.777 Q167.82 533.912 170.042 534.467 Q172.265 535.023 174.741 535.023 Q178.746 535.023 181.084 532.916 Q183.422 530.81 183.422 527.199 Q183.422 523.588 181.084 521.481 Q178.746 519.375 174.741 519.375 Q172.866 519.375 170.991 519.791 Q169.14 520.208 167.195 521.088 L167.195 503.727 Z" fill="#000000" fill-rule="nonzero" fill-opacity="1" /><path clip-path="url(#clip440)" d="M100.76 222.852 Q97.1493 222.852 95.3206 226.417 Q93.515 229.959 93.515 237.088 Q93.515 244.195 95.3206 247.759 Q97.1493 251.301 100.76 251.301 Q104.395 251.301 106.2 247.759 Q108.029 244.195 108.029 237.088 Q108.029 229.959 106.2 226.417 Q104.395 222.852 100.76 222.852 M100.76 219.148 Q106.571 219.148 109.626 223.755 Q112.705 228.338 112.705 237.088 Q112.705 245.815 109.626 250.421 Q106.571 255.005 100.76 255.005 Q94.9502 255.005 91.8715 250.421 Q88.816 245.815 88.816 237.088 Q88.816 228.338 91.8715 223.755 Q94.9502 219.148 100.76 219.148 Z" fill="#000000" fill-rule="nonzero" fill-opacity="1" /><path clip-path="url(#clip440)" d="M120.922 248.454 L125.807 248.454 L125.807 254.333 L120.922 254.333 L120.922 248.454 Z" fill="#000000" fill-rule="nonzero" fill-opacity="1" /><path clip-path="url(#clip440)" d="M136.802 250.398 L144.441 250.398 L144.441 224.033 L136.131 225.699 L136.131 221.44 L144.394 219.773 L149.07 219.773 L149.07 250.398 L156.709 250.398 L156.709 254.333 L136.802 254.333 L136.802 250.398 Z" fill="#000000" fill-rule="nonzero" fill-opacity="1" /><path clip-path="url(#clip440)" d="M176.153 222.852 Q172.542 222.852 170.714 226.417 Q168.908 229.959 168.908 237.088 Q168.908 244.195 170.714 247.759 Q172.542 251.301 176.153 251.301 Q179.788 251.301 181.593 247.759 Q183.422 244.195 183.422 237.088 Q183.422 229.959 181.593 226.417 Q179.788 222.852 176.153 222.852 M176.153 219.148 Q181.964 219.148 185.019 223.755 Q188.098 228.338 188.098 237.088 Q188.098 245.815 185.019 250.421 Q181.964 255.005 176.153 255.005 Q170.343 255.005 167.265 250.421 Q164.209 245.815 164.209 237.088 Q164.209 228.338 167.265 223.755 Q170.343 219.148 176.153 219.148 Z" fill="#000000" fill-rule="nonzero" fill-opacity="1" /><path clip-path="url(#clip440)" d="M1059.69 65.7705 L1059.69 89.8329 L1052.2 89.8329 L1052.2 27.2059 L1059.69 27.2059 L1059.69 34.0924 Q1062.04 30.0415 1065.61 28.0971 Q1069.21 26.1121 1074.19 26.1121 Q1082.46 26.1121 1087.6 32.6746 Q1092.79 39.2371 1092.79 49.9314 Q1092.79 60.6258 1087.6 67.1883 Q1082.46 73.7508 1074.19 73.7508 Q1069.21 73.7508 1065.61 71.8063 Q1062.04 69.8214 1059.69 65.7705 M1085.05 49.9314 Q1085.05 41.7081 1081.65 37.0496 Q1078.29 32.3505 1072.37 32.3505 Q1066.46 32.3505 1063.05 37.0496 Q1059.69 41.7081 1059.69 49.9314 Q1059.69 58.1548 1063.05 62.8538 Q1066.46 67.5124 1072.37 67.5124 Q1078.29 67.5124 1081.65 62.8538 Q1085.05 58.1548 1085.05 49.9314 Z" fill="#000000" fill-rule="nonzero" fill-opacity="1" /><path clip-path="url(#clip440)" d="M1122.72 32.4315 Q1116.73 32.4315 1113.25 37.1306 Q1109.76 41.7891 1109.76 49.9314 Q1109.76 58.0738 1113.21 62.7728 Q1116.69 67.4314 1122.72 67.4314 Q1128.68 67.4314 1132.16 62.7323 Q1135.65 58.0333 1135.65 49.9314 Q1135.65 41.8701 1132.16 37.1711 Q1128.68 32.4315 1122.72 32.4315 M1122.72 26.1121 Q1132.45 26.1121 1138 32.4315 Q1143.55 38.7509 1143.55 49.9314 Q1143.55 61.0714 1138 67.4314 Q1132.45 73.7508 1122.72 73.7508 Q1112.96 73.7508 1107.41 67.4314 Q1101.9 61.0714 1101.9 49.9314 Q1101.9 38.7509 1107.41 32.4315 Q1112.96 26.1121 1122.72 26.1121 Z" fill="#000000" fill-rule="nonzero" fill-opacity="1" /><path clip-path="url(#clip440)" d="M1182.19 34.1734 Q1180.94 33.4443 1179.44 33.1202 Q1177.98 32.7556 1176.2 32.7556 Q1169.88 32.7556 1166.47 36.8875 Q1163.11 40.9789 1163.11 48.6757 L1163.11 72.576 L1155.62 72.576 L1155.62 27.2059 L1163.11 27.2059 L1163.11 34.2544 Q1165.46 30.1225 1169.23 28.1376 Q1173 26.1121 1178.38 26.1121 Q1179.15 26.1121 1180.09 26.2337 Q1181.02 26.3147 1182.15 26.5172 L1182.19 34.1734 Z" fill="#000000" fill-rule="nonzero" fill-opacity="1" /><path clip-path="url(#clip440)" d="M1205.77 32.4315 Q1199.77 32.4315 1196.29 37.1306 Q1192.81 41.7891 1192.81 49.9314 Q1192.81 58.0738 1196.25 62.7728 Q1199.73 67.4314 1205.77 67.4314 Q1211.72 67.4314 1215.21 62.7323 Q1218.69 58.0333 1218.69 49.9314 Q1218.69 41.8701 1215.21 37.1711 Q1211.72 32.4315 1205.77 32.4315 M1205.77 26.1121 Q1215.49 26.1121 1221.04 32.4315 Q1226.59 38.7509 1226.59 49.9314 Q1226.59 61.0714 1221.04 67.4314 Q1215.49 73.7508 1205.77 73.7508 Q1196.01 73.7508 1190.46 67.4314 Q1184.95 61.0714 1184.95 49.9314 Q1184.95 38.7509 1190.46 32.4315 Q1196.01 26.1121 1205.77 26.1121 M1211.4 6.22219 L1219.46 6.22219 L1206.25 21.4536 L1200.06 21.4536 L1211.4 6.22219 Z" fill="#000000" fill-rule="nonzero" fill-opacity="1" /><path clip-path="url(#clip440)" d="M1234.61 27.2059 L1242.06 27.2059 L1251.38 62.6108 L1260.66 27.2059 L1269.45 27.2059 L1278.77 62.6108 L1288.04 27.2059 L1295.5 27.2059 L1283.63 72.576 L1274.84 72.576 L1265.07 35.3887 L1255.27 72.576 L1246.48 72.576 L1234.61 27.2059 Z" fill="#000000" fill-rule="nonzero" fill-opacity="1" /><path clip-path="url(#clip440)" d="M1344.51 45.1919 L1344.51 72.576 L1337.06 72.576 L1337.06 45.4349 Q1337.06 38.994 1334.55 35.7938 Q1332.03 32.5936 1327.01 32.5936 Q1320.98 32.5936 1317.49 36.4419 Q1314.01 40.2903 1314.01 46.9338 L1314.01 72.576 L1306.51 72.576 L1306.51 27.2059 L1314.01 27.2059 L1314.01 34.2544 Q1316.68 30.163 1320.29 28.1376 Q1323.93 26.1121 1328.67 26.1121 Q1336.49 26.1121 1340.5 30.9732 Q1344.51 35.7938 1344.51 45.1919 Z" fill="#000000" fill-rule="nonzero" fill-opacity="1" /><path clip-path="url(#clip440)" d="M1380 49.7694 Q1370.96 49.7694 1367.48 51.8354 Q1364 53.9013 1364 58.8839 Q1364 62.8538 1366.59 65.2034 Q1369.22 67.5124 1373.72 67.5124 Q1379.92 67.5124 1383.64 63.1374 Q1387.41 58.7219 1387.41 51.4303 L1387.41 49.7694 L1380 49.7694 M1394.86 46.6907 L1394.86 72.576 L1387.41 72.576 L1387.41 65.6895 Q1384.86 69.8214 1381.05 71.8063 Q1377.24 73.7508 1371.73 73.7508 Q1364.77 73.7508 1360.63 69.8619 Q1356.54 65.9325 1356.54 59.3701 Q1356.54 51.7138 1361.65 47.825 Q1366.79 43.9361 1376.96 43.9361 L1387.41 43.9361 L1387.41 43.2069 Q1387.41 38.0623 1384.01 35.2672 Q1380.65 32.4315 1374.53 32.4315 Q1370.64 32.4315 1366.95 33.3632 Q1363.27 34.295 1359.86 36.1584 L1359.86 29.2718 Q1363.96 27.692 1367.8 26.9223 Q1371.65 26.1121 1375.3 26.1121 Q1385.14 26.1121 1390 31.2163 Q1394.86 36.3204 1394.86 46.6907 Z" fill="#000000" fill-rule="nonzero" fill-opacity="1" /><path clip-path="url(#clip440)" d="M1447.93 45.1919 L1447.93 72.576 L1440.48 72.576 L1440.48 45.4349 Q1440.48 38.994 1437.97 35.7938 Q1435.45 32.5936 1430.43 32.5936 Q1424.4 32.5936 1420.91 36.4419 Q1417.43 40.2903 1417.43 46.9338 L1417.43 72.576 L1409.93 72.576 L1409.93 27.2059 L1417.43 27.2059 L1417.43 34.2544 Q1420.1 30.163 1423.71 28.1376 Q1427.35 26.1121 1432.09 26.1121 Q1439.91 26.1121 1443.92 30.9732 Q1447.93 35.7938 1447.93 45.1919 Z" fill="#000000" fill-rule="nonzero" fill-opacity="1" /><path clip-path="url(#clip440)" d="M1462.8 27.2059 L1470.25 27.2059 L1470.25 72.576 L1462.8 72.576 L1462.8 27.2059 M1462.8 9.54393 L1470.25 9.54393 L1470.25 18.9825 L1462.8 18.9825 L1462.8 9.54393 Z" fill="#000000" fill-rule="nonzero" fill-opacity="1" /><path clip-path="url(#clip440)" d="M1524.66 48.0275 L1524.66 51.6733 L1490.38 51.6733 Q1490.87 59.3701 1495 63.421 Q1499.18 67.4314 1506.59 67.4314 Q1510.88 67.4314 1514.89 66.3781 Q1518.94 65.3249 1522.91 63.2184 L1522.91 70.267 Q1518.9 71.9684 1514.69 72.8596 Q1510.48 73.7508 1506.14 73.7508 Q1495.29 73.7508 1488.93 67.4314 Q1482.61 61.1119 1482.61 50.3365 Q1482.61 39.1965 1488.6 32.6746 Q1494.64 26.1121 1504.85 26.1121 Q1514 26.1121 1519.31 32.0264 Q1524.66 37.9003 1524.66 48.0275 M1517.2 45.84 Q1517.12 39.7232 1513.76 36.0774 Q1510.44 32.4315 1504.93 32.4315 Q1498.69 32.4315 1494.92 35.9558 Q1491.19 39.4801 1490.63 45.8805 L1517.2 45.84 Z" fill="#000000" fill-rule="nonzero" fill-opacity="1" /><polyline clip-path="url(#clip442)" style="stroke:#009af9; stroke-linecap:round; stroke-linejoin:round; stroke-width:4; stroke-opacity:1; fill:none" points="224.098,804.96 227.563,777.604 231.027,750.99 234.492,725.108 237.957,699.948 245.966,644.494 253.975,592.722 257.979,568.179 261.984,544.511 265.988,521.703 269.993,499.742 278.002,458.301 286.011,420.074 294.02,384.948 302.029,352.814 310.038,323.565 318.047,297.095 326.056,273.301 334.065,252.081 342.074,233.335 350.083,216.965 358.092,202.877 366.101,190.976 375.727,179.438 385.353,170.77 394.979,164.822 404.605,161.446 414.231,160.497 423.857,161.835 433.484,165.323 443.11,170.828 451.248,176.961 459.387,184.366 467.526,192.971 475.665,202.703 483.804,213.49 491.942,225.264 500.081,237.957 508.22,251.505 525.902,283.581 543.584,318.765 561.266,356.469 578.948,396.143 611.55,472.744 644.153,551.373 679.106,635.031 714.06,715.413 734.308,759.585 754.556,801.537 774.805,840.949 795.053,877.544 813.048,907.514 831.042,934.942 849.036,959.715 867.031,981.749 882.81,998.766 898.59,1013.6 914.369,1026.23 930.149,1036.65 947.353,1045.51 964.556,1051.79 981.76,1055.51 998.964,1056.74 1016.27,1055.52 1033.58,1051.93 1050.88,1046.06 1068.19,1038 1087.32,1026.7 1106.46,1013.05 1125.59,997.23 1144.72,979.434 1162.93,960.858 1181.14,940.868 1199.34,919.656 1217.55,897.421 1293.27,798.506 1357,715.373 1376.46,691.524 1395.91,668.83 1415.37,647.533 1434.82,627.868 1452.64,611.479 1470.47,596.815 1488.29,584.034 1506.11,573.283 1522.57,565.278 1539.03,559.223 1555.49,555.212 1571.95,553.327 1588.62,553.659 1605.29,556.314 1621.97,561.343 1638.64,568.79 1657.32,580.042 1676.01,594.384 1694.7,611.815 1713.38,632.308 1730.31,653.481 1747.25,677.07 1764.18,703.002 1781.11,731.183 1800.5,766.066 1819.88,803.547 1839.27,843.39 1858.66,885.319 1894.56,967.38 1930.46,1053.13 1965.85,1138.49 2001.24,1221.39 2018.43,1259.65 2035.61,1295.96 2052.79,1329.83 2069.97,1360.7 2078.78,1375.17 2087.59,1388.63 2096.39,1400.98 2105.2,1412.15 2114.01,1422.04 2122.81,1430.56 2131.62,1437.62 2140.43,1443.12 2150.08,1447.25 2159.72,1449.25 2169.37,1449.01 2179.02,1446.36 2188.67,1441.17 2198.32,1433.3 2207.97,1422.59 2217.62,1408.87 2224.63,1396.95 2231.63,1383.29 2238.64,1367.85 2245.65,1350.54 2252.66,1331.32 2259.67,1310.11 2266.68,1286.84 2273.68,1261.44 2280.69,1233.85 2287.7,1203.99 2294.71,1171.78 2301.72,1137.16 2308.73,1100.05 2315.73,1060.37 2322.74,1018.05 2329.75,972.995 2335.5,933.933 2341.25,892.938 2347,849.962 2352.76,804.96 "/>
<polyline clip-path="url(#clip442)" style="stroke:#e26f46; stroke-linecap:round; stroke-linejoin:round; stroke-width:4; stroke-opacity:1; fill:none" points="224.098,1159.9 227.563,1131.39 231.027,1103.62 234.492,1076.58 237.957,1050.27 241.961,1020.74 245.966,992.143 249.97,964.469 253.975,937.7 257.979,911.821 261.984,886.818 265.988,862.675 269.993,839.379 273.997,816.914 278.002,795.267 282.006,774.423 286.011,754.368 290.015,735.089 294.02,716.571 298.024,698.802 302.029,681.767 306.033,665.453 310.038,649.847 314.042,634.936 318.047,620.706 322.051,607.145 326.056,594.241 330.06,581.98 334.065,570.35 338.069,559.338 342.074,548.933 346.078,539.121 350.083,529.892 354.087,521.234 358.092,513.133 362.096,505.58 366.101,498.562 370.914,490.819 375.727,483.813 380.54,477.525 385.353,471.935 390.166,467.025 394.979,462.777 399.792,459.172 404.605,456.191 409.418,453.816 414.231,452.031 419.044,450.818 423.857,450.159 428.67,450.038 433.484,450.437 438.297,451.34 443.11,452.732 451.248,456.15 459.387,460.842 467.526,466.732 475.665,473.749 483.804,481.822 491.942,490.882 500.081,500.862 508.22,511.695 517.061,524.358 525.902,537.874 534.743,552.167 543.584,567.161 552.425,582.786 561.266,598.969 570.107,615.645 578.948,632.746 611.55,698.474 644.153,766.231 661.63,802.485 679.106,838.232 696.583,873.154 714.06,906.957 724.184,925.923 734.308,944.378 744.432,962.276 754.556,979.577 764.681,996.242 774.805,1012.24 784.929,1027.52 795.053,1042.08 804.05,1054.37 813.048,1066.05 822.045,1077.09 831.042,1087.47 840.039,1097.2 849.036,1106.25 858.034,1114.61 867.031,1122.28 874.921,1128.43 882.81,1134.03 890.7,1139.09 898.59,1143.6 906.479,1147.56 914.369,1150.97 922.259,1153.83 930.149,1156.13 938.751,1158.02 947.353,1159.26 955.954,1159.85 964.556,1159.79 973.158,1159.1 981.76,1157.78 990.362,1155.83 998.964,1153.27 1007.62,1150.08 1016.27,1146.28 1024.92,1141.89 1033.58,1136.92 1042.23,1131.38 1050.88,1125.28 1059.54,1118.63 1068.19,1111.45 1077.76,1102.92 1087.32,1093.77 1096.89,1084.04 1106.46,1073.74 1116.02,1062.89 1125.59,1051.53 1135.16,1039.68 1144.72,1027.36 1162.93,1002.71 1181.14,976.648 1190.24,963.147 1199.34,949.365 1208.44,935.327 1217.55,921.058 1255.41,859.807 1293.27,796.892 1325.14,744.042 1357,692.503 1376.46,662.166 1395.91,632.984 1415.37,605.199 1434.82,579.047 1452.64,556.715 1470.47,536.108 1479.38,526.5 1488.29,517.383 1497.2,508.773 1506.11,500.689 1514.34,493.704 1522.57,487.194 1530.8,481.173 1539.03,475.651 1547.26,470.64 1555.49,466.15 1563.72,462.192 1571.95,458.776 1580.28,455.876 1588.62,453.548 1596.96,451.802 1605.29,450.642 1613.63,450.077 1621.97,450.112 1630.3,450.751 1638.64,451.998 1647.98,454.123 1657.32,457.018 1666.67,460.687 1676.01,465.13 1685.35,470.344 1694.7,476.329 1704.04,483.08 1713.38,490.59 1721.85,498.047 1730.31,506.116 1738.78,514.79 1747.25,524.059 1755.71,533.914 1764.18,544.344 1772.65,555.337 1781.11,566.879 1790.8,580.749 1800.5,595.296 1810.19,610.493 1819.88,626.312 1829.58,642.722 1839.27,659.69 1848.96,677.179 1858.66,695.153 1876.61,729.578 1894.56,765.242 1912.51,801.836 1930.46,839.018 1965.85,912.573 2001.24,983.677 2009.83,1000.15 2018.43,1016.2 2027.02,1031.77 2035.61,1046.79 2044.2,1061.19 2052.79,1074.92 2061.38,1087.9 2069.97,1100.06 2078.78,1111.6 2087.59,1122.12 2096.39,1131.54 2105.2,1139.76 2114.01,1146.72 2122.81,1152.3 2131.62,1156.42 2140.43,1158.99 2145.25,1159.7 2150.08,1159.9 2154.9,1159.57 2159.72,1158.69 2164.55,1157.24 2169.37,1155.22 2174.2,1152.6 2179.02,1149.36 2183.85,1145.48 2188.67,1140.95 2193.5,1135.75 2198.32,1129.86 2203.14,1123.26 2207.97,1115.93 2212.79,1107.85 2217.62,1099 2224.63,1084.74 2231.63,1068.74 2235.14,1060.08 2238.64,1050.96 2242.15,1041.38 2245.65,1031.32 2249.16,1020.79 2252.66,1009.76 2256.16,998.239 2259.67,986.212 2263.17,973.67 2266.68,960.605 2270.18,947.009 2273.68,932.872 2277.19,918.186 2280.69,902.942 2284.2,887.13 2287.7,870.742 2291.21,853.769 2294.71,836.201 2298.21,818.029 2301.72,799.244 2305.22,779.835 2308.73,759.794 2312.23,739.112 2315.73,717.777 2319.24,695.781 2322.74,673.114 2326.25,649.765 2329.75,625.725 2335.5,584.746 2341.25,541.832 2347,496.938 2352.76,450.018 "/>
<polyline clip-path="url(#clip442)" style="stroke:#3da44d; stroke-linecap:round; stroke-linejoin:round; stroke-width:4; stroke-opacity:1; fill:none" points="224.098,804.96 225.83,799.373 227.563,793.983 229.295,788.786 231.027,783.778 232.76,778.955 234.492,774.312 235.358,772.057 236.224,769.847 237.09,767.679 237.957,765.554 239.959,760.803 241.961,756.273 243.963,751.958 245.966,747.852 247.968,743.95 249.97,740.246 251.972,736.735 253.975,733.413 255.977,730.273 257.979,727.311 259.981,724.523 261.984,721.903 263.986,719.446 265.988,717.149 267.99,715.006 269.993,713.013 271.995,711.166 273.997,709.46 275.999,707.891 278.002,706.455 282.006,703.968 286.011,701.965 290.015,700.417 294.02,699.295 298.024,698.572 302.029,698.22 306.033,698.214 310.038,698.53 314.042,699.144 318.047,700.034 322.051,701.178 326.056,702.556 330.06,704.148 334.065,705.936 338.069,707.901 342.074,710.027 346.078,712.297 350.083,714.695 358.092,719.822 366.101,725.297 385.353,739.318 404.605,753.684 414.231,760.725 423.857,767.559 433.484,774.118 443.11,780.349 451.248,785.327 459.387,790.02 467.526,794.41 475.665,798.487 483.804,802.244 491.942,805.676 500.081,808.782 508.22,811.566 517.061,814.23 525.902,816.528 534.743,818.47 543.584,820.072 552.425,821.348 561.266,822.316 570.107,822.995 578.948,823.404 587.099,823.559 595.249,823.518 603.4,823.298 611.55,822.915 619.701,822.384 627.852,821.723 636.002,820.947 644.153,820.072 679.106,815.541 714.06,810.516 734.308,807.718 754.556,805.161 774.805,802.939 795.053,801.115 813.048,799.86 831.042,798.96 849.036,798.411 867.031,798.199 882.81,798.269 898.59,798.556 914.369,799.033 930.149,799.672 998.964,803.55 1068.19,807.344 1087.32,808.09 1106.46,808.652 1125.59,809.012 1144.72,809.164 1162.93,809.116 1181.14,808.889 1199.34,808.496 1217.55,807.956 1293.27,804.733 1357,802.041 1376.46,801.452 1395.91,801.028 1415.37,800.793 1434.82,800.765 1452.64,800.927 1470.47,801.27 1488.29,801.787 1506.11,802.467 1539.03,804.08 1571.95,806.006 1605.29,808.039 1638.64,809.87 1657.32,810.694 1676.01,811.307 1694.7,811.658 1713.38,811.705 1730.31,811.453 1747.25,810.901 1764.18,810.038 1781.11,808.859 1800.5,807.136 1819.88,805.043 1839.27,802.635 1858.66,799.99 1894.56,794.831 1930.46,790.105 1939.31,789.132 1948.15,788.273 1957,787.547 1965.85,786.975 1974.7,786.577 1983.55,786.375 1992.4,786.389 2001.24,786.64 2009.83,787.131 2018.43,787.882 2027.02,788.913 2035.61,790.24 2044.2,791.877 2052.79,793.84 2061.38,796.141 2069.97,798.789 2078.78,801.873 2087.59,805.336 2096.39,809.18 2105.2,813.402 2114.01,817.996 2122.81,822.949 2131.62,828.245 2140.43,833.859 2150.08,840.339 2159.72,847.112 2169.37,854.115 2179.02,861.272 2188.67,868.489 2198.32,875.66 2207.97,882.657 2217.62,889.335 2224.63,893.892 2231.63,898.122 2238.64,901.947 2245.65,905.281 2249.16,906.736 2252.66,908.032 2256.16,909.158 2259.67,910.1 2263.17,910.843 2266.68,911.374 2270.18,911.677 2273.68,911.736 2277.19,911.536 2280.69,911.06 2284.2,910.289 2287.7,909.207 2291.21,907.793 2294.71,906.029 2298.21,903.895 2301.72,901.369 2305.22,898.43 2308.73,895.055 2312.23,891.222 2315.73,886.906 2319.24,882.083 2322.74,876.726 2326.25,870.811 2329.75,864.308 2331.19,861.464 2332.63,858.514 2334.06,855.457 2335.5,852.29 2338.38,845.619 2341.25,838.485 2344.13,830.87 2347,822.756 2349.88,814.126 2352.76,804.96 "/>
<polyline clip-path="url(#clip442)" style="stroke:#c271d2; stroke-linecap:round; stroke-linejoin:round; stroke-width:4; stroke-opacity:1; fill:none" points="224.098,827.144 224.964,825.697 225.83,824.282 226.696,822.898 227.563,821.544 228.429,820.221 229.295,818.927 230.161,817.663 231.027,816.427 231.893,815.221 232.76,814.042 233.626,812.892 234.492,811.769 236.224,809.604 237.957,807.546 238.958,806.403 239.959,805.295 240.96,804.22 241.961,803.177 242.962,802.168 243.963,801.189 244.964,800.243 245.966,799.327 246.967,798.441 247.968,797.585 248.969,796.759 249.97,795.961 251.972,794.451 253.975,793.05 255.977,791.756 257.979,790.564 259.981,789.472 261.984,788.474 263.986,787.57 265.988,786.754 267.99,786.023 269.993,785.376 271.995,784.808 273.997,784.316 275.999,783.898 278.002,783.551 280.004,783.271 282.006,783.056 284.008,782.904 286.011,782.812 288.013,782.777 290.015,782.796 292.017,782.868 294.02,782.99 296.022,783.159 298.024,783.373 300.026,783.631 302.029,783.929 304.031,784.267 306.033,784.641 308.035,785.049 310.038,785.491 314.042,786.465 318.047,787.548 322.051,788.727 326.056,789.988 330.06,791.319 334.065,792.708 342.074,795.618 350.083,798.638 358.092,801.699 366.101,804.738 370.914,806.532 375.727,808.289 380.54,810 385.353,811.656 390.166,813.25 394.979,814.777 399.792,816.228 404.605,817.601 409.418,818.89 414.231,820.092 419.044,821.204 423.857,822.223 428.67,823.148 433.484,823.977 438.297,824.709 443.11,825.344 447.179,825.805 451.248,826.197 455.318,826.52 459.387,826.775 463.457,826.962 467.526,827.084 471.595,827.139 475.665,827.131 479.734,827.06 483.804,826.928 487.873,826.737 491.942,826.487 496.012,826.181 500.081,825.822 504.151,825.409 508.22,824.947 512.64,824.39 517.061,823.779 521.481,823.116 525.902,822.405 530.322,821.649 534.743,820.85 539.163,820.011 543.584,819.135 548.004,818.226 552.425,817.286 556.845,816.318 561.266,815.325 570.107,813.277 578.948,811.166 595.249,807.18 611.55,803.19 619.701,801.233 627.852,799.32 636.002,797.466 644.153,795.682 648.522,794.758 652.891,793.86 657.26,792.99 661.63,792.147 665.999,791.334 670.368,790.553 674.737,789.804 679.106,789.088 683.475,788.407 687.845,787.762 692.214,787.153 696.583,786.582 700.952,786.049 705.321,785.555 709.69,785.1 714.06,784.685 719.122,784.254 724.184,783.878 729.246,783.557 734.308,783.291 739.37,783.08 744.432,782.925 749.494,782.825 754.556,782.779 759.618,782.788 764.681,782.851 769.743,782.966 774.805,783.135 779.867,783.354 784.929,783.625 789.991,783.945 795.053,784.313 799.552,784.679 804.05,785.082 808.549,785.521 813.048,785.993 817.546,786.499 822.045,787.036 826.543,787.604 831.042,788.202 840.039,789.482 849.036,790.865 858.034,792.341 867.031,793.897 874.921,795.319 882.81,796.787 890.7,798.293 898.59,799.828 914.369,802.956 930.149,806.105 947.353,809.49 964.556,812.75 973.158,814.31 981.76,815.811 990.362,817.247 998.964,818.608 1007.62,819.895 1016.27,821.094 1024.92,822.198 1033.58,823.202 1042.23,824.099 1050.88,824.887 1055.21,825.239 1059.54,825.562 1063.86,825.855 1068.19,826.119 1072.97,826.377 1077.76,826.597 1082.54,826.78 1087.32,826.927 1092.11,827.036 1096.89,827.107 1101.67,827.141 1106.46,827.137 1111.24,827.096 1116.02,827.018 1120.81,826.903 1125.59,826.751 1130.37,826.563 1135.16,826.339 1139.94,826.079 1144.72,825.784 1149.28,825.472 1153.83,825.128 1158.38,824.755 1162.93,824.352 1172.03,823.46 1181.14,822.458 1190.24,821.352 1199.34,820.149 1208.44,818.857 1217.55,817.482 1227.01,815.975 1236.48,814.398 1245.94,812.761 1255.41,811.075 1274.34,807.597 1293.27,804.053 1309.2,801.083 1325.14,798.183 1333.1,796.775 1341.07,795.404 1349.04,794.076 1357,792.797 1366.73,791.311 1376.46,789.916 1386.19,788.622 1395.91,787.439 1400.78,786.892 1405.64,786.375 1410.5,785.89 1415.37,785.437 1420.23,785.017 1425.1,784.632 1429.96,784.281 1434.82,783.965 1439.28,783.708 1443.73,783.481 1448.19,783.286 1452.64,783.121 1457.1,782.988 1461.56,782.888 1466.01,782.819 1470.47,782.782 1474.92,782.778 1479.38,782.807 1483.83,782.868 1488.29,782.961 1492.74,783.087 1497.2,783.246 1501.65,783.436 1506.11,783.659 1514.34,784.153 1522.57,784.754 1530.8,785.458 1539.03,786.264 1547.26,787.167 1555.49,788.164 1563.72,789.249 1571.95,790.419 1580.28,791.683 1588.62,793.022 1596.96,794.429 1605.29,795.896 1613.63,797.416 1621.97,798.982 1630.3,800.585 1638.64,802.217 1657.32,805.934 1676.01,809.649 1685.35,811.472 1694.7,813.256 1704.04,814.985 1713.38,816.648 1721.85,818.086 1730.31,819.448 1738.78,820.727 1747.25,821.911 1755.71,822.994 1764.18,823.967 1768.41,824.41 1772.65,824.823 1776.88,825.204 1781.11,825.554 1785.96,825.913 1790.8,826.229 1795.65,826.499 1800.5,826.723 1805.34,826.901 1810.19,827.03 1815.04,827.111 1819.88,827.143 1824.73,827.126 1829.58,827.058 1834.42,826.94 1839.27,826.771 1844.12,826.552 1848.96,826.282 1853.81,825.962 1858.66,825.591 1863.14,825.204 1867.63,824.773 1872.12,824.301 1876.61,823.788 1881.09,823.233 1885.58,822.639 1890.07,822.005 1894.56,821.333 1899.04,820.623 1903.53,819.877 1908.02,819.097 1912.51,818.282 1916.99,817.435 1921.48,816.557 1925.97,815.65 1930.46,814.716 1939.31,812.799 1948.15,810.796 1957,808.723 1965.85,806.597 1983.55,802.262 2001.24,797.951 2009.83,795.919 2018.43,793.955 2022.72,793.005 2027.02,792.08 2031.31,791.184 2035.61,790.317 2039.9,789.485 2044.2,788.688 2048.49,787.93 2052.79,787.213 2057.09,786.541 2061.38,785.916 2065.68,785.34 2069.97,784.816 2074.38,784.335 2078.78,783.914 2083.18,783.556 2087.59,783.262 2091.99,783.036 2096.39,782.879 2100.8,782.793 2105.2,782.78 2109.6,782.843 2114.01,782.981 2118.41,783.198 2122.81,783.494 2127.22,783.87 2131.62,784.327 2136.02,784.865 2140.43,785.484 2145.25,786.255 2150.08,787.124 2154.9,788.088 2159.72,789.147 2164.55,790.298 2169.37,791.538 2174.2,792.865 2179.02,794.274 2183.85,795.76 2188.67,797.319 2193.5,798.943 2198.32,800.627 2207.97,804.14 2217.62,807.784 2224.63,810.463 2231.63,813.125 2238.64,815.724 2245.65,818.211 2249.16,819.394 2252.66,820.528 2256.16,821.604 2259.67,822.613 2263.17,823.547 2266.68,824.397 2270.18,825.152 2273.68,825.803 2275.44,826.086 2277.19,826.339 2278.94,826.56 2280.69,826.748 2282.45,826.901 2284.2,827.018 2285.95,827.098 2287.7,827.139 2289.45,827.139 2291.21,827.096 2292.96,827.009 2294.71,826.876 2296.46,826.696 2298.21,826.466 2299.97,826.185 2301.72,825.851 2303.47,825.461 2305.22,825.015 2306.97,824.51 2308.73,823.943 2310.48,823.314 2312.23,822.62 2313.98,821.858 2315.73,821.027 2317.49,820.123 2319.24,819.146 2320.99,818.093 2322.74,816.961 2324.5,815.748 2326.25,814.451 2328,813.068 2329.75,811.597 2331.19,810.321 2332.63,808.983 2334.06,807.58 2335.5,806.111 2336.94,804.576 2338.38,802.971 2339.82,801.295 2341.25,799.548 2342.69,797.727 2344.13,795.831 2345.57,793.857 2347,791.805 2348.44,789.673 2349.88,787.458 2351.32,785.16 2352.76,782.776 "/>
<path clip-path="url(#clip440)" d="M1596.11 428.105 L2281.8 428.105 L2281.8 168.905 L1596.11 168.905  Z" fill="#ffffff" fill-rule="evenodd" fill-opacity="1"/>
<polyline clip-path="url(#clip440)" style="stroke:#000000; stroke-linecap:round; stroke-linejoin:round; stroke-width:4; stroke-opacity:1; fill:none" points="1596.11,428.105 2281.8,428.105 2281.8,168.905 1596.11,168.905 1596.11,428.105 "/>
<polyline clip-path="url(#clip440)" style="stroke:#009af9; stroke-linecap:round; stroke-linejoin:round; stroke-width:4; stroke-opacity:1; fill:none" points="1619.77,220.745 1761.68,220.745 "/>
<path clip-path="url(#clip440)" d="M1807.04 222.377 L1807.04 238.025 L1802.78 238.025 L1802.78 222.515 Q1802.78 218.835 1801.35 217.006 Q1799.91 215.178 1797.04 215.178 Q1793.59 215.178 1791.6 217.377 Q1789.61 219.576 1789.61 223.372 L1789.61 238.025 L1785.33 238.025 L1785.33 212.099 L1789.61 212.099 L1789.61 216.127 Q1791.14 213.789 1793.2 212.631 Q1795.28 211.474 1797.99 211.474 Q1802.46 211.474 1804.75 214.252 Q1807.04 217.006 1807.04 222.377 Z" fill="#000000" fill-rule="nonzero" fill-opacity="1" /><path clip-path="url(#clip440)" d="M1831.16 216.497 L1860.84 216.497 L1860.84 220.386 L1831.16 220.386 L1831.16 216.497 M1831.16 225.941 L1860.84 225.941 L1860.84 229.877 L1831.16 229.877 L1831.16 225.941 Z" fill="#000000" fill-rule="nonzero" fill-opacity="1" /><path clip-path="url(#clip440)" d="M1898.85 207.539 L1887.04 225.988 L1898.85 225.988 L1898.85 207.539 M1897.62 203.465 L1903.5 203.465 L1903.5 225.988 L1908.43 225.988 L1908.43 229.877 L1903.5 229.877 L1903.5 238.025 L1898.85 238.025 L1898.85 229.877 L1883.24 229.877 L1883.24 225.363 L1897.62 203.465 Z" fill="#000000" fill-rule="nonzero" fill-opacity="1" /><path clip-path="url(#clip440)" d="M1916.65 232.145 L1921.53 232.145 L1921.53 236.127 L1917.73 243.534 L1914.75 243.534 L1916.65 236.127 L1916.65 232.145 Z" fill="#000000" fill-rule="nonzero" fill-opacity="1" /><path clip-path="url(#clip440)" d="M1960.72 216.08 Q1960 215.664 1959.15 215.478 Q1958.31 215.27 1957.29 215.27 Q1953.68 215.27 1951.74 217.631 Q1949.82 219.969 1949.82 224.367 L1949.82 238.025 L1945.53 238.025 L1945.53 212.099 L1949.82 212.099 L1949.82 216.127 Q1951.16 213.766 1953.31 212.631 Q1955.47 211.474 1958.54 211.474 Q1958.98 211.474 1959.52 211.543 Q1960.05 211.59 1960.7 211.705 L1960.72 216.08 Z" fill="#000000" fill-rule="nonzero" fill-opacity="1" /><path clip-path="url(#clip440)" d="M1974.19 215.085 Q1970.77 215.085 1968.78 217.77 Q1966.78 220.432 1966.78 225.085 Q1966.78 229.738 1968.75 232.423 Q1970.74 235.085 1974.19 235.085 Q1977.59 235.085 1979.59 232.4 Q1981.58 229.715 1981.58 225.085 Q1981.58 220.478 1979.59 217.793 Q1977.59 215.085 1974.19 215.085 M1974.19 211.474 Q1979.75 211.474 1982.92 215.085 Q1986.09 218.696 1986.09 225.085 Q1986.09 231.451 1982.92 235.085 Q1979.75 238.696 1974.19 238.696 Q1968.61 238.696 1965.44 235.085 Q1962.29 231.451 1962.29 225.085 Q1962.29 218.696 1965.44 215.085 Q1968.61 211.474 1974.19 211.474 M1977.41 200.108 L1982.02 200.108 L1974.47 208.812 L1970.93 208.812 L1977.41 200.108 Z" fill="#000000" fill-rule="nonzero" fill-opacity="1" /><path clip-path="url(#clip440)" d="M1990.67 212.099 L1994.93 212.099 L2000.26 232.33 L2005.56 212.099 L2010.58 212.099 L2015.9 232.33 L2021.21 212.099 L2025.46 212.099 L2018.68 238.025 L2013.66 238.025 L2008.08 216.775 L2002.48 238.025 L1997.46 238.025 L1990.67 212.099 Z" fill="#000000" fill-rule="nonzero" fill-opacity="1" /><path clip-path="url(#clip440)" d="M2053.47 222.377 L2053.47 238.025 L2049.21 238.025 L2049.21 222.515 Q2049.21 218.835 2047.78 217.006 Q2046.34 215.178 2043.47 215.178 Q2040.03 215.178 2038.03 217.377 Q2036.04 219.576 2036.04 223.372 L2036.04 238.025 L2031.76 238.025 L2031.76 212.099 L2036.04 212.099 L2036.04 216.127 Q2037.57 213.789 2039.63 212.631 Q2041.71 211.474 2044.42 211.474 Q2048.89 211.474 2051.18 214.252 Q2053.47 217.006 2053.47 222.377 Z" fill="#000000" fill-rule="nonzero" fill-opacity="1" /><path clip-path="url(#clip440)" d="M2072.02 215.085 Q2068.59 215.085 2066.6 217.77 Q2064.61 220.432 2064.61 225.085 Q2064.61 229.738 2066.58 232.423 Q2068.57 235.085 2072.02 235.085 Q2075.42 235.085 2077.41 232.4 Q2079.4 229.715 2079.4 225.085 Q2079.4 220.478 2077.41 217.793 Q2075.42 215.085 2072.02 215.085 M2072.02 211.474 Q2077.57 211.474 2080.74 215.085 Q2083.91 218.696 2083.91 225.085 Q2083.91 231.451 2080.74 235.085 Q2077.57 238.696 2072.02 238.696 Q2066.44 238.696 2063.27 235.085 Q2060.12 231.451 2060.12 225.085 Q2060.12 218.696 2063.27 215.085 Q2066.44 211.474 2072.02 211.474 Z" fill="#000000" fill-rule="nonzero" fill-opacity="1" /><path clip-path="url(#clip440)" d="M2101.02 215.085 Q2097.59 215.085 2095.6 217.77 Q2093.61 220.432 2093.61 225.085 Q2093.61 229.738 2095.58 232.423 Q2097.57 235.085 2101.02 235.085 Q2104.42 235.085 2106.41 232.4 Q2108.4 229.715 2108.4 225.085 Q2108.4 220.478 2106.41 217.793 Q2104.42 215.085 2101.02 215.085 M2101.02 211.474 Q2106.58 211.474 2109.75 215.085 Q2112.92 218.696 2112.92 225.085 Q2112.92 231.451 2109.75 235.085 Q2106.58 238.696 2101.02 238.696 Q2095.44 238.696 2092.27 235.085 Q2089.12 231.451 2089.12 225.085 Q2089.12 218.696 2092.27 215.085 Q2095.44 211.474 2101.02 211.474 Z" fill="#000000" fill-rule="nonzero" fill-opacity="1" /><path clip-path="url(#clip440)" d="M2137.04 216.034 L2137.04 202.006 L2141.3 202.006 L2141.3 238.025 L2137.04 238.025 L2137.04 234.136 Q2135.7 236.451 2133.64 237.585 Q2131.6 238.696 2128.73 238.696 Q2124.03 238.696 2121.07 234.946 Q2118.13 231.196 2118.13 225.085 Q2118.13 218.974 2121.07 215.224 Q2124.03 211.474 2128.73 211.474 Q2131.6 211.474 2133.64 212.608 Q2135.7 213.719 2137.04 216.034 M2122.52 225.085 Q2122.52 229.784 2124.45 232.469 Q2126.39 235.131 2129.77 235.131 Q2133.15 235.131 2135.09 232.469 Q2137.04 229.784 2137.04 225.085 Q2137.04 220.386 2135.09 217.724 Q2133.15 215.039 2129.77 215.039 Q2126.39 215.039 2124.45 217.724 Q2122.52 220.386 2122.52 225.085 Z" fill="#000000" fill-rule="nonzero" fill-opacity="1" /><path clip-path="url(#clip440)" d="M2150.07 202.006 L2154.33 202.006 L2154.33 238.025 L2150.07 238.025 L2150.07 202.006 Z" fill="#000000" fill-rule="nonzero" fill-opacity="1" /><path clip-path="url(#clip440)" d="M2185.42 223.997 L2185.42 226.08 L2165.83 226.08 Q2166.11 230.478 2168.47 232.793 Q2170.86 235.085 2175.09 235.085 Q2177.55 235.085 2179.84 234.483 Q2182.15 233.881 2184.42 232.677 L2184.42 236.705 Q2182.13 237.677 2179.72 238.187 Q2177.32 238.696 2174.84 238.696 Q2168.64 238.696 2165 235.085 Q2161.39 231.474 2161.39 225.316 Q2161.39 218.951 2164.82 215.224 Q2168.27 211.474 2174.1 211.474 Q2179.33 211.474 2182.36 214.853 Q2185.42 218.21 2185.42 223.997 M2181.16 222.747 Q2181.11 219.252 2179.19 217.168 Q2177.29 215.085 2174.14 215.085 Q2170.58 215.085 2168.43 217.099 Q2166.3 219.113 2165.97 222.77 L2181.16 222.747 Z" fill="#000000" fill-rule="nonzero" fill-opacity="1" /><path clip-path="url(#clip440)" d="M2209.47 224.761 Q2209.47 220.131 2207.55 217.585 Q2205.65 215.039 2202.2 215.039 Q2198.77 215.039 2196.85 217.585 Q2194.95 220.131 2194.95 224.761 Q2194.95 229.367 2196.85 231.914 Q2198.77 234.46 2202.2 234.46 Q2205.65 234.46 2207.55 231.914 Q2209.47 229.367 2209.47 224.761 M2213.73 234.807 Q2213.73 241.427 2210.79 244.645 Q2207.85 247.886 2201.78 247.886 Q2199.54 247.886 2197.55 247.538 Q2195.56 247.214 2193.68 246.52 L2193.68 242.376 Q2195.56 243.395 2197.39 243.881 Q2199.21 244.367 2201.11 244.367 Q2205.3 244.367 2207.39 242.168 Q2209.47 239.992 2209.47 235.571 L2209.47 233.464 Q2208.15 235.756 2206.09 236.89 Q2204.03 238.025 2201.16 238.025 Q2196.39 238.025 2193.47 234.39 Q2190.56 230.756 2190.56 224.761 Q2190.56 218.742 2193.47 215.108 Q2196.39 211.474 2201.16 211.474 Q2204.03 211.474 2206.09 212.608 Q2208.15 213.742 2209.47 216.034 L2209.47 212.099 L2213.73 212.099 L2213.73 234.807 Z" fill="#000000" fill-rule="nonzero" fill-opacity="1" /><path clip-path="url(#clip440)" d="M2222.64 202.006 L2226.9 202.006 L2226.9 215.941 L2229.79 213.858 L2231.55 216.312 L2226.9 219.576 L2226.9 238.025 L2222.64 238.025 L2222.64 222.608 L2219.79 224.645 L2218.08 222.191 L2222.64 218.928 L2222.64 202.006 Z" fill="#000000" fill-rule="nonzero" fill-opacity="1" /><path clip-path="url(#clip440)" d="M2258.15 223.997 L2258.15 226.08 L2238.57 226.08 Q2238.84 230.478 2241.2 232.793 Q2243.59 235.085 2247.82 235.085 Q2250.28 235.085 2252.57 234.483 Q2254.89 233.881 2257.15 232.677 L2257.15 236.705 Q2254.86 237.677 2252.45 238.187 Q2250.05 238.696 2247.57 238.696 Q2241.37 238.696 2237.73 235.085 Q2234.12 231.474 2234.12 225.316 Q2234.12 218.951 2237.55 215.224 Q2241 211.474 2246.83 211.474 Q2252.06 211.474 2255.09 214.853 Q2258.15 218.21 2258.15 223.997 M2253.89 222.747 Q2253.84 219.252 2251.92 217.168 Q2250.02 215.085 2246.88 215.085 Q2243.31 215.085 2241.16 217.099 Q2239.03 219.113 2238.7 222.77 L2253.89 222.747 Z" fill="#000000" fill-rule="nonzero" fill-opacity="1" /><polyline clip-path="url(#clip440)" style="stroke:#e26f46; stroke-linecap:round; stroke-linejoin:round; stroke-width:4; stroke-opacity:1; fill:none" points="1619.77,272.585 1761.68,272.585 "/>
<path clip-path="url(#clip440)" d="M1807.04 274.217 L1807.04 289.865 L1802.78 289.865 L1802.78 274.355 Q1802.78 270.675 1801.35 268.846 Q1799.91 267.018 1797.04 267.018 Q1793.59 267.018 1791.6 269.217 Q1789.61 271.416 1789.61 275.212 L1789.61 289.865 L1785.33 289.865 L1785.33 263.939 L1789.61 263.939 L1789.61 267.967 Q1791.14 265.629 1793.2 264.471 Q1795.28 263.314 1797.99 263.314 Q1802.46 263.314 1804.75 266.092 Q1807.04 268.846 1807.04 274.217 Z" fill="#000000" fill-rule="nonzero" fill-opacity="1" /><path clip-path="url(#clip440)" d="M1831.16 268.337 L1860.84 268.337 L1860.84 272.226 L1831.16 272.226 L1831.16 268.337 M1831.16 277.781 L1860.84 277.781 L1860.84 281.717 L1831.16 281.717 L1831.16 277.781 Z" fill="#000000" fill-rule="nonzero" fill-opacity="1" /><path clip-path="url(#clip440)" d="M1898.85 259.379 L1887.04 277.828 L1898.85 277.828 L1898.85 259.379 M1897.62 255.305 L1903.5 255.305 L1903.5 277.828 L1908.43 277.828 L1908.43 281.717 L1903.5 281.717 L1903.5 289.865 L1898.85 289.865 L1898.85 281.717 L1883.24 281.717 L1883.24 277.203 L1897.62 255.305 Z" fill="#000000" fill-rule="nonzero" fill-opacity="1" /><path clip-path="url(#clip440)" d="M1916.65 283.985 L1921.53 283.985 L1921.53 287.967 L1917.73 295.374 L1914.75 295.374 L1916.65 287.967 L1916.65 283.985 Z" fill="#000000" fill-rule="nonzero" fill-opacity="1" /><path clip-path="url(#clip440)" d="M1971.76 257.967 L1971.76 262.897 Q1969.4 260.698 1966.72 259.61 Q1964.05 258.522 1961.04 258.522 Q1955.12 258.522 1951.97 262.156 Q1948.82 265.768 1948.82 272.619 Q1948.82 279.448 1951.97 283.082 Q1955.12 286.693 1961.04 286.693 Q1964.05 286.693 1966.72 285.605 Q1969.4 284.517 1971.76 282.318 L1971.76 287.203 Q1969.31 288.869 1966.55 289.703 Q1963.82 290.536 1960.77 290.536 Q1952.92 290.536 1948.41 285.744 Q1943.89 280.93 1943.89 272.619 Q1943.89 264.286 1948.41 259.494 Q1952.92 254.68 1960.77 254.68 Q1963.87 254.68 1966.6 255.513 Q1969.35 256.323 1971.76 257.967 Z" fill="#000000" fill-rule="nonzero" fill-opacity="1" /><path clip-path="url(#clip440)" d="M1976.95 263.939 L1997.18 263.939 L1997.18 267.828 L1981.16 286.462 L1997.18 286.462 L1997.18 289.865 L1976.37 289.865 L1976.37 285.976 L1992.39 267.342 L1976.95 267.342 L1976.95 263.939 Z" fill="#000000" fill-rule="nonzero" fill-opacity="1" /><path clip-path="url(#clip440)" d="M2025.86 275.837 L2025.86 277.92 L2006.28 277.92 Q2006.55 282.318 2008.91 284.633 Q2011.3 286.925 2015.53 286.925 Q2017.99 286.925 2020.28 286.323 Q2022.59 285.721 2024.86 284.517 L2024.86 288.545 Q2022.57 289.517 2020.16 290.027 Q2017.76 290.536 2015.28 290.536 Q2009.08 290.536 2005.44 286.925 Q2001.83 283.314 2001.83 277.156 Q2001.83 270.791 2005.26 267.064 Q2008.71 263.314 2014.54 263.314 Q2019.77 263.314 2022.8 266.693 Q2025.86 270.05 2025.86 275.837 M2021.6 274.587 Q2021.55 271.092 2019.63 269.008 Q2017.73 266.925 2014.59 266.925 Q2011.02 266.925 2008.87 268.939 Q2006.74 270.953 2006.41 274.61 L2021.6 274.587 Z" fill="#000000" fill-rule="nonzero" fill-opacity="1" /><path clip-path="url(#clip440)" d="M2051.46 276.925 Q2051.46 272.226 2049.52 269.564 Q2047.59 266.879 2044.21 266.879 Q2040.84 266.879 2038.89 269.564 Q2036.97 272.226 2036.97 276.925 Q2036.97 281.624 2038.89 284.309 Q2040.84 286.971 2044.21 286.971 Q2047.59 286.971 2049.52 284.309 Q2051.46 281.624 2051.46 276.925 M2036.97 267.874 Q2038.31 265.559 2040.35 264.448 Q2042.41 263.314 2045.26 263.314 Q2049.98 263.314 2052.92 267.064 Q2055.88 270.814 2055.88 276.925 Q2055.88 283.036 2052.92 286.786 Q2049.98 290.536 2045.26 290.536 Q2042.41 290.536 2040.35 289.425 Q2038.31 288.291 2036.97 285.976 L2036.97 289.865 L2032.69 289.865 L2032.69 253.846 L2036.97 253.846 L2036.97 267.874 Z" fill="#000000" fill-rule="nonzero" fill-opacity="1" /><path clip-path="url(#clip440)" d="M2073.73 292.272 Q2071.92 296.902 2070.21 298.314 Q2068.5 299.726 2065.63 299.726 L2062.22 299.726 L2062.22 296.161 L2064.72 296.161 Q2066.48 296.161 2067.46 295.328 Q2068.43 294.494 2069.61 291.392 L2070.37 289.448 L2059.89 263.939 L2064.4 263.939 L2072.5 284.217 L2080.6 263.939 L2085.12 263.939 L2073.73 292.272 Z" fill="#000000" fill-rule="nonzero" fill-opacity="1" /><path clip-path="url(#clip440)" d="M2107.52 264.703 L2107.52 268.731 Q2105.72 267.805 2103.77 267.342 Q2101.83 266.879 2099.75 266.879 Q2096.58 266.879 2094.98 267.851 Q2093.4 268.823 2093.4 270.768 Q2093.4 272.249 2094.54 273.105 Q2095.67 273.939 2099.1 274.703 L2100.56 275.027 Q2105.09 275.999 2106.99 277.781 Q2108.91 279.541 2108.91 282.712 Q2108.91 286.323 2106.04 288.429 Q2103.2 290.536 2098.2 290.536 Q2096.11 290.536 2093.84 290.119 Q2091.6 289.726 2089.1 288.916 L2089.1 284.517 Q2091.46 285.744 2093.75 286.369 Q2096.04 286.971 2098.29 286.971 Q2101.3 286.971 2102.92 285.953 Q2104.54 284.911 2104.54 283.036 Q2104.54 281.3 2103.36 280.374 Q2102.2 279.448 2098.24 278.592 L2096.76 278.244 Q2092.8 277.411 2091.04 275.698 Q2089.28 273.962 2089.28 270.953 Q2089.28 267.295 2091.88 265.305 Q2094.47 263.314 2099.24 263.314 Q2101.6 263.314 2103.68 263.661 Q2105.77 264.008 2107.52 264.703 Z" fill="#000000" fill-rule="nonzero" fill-opacity="1" /><path clip-path="url(#clip440)" d="M2113.84 263.939 L2134.08 263.939 L2134.08 267.828 L2118.06 286.462 L2134.08 286.462 L2134.08 289.865 L2113.27 289.865 L2113.27 285.976 L2129.28 267.342 L2113.84 267.342 L2113.84 263.939 Z" fill="#000000" fill-rule="nonzero" fill-opacity="1" /><path clip-path="url(#clip440)" d="M2162.76 275.837 L2162.76 277.92 L2143.17 277.92 Q2143.45 282.318 2145.81 284.633 Q2148.2 286.925 2152.43 286.925 Q2154.89 286.925 2157.18 286.323 Q2159.49 285.721 2161.76 284.517 L2161.76 288.545 Q2159.47 289.517 2157.06 290.027 Q2154.65 290.536 2152.18 290.536 Q2145.97 290.536 2142.34 286.925 Q2138.73 283.314 2138.73 277.156 Q2138.73 270.791 2142.15 267.064 Q2145.6 263.314 2151.44 263.314 Q2156.67 263.314 2159.7 266.693 Q2162.76 270.05 2162.76 275.837 M2158.5 274.587 Q2158.45 271.092 2156.53 269.008 Q2154.63 266.925 2151.48 266.925 Q2147.92 266.925 2145.77 268.939 Q2143.64 270.953 2143.31 274.61 L2158.5 274.587 Z" fill="#000000" fill-rule="nonzero" fill-opacity="1" /><path clip-path="url(#clip440)" d="M2167.27 263.939 L2171.53 263.939 L2176.85 284.17 L2182.15 263.939 L2187.18 263.939 L2192.5 284.17 L2197.8 263.939 L2202.06 263.939 L2195.28 289.865 L2190.26 289.865 L2184.68 268.615 L2179.08 289.865 L2174.05 289.865 L2167.27 263.939 Z" fill="#000000" fill-rule="nonzero" fill-opacity="1" /><path clip-path="url(#clip440)" d="M2220.3 276.832 Q2215.14 276.832 2213.15 278.013 Q2211.16 279.193 2211.16 282.041 Q2211.16 284.309 2212.64 285.652 Q2214.14 286.971 2216.71 286.971 Q2220.26 286.971 2222.39 284.471 Q2224.54 281.948 2224.54 277.781 L2224.54 276.832 L2220.3 276.832 M2228.8 275.073 L2228.8 289.865 L2224.54 289.865 L2224.54 285.929 Q2223.08 288.291 2220.9 289.425 Q2218.73 290.536 2215.58 290.536 Q2211.6 290.536 2209.24 288.314 Q2206.9 286.068 2206.9 282.318 Q2206.9 277.943 2209.82 275.721 Q2212.76 273.499 2218.57 273.499 L2224.54 273.499 L2224.54 273.082 Q2224.54 270.143 2222.59 268.545 Q2220.67 266.925 2217.18 266.925 Q2214.95 266.925 2212.85 267.457 Q2210.74 267.99 2208.8 269.055 L2208.8 265.119 Q2211.14 264.217 2213.33 263.777 Q2215.53 263.314 2217.62 263.314 Q2223.24 263.314 2226.02 266.231 Q2228.8 269.147 2228.8 275.073 Z" fill="#000000" fill-rule="nonzero" fill-opacity="1" /><polyline clip-path="url(#clip440)" style="stroke:#3da44d; stroke-linecap:round; stroke-linejoin:round; stroke-width:4; stroke-opacity:1; fill:none" points="1619.77,324.425 1761.68,324.425 "/>
<path clip-path="url(#clip440)" d="M1807.04 326.057 L1807.04 341.705 L1802.78 341.705 L1802.78 326.195 Q1802.78 322.515 1801.35 320.686 Q1799.91 318.858 1797.04 318.858 Q1793.59 318.858 1791.6 321.057 Q1789.61 323.256 1789.61 327.052 L1789.61 341.705 L1785.33 341.705 L1785.33 315.779 L1789.61 315.779 L1789.61 319.807 Q1791.14 317.469 1793.2 316.311 Q1795.28 315.154 1797.99 315.154 Q1802.46 315.154 1804.75 317.932 Q1807.04 320.686 1807.04 326.057 Z" fill="#000000" fill-rule="nonzero" fill-opacity="1" /><path clip-path="url(#clip440)" d="M1831.16 320.177 L1860.84 320.177 L1860.84 324.066 L1831.16 324.066 L1831.16 320.177 M1831.16 329.621 L1860.84 329.621 L1860.84 333.557 L1831.16 333.557 L1831.16 329.621 Z" fill="#000000" fill-rule="nonzero" fill-opacity="1" /><path clip-path="url(#clip440)" d="M1896 325.293 Q1892.66 325.293 1890.74 327.075 Q1888.85 328.857 1888.85 331.982 Q1888.85 335.107 1890.74 336.89 Q1892.66 338.672 1896 338.672 Q1899.33 338.672 1901.25 336.89 Q1903.17 335.084 1903.17 331.982 Q1903.17 328.857 1901.25 327.075 Q1899.35 325.293 1896 325.293 M1891.32 323.302 Q1888.31 322.561 1886.62 320.501 Q1884.96 318.441 1884.96 315.478 Q1884.96 311.334 1887.9 308.927 Q1890.86 306.52 1896 306.52 Q1901.16 306.52 1904.1 308.927 Q1907.04 311.334 1907.04 315.478 Q1907.04 318.441 1905.35 320.501 Q1903.68 322.561 1900.7 323.302 Q1904.08 324.089 1905.95 326.381 Q1907.85 328.672 1907.85 331.982 Q1907.85 337.006 1904.77 339.691 Q1901.72 342.376 1896 342.376 Q1890.28 342.376 1887.2 339.691 Q1884.15 337.006 1884.15 331.982 Q1884.15 328.672 1886.04 326.381 Q1887.94 324.089 1891.32 323.302 M1889.61 315.918 Q1889.61 318.603 1891.28 320.108 Q1892.97 321.612 1896 321.612 Q1899.01 321.612 1900.7 320.108 Q1902.41 318.603 1902.41 315.918 Q1902.41 313.233 1900.7 311.728 Q1899.01 310.223 1896 310.223 Q1892.97 310.223 1891.28 311.728 Q1889.61 313.233 1889.61 315.918 Z" fill="#000000" fill-rule="nonzero" fill-opacity="1" /><path clip-path="url(#clip440)" d="M1916.65 335.825 L1921.53 335.825 L1921.53 339.807 L1917.73 347.214 L1914.75 347.214 L1916.65 339.807 L1916.65 335.825 Z" fill="#000000" fill-rule="nonzero" fill-opacity="1" /><path clip-path="url(#clip440)" d="M1960.72 319.76 Q1960 319.344 1959.15 319.158 Q1958.31 318.95 1957.29 318.95 Q1953.68 318.95 1951.74 321.311 Q1949.82 323.649 1949.82 328.047 L1949.82 341.705 L1945.53 341.705 L1945.53 315.779 L1949.82 315.779 L1949.82 319.807 Q1951.16 317.446 1953.31 316.311 Q1955.47 315.154 1958.54 315.154 Q1958.98 315.154 1959.52 315.223 Q1960.05 315.27 1960.7 315.385 L1960.72 319.76 Z" fill="#000000" fill-rule="nonzero" fill-opacity="1" /><path clip-path="url(#clip440)" d="M1974.19 318.765 Q1970.77 318.765 1968.78 321.45 Q1966.78 324.112 1966.78 328.765 Q1966.78 333.418 1968.75 336.103 Q1970.74 338.765 1974.19 338.765 Q1977.59 338.765 1979.59 336.08 Q1981.58 333.395 1981.58 328.765 Q1981.58 324.158 1979.59 321.473 Q1977.59 318.765 1974.19 318.765 M1974.19 315.154 Q1979.75 315.154 1982.92 318.765 Q1986.09 322.376 1986.09 328.765 Q1986.09 335.131 1982.92 338.765 Q1979.75 342.376 1974.19 342.376 Q1968.61 342.376 1965.44 338.765 Q1962.29 335.131 1962.29 328.765 Q1962.29 322.376 1965.44 318.765 Q1968.61 315.154 1974.19 315.154 M1977.41 303.788 L1982.02 303.788 L1974.47 312.492 L1970.93 312.492 L1977.41 303.788 Z" fill="#000000" fill-rule="nonzero" fill-opacity="1" /><path clip-path="url(#clip440)" d="M1990.67 315.779 L1994.93 315.779 L2000.26 336.01 L2005.56 315.779 L2010.58 315.779 L2015.9 336.01 L2021.21 315.779 L2025.46 315.779 L2018.68 341.705 L2013.66 341.705 L2008.08 320.455 L2002.48 341.705 L1997.46 341.705 L1990.67 315.779 Z" fill="#000000" fill-rule="nonzero" fill-opacity="1" /><path clip-path="url(#clip440)" d="M2053.47 326.057 L2053.47 341.705 L2049.21 341.705 L2049.21 326.195 Q2049.21 322.515 2047.78 320.686 Q2046.34 318.858 2043.47 318.858 Q2040.03 318.858 2038.03 321.057 Q2036.04 323.256 2036.04 327.052 L2036.04 341.705 L2031.76 341.705 L2031.76 315.779 L2036.04 315.779 L2036.04 319.807 Q2037.57 317.469 2039.63 316.311 Q2041.71 315.154 2044.42 315.154 Q2048.89 315.154 2051.18 317.932 Q2053.47 320.686 2053.47 326.057 Z" fill="#000000" fill-rule="nonzero" fill-opacity="1" /><path clip-path="url(#clip440)" d="M2072.02 318.765 Q2068.59 318.765 2066.6 321.45 Q2064.61 324.112 2064.61 328.765 Q2064.61 333.418 2066.58 336.103 Q2068.57 338.765 2072.02 338.765 Q2075.42 338.765 2077.41 336.08 Q2079.4 333.395 2079.4 328.765 Q2079.4 324.158 2077.41 321.473 Q2075.42 318.765 2072.02 318.765 M2072.02 315.154 Q2077.57 315.154 2080.74 318.765 Q2083.91 322.376 2083.91 328.765 Q2083.91 335.131 2080.74 338.765 Q2077.57 342.376 2072.02 342.376 Q2066.44 342.376 2063.27 338.765 Q2060.12 335.131 2060.12 328.765 Q2060.12 322.376 2063.27 318.765 Q2066.44 315.154 2072.02 315.154 Z" fill="#000000" fill-rule="nonzero" fill-opacity="1" /><path clip-path="url(#clip440)" d="M2101.02 318.765 Q2097.59 318.765 2095.6 321.45 Q2093.61 324.112 2093.61 328.765 Q2093.61 333.418 2095.58 336.103 Q2097.57 338.765 2101.02 338.765 Q2104.42 338.765 2106.41 336.08 Q2108.4 333.395 2108.4 328.765 Q2108.4 324.158 2106.41 321.473 Q2104.42 318.765 2101.02 318.765 M2101.02 315.154 Q2106.58 315.154 2109.75 318.765 Q2112.92 322.376 2112.92 328.765 Q2112.92 335.131 2109.75 338.765 Q2106.58 342.376 2101.02 342.376 Q2095.44 342.376 2092.27 338.765 Q2089.12 335.131 2089.12 328.765 Q2089.12 322.376 2092.27 318.765 Q2095.44 315.154 2101.02 315.154 Z" fill="#000000" fill-rule="nonzero" fill-opacity="1" /><path clip-path="url(#clip440)" d="M2137.04 319.714 L2137.04 305.686 L2141.3 305.686 L2141.3 341.705 L2137.04 341.705 L2137.04 337.816 Q2135.7 340.131 2133.64 341.265 Q2131.6 342.376 2128.73 342.376 Q2124.03 342.376 2121.07 338.626 Q2118.13 334.876 2118.13 328.765 Q2118.13 322.654 2121.07 318.904 Q2124.03 315.154 2128.73 315.154 Q2131.6 315.154 2133.64 316.288 Q2135.7 317.399 2137.04 319.714 M2122.52 328.765 Q2122.52 333.464 2124.45 336.149 Q2126.39 338.811 2129.77 338.811 Q2133.15 338.811 2135.09 336.149 Q2137.04 333.464 2137.04 328.765 Q2137.04 324.066 2135.09 321.404 Q2133.15 318.719 2129.77 318.719 Q2126.39 318.719 2124.45 321.404 Q2122.52 324.066 2122.52 328.765 Z" fill="#000000" fill-rule="nonzero" fill-opacity="1" /><path clip-path="url(#clip440)" d="M2150.07 305.686 L2154.33 305.686 L2154.33 341.705 L2150.07 341.705 L2150.07 305.686 Z" fill="#000000" fill-rule="nonzero" fill-opacity="1" /><path clip-path="url(#clip440)" d="M2185.42 327.677 L2185.42 329.76 L2165.83 329.76 Q2166.11 334.158 2168.47 336.473 Q2170.86 338.765 2175.09 338.765 Q2177.55 338.765 2179.84 338.163 Q2182.15 337.561 2184.42 336.357 L2184.42 340.385 Q2182.13 341.357 2179.72 341.867 Q2177.32 342.376 2174.84 342.376 Q2168.64 342.376 2165 338.765 Q2161.39 335.154 2161.39 328.996 Q2161.39 322.631 2164.82 318.904 Q2168.27 315.154 2174.1 315.154 Q2179.33 315.154 2182.36 318.533 Q2185.42 321.89 2185.42 327.677 M2181.16 326.427 Q2181.11 322.932 2179.19 320.848 Q2177.29 318.765 2174.14 318.765 Q2170.58 318.765 2168.43 320.779 Q2166.3 322.793 2165.97 326.45 L2181.16 326.427 Z" fill="#000000" fill-rule="nonzero" fill-opacity="1" /><path clip-path="url(#clip440)" d="M2209.47 328.441 Q2209.47 323.811 2207.55 321.265 Q2205.65 318.719 2202.2 318.719 Q2198.77 318.719 2196.85 321.265 Q2194.95 323.811 2194.95 328.441 Q2194.95 333.047 2196.85 335.594 Q2198.77 338.14 2202.2 338.14 Q2205.65 338.14 2207.55 335.594 Q2209.47 333.047 2209.47 328.441 M2213.73 338.487 Q2213.73 345.107 2210.79 348.325 Q2207.85 351.566 2201.78 351.566 Q2199.54 351.566 2197.55 351.218 Q2195.56 350.894 2193.68 350.2 L2193.68 346.056 Q2195.56 347.075 2197.39 347.561 Q2199.21 348.047 2201.11 348.047 Q2205.3 348.047 2207.39 345.848 Q2209.47 343.672 2209.47 339.251 L2209.47 337.144 Q2208.15 339.436 2206.09 340.57 Q2204.03 341.705 2201.16 341.705 Q2196.39 341.705 2193.47 338.07 Q2190.56 334.436 2190.56 328.441 Q2190.56 322.422 2193.47 318.788 Q2196.39 315.154 2201.16 315.154 Q2204.03 315.154 2206.09 316.288 Q2208.15 317.422 2209.47 319.714 L2209.47 315.779 L2213.73 315.779 L2213.73 338.487 Z" fill="#000000" fill-rule="nonzero" fill-opacity="1" /><path clip-path="url(#clip440)" d="M2222.64 305.686 L2226.9 305.686 L2226.9 319.621 L2229.79 317.538 L2231.55 319.992 L2226.9 323.256 L2226.9 341.705 L2222.64 341.705 L2222.64 326.288 L2219.79 328.325 L2218.08 325.871 L2222.64 322.608 L2222.64 305.686 Z" fill="#000000" fill-rule="nonzero" fill-opacity="1" /><path clip-path="url(#clip440)" d="M2258.15 327.677 L2258.15 329.76 L2238.57 329.76 Q2238.84 334.158 2241.2 336.473 Q2243.59 338.765 2247.82 338.765 Q2250.28 338.765 2252.57 338.163 Q2254.89 337.561 2257.15 336.357 L2257.15 340.385 Q2254.86 341.357 2252.45 341.867 Q2250.05 342.376 2247.57 342.376 Q2241.37 342.376 2237.73 338.765 Q2234.12 335.154 2234.12 328.996 Q2234.12 322.631 2237.55 318.904 Q2241 315.154 2246.83 315.154 Q2252.06 315.154 2255.09 318.533 Q2258.15 321.89 2258.15 327.677 M2253.89 326.427 Q2253.84 322.932 2251.92 320.848 Q2250.02 318.765 2246.88 318.765 Q2243.31 318.765 2241.16 320.779 Q2239.03 322.793 2238.7 326.45 L2253.89 326.427 Z" fill="#000000" fill-rule="nonzero" fill-opacity="1" /><polyline clip-path="url(#clip440)" style="stroke:#c271d2; stroke-linecap:round; stroke-linejoin:round; stroke-width:4; stroke-opacity:1; fill:none" points="1619.77,376.265 1761.68,376.265 "/>
<path clip-path="url(#clip440)" d="M1807.04 377.897 L1807.04 393.545 L1802.78 393.545 L1802.78 378.035 Q1802.78 374.355 1801.35 372.526 Q1799.91 370.698 1797.04 370.698 Q1793.59 370.698 1791.6 372.897 Q1789.61 375.096 1789.61 378.892 L1789.61 393.545 L1785.33 393.545 L1785.33 367.619 L1789.61 367.619 L1789.61 371.647 Q1791.14 369.309 1793.2 368.151 Q1795.28 366.994 1797.99 366.994 Q1802.46 366.994 1804.75 369.772 Q1807.04 372.526 1807.04 377.897 Z" fill="#000000" fill-rule="nonzero" fill-opacity="1" /><path clip-path="url(#clip440)" d="M1831.16 372.017 L1860.84 372.017 L1860.84 375.906 L1831.16 375.906 L1831.16 372.017 M1831.16 381.461 L1860.84 381.461 L1860.84 385.397 L1831.16 385.397 L1831.16 381.461 Z" fill="#000000" fill-rule="nonzero" fill-opacity="1" /><path clip-path="url(#clip440)" d="M1896 377.133 Q1892.66 377.133 1890.74 378.915 Q1888.85 380.697 1888.85 383.822 Q1888.85 386.947 1890.74 388.73 Q1892.66 390.512 1896 390.512 Q1899.33 390.512 1901.25 388.73 Q1903.17 386.924 1903.17 383.822 Q1903.17 380.697 1901.25 378.915 Q1899.35 377.133 1896 377.133 M1891.32 375.142 Q1888.31 374.401 1886.62 372.341 Q1884.96 370.281 1884.96 367.318 Q1884.96 363.174 1887.9 360.767 Q1890.86 358.36 1896 358.36 Q1901.16 358.36 1904.1 360.767 Q1907.04 363.174 1907.04 367.318 Q1907.04 370.281 1905.35 372.341 Q1903.68 374.401 1900.7 375.142 Q1904.08 375.929 1905.95 378.221 Q1907.85 380.512 1907.85 383.822 Q1907.85 388.846 1904.77 391.531 Q1901.72 394.216 1896 394.216 Q1890.28 394.216 1887.2 391.531 Q1884.15 388.846 1884.15 383.822 Q1884.15 380.512 1886.04 378.221 Q1887.94 375.929 1891.32 375.142 M1889.61 367.758 Q1889.61 370.443 1891.28 371.948 Q1892.97 373.452 1896 373.452 Q1899.01 373.452 1900.7 371.948 Q1902.41 370.443 1902.41 367.758 Q1902.41 365.073 1900.7 363.568 Q1899.01 362.063 1896 362.063 Q1892.97 362.063 1891.28 363.568 Q1889.61 365.073 1889.61 367.758 Z" fill="#000000" fill-rule="nonzero" fill-opacity="1" /><path clip-path="url(#clip440)" d="M1916.65 387.665 L1921.53 387.665 L1921.53 391.647 L1917.73 399.054 L1914.75 399.054 L1916.65 391.647 L1916.65 387.665 Z" fill="#000000" fill-rule="nonzero" fill-opacity="1" /><path clip-path="url(#clip440)" d="M1971.76 361.647 L1971.76 366.577 Q1969.4 364.378 1966.72 363.29 Q1964.05 362.202 1961.04 362.202 Q1955.12 362.202 1951.97 365.836 Q1948.82 369.448 1948.82 376.299 Q1948.82 383.128 1951.97 386.762 Q1955.12 390.373 1961.04 390.373 Q1964.05 390.373 1966.72 389.285 Q1969.4 388.197 1971.76 385.998 L1971.76 390.883 Q1969.31 392.549 1966.55 393.383 Q1963.82 394.216 1960.77 394.216 Q1952.92 394.216 1948.41 389.424 Q1943.89 384.61 1943.89 376.299 Q1943.89 367.966 1948.41 363.174 Q1952.92 358.36 1960.77 358.36 Q1963.87 358.36 1966.6 359.193 Q1969.35 360.003 1971.76 361.647 Z" fill="#000000" fill-rule="nonzero" fill-opacity="1" /><path clip-path="url(#clip440)" d="M1976.95 367.619 L1997.18 367.619 L1997.18 371.508 L1981.16 390.142 L1997.18 390.142 L1997.18 393.545 L1976.37 393.545 L1976.37 389.656 L1992.39 371.022 L1976.95 371.022 L1976.95 367.619 Z" fill="#000000" fill-rule="nonzero" fill-opacity="1" /><path clip-path="url(#clip440)" d="M2025.86 379.517 L2025.86 381.6 L2006.28 381.6 Q2006.55 385.998 2008.91 388.313 Q2011.3 390.605 2015.53 390.605 Q2017.99 390.605 2020.28 390.003 Q2022.59 389.401 2024.86 388.197 L2024.86 392.225 Q2022.57 393.197 2020.16 393.707 Q2017.76 394.216 2015.28 394.216 Q2009.08 394.216 2005.44 390.605 Q2001.83 386.994 2001.83 380.836 Q2001.83 374.471 2005.26 370.744 Q2008.71 366.994 2014.54 366.994 Q2019.77 366.994 2022.8 370.373 Q2025.86 373.73 2025.86 379.517 M2021.6 378.267 Q2021.55 374.772 2019.63 372.688 Q2017.73 370.605 2014.59 370.605 Q2011.02 370.605 2008.87 372.619 Q2006.74 374.633 2006.41 378.29 L2021.6 378.267 Z" fill="#000000" fill-rule="nonzero" fill-opacity="1" /><path clip-path="url(#clip440)" d="M2051.46 380.605 Q2051.46 375.906 2049.52 373.244 Q2047.59 370.559 2044.21 370.559 Q2040.84 370.559 2038.89 373.244 Q2036.97 375.906 2036.97 380.605 Q2036.97 385.304 2038.89 387.989 Q2040.84 390.651 2044.21 390.651 Q2047.59 390.651 2049.52 387.989 Q2051.46 385.304 2051.46 380.605 M2036.97 371.554 Q2038.31 369.239 2040.35 368.128 Q2042.41 366.994 2045.26 366.994 Q2049.98 366.994 2052.92 370.744 Q2055.88 374.494 2055.88 380.605 Q2055.88 386.716 2052.92 390.466 Q2049.98 394.216 2045.26 394.216 Q2042.41 394.216 2040.35 393.105 Q2038.31 391.971 2036.97 389.656 L2036.97 393.545 L2032.69 393.545 L2032.69 357.526 L2036.97 357.526 L2036.97 371.554 Z" fill="#000000" fill-rule="nonzero" fill-opacity="1" /><path clip-path="url(#clip440)" d="M2073.73 395.952 Q2071.92 400.582 2070.21 401.994 Q2068.5 403.406 2065.63 403.406 L2062.22 403.406 L2062.22 399.841 L2064.72 399.841 Q2066.48 399.841 2067.46 399.008 Q2068.43 398.174 2069.61 395.072 L2070.37 393.128 L2059.89 367.619 L2064.4 367.619 L2072.5 387.897 L2080.6 367.619 L2085.12 367.619 L2073.73 395.952 Z" fill="#000000" fill-rule="nonzero" fill-opacity="1" /><path clip-path="url(#clip440)" d="M2107.52 368.383 L2107.52 372.411 Q2105.72 371.485 2103.77 371.022 Q2101.83 370.559 2099.75 370.559 Q2096.58 370.559 2094.98 371.531 Q2093.4 372.503 2093.4 374.448 Q2093.4 375.929 2094.54 376.785 Q2095.67 377.619 2099.1 378.383 L2100.56 378.707 Q2105.09 379.679 2106.99 381.461 Q2108.91 383.221 2108.91 386.392 Q2108.91 390.003 2106.04 392.109 Q2103.2 394.216 2098.2 394.216 Q2096.11 394.216 2093.84 393.799 Q2091.6 393.406 2089.1 392.596 L2089.1 388.197 Q2091.46 389.424 2093.75 390.049 Q2096.04 390.651 2098.29 390.651 Q2101.3 390.651 2102.92 389.633 Q2104.54 388.591 2104.54 386.716 Q2104.54 384.98 2103.36 384.054 Q2102.2 383.128 2098.24 382.272 L2096.76 381.924 Q2092.8 381.091 2091.04 379.378 Q2089.28 377.642 2089.28 374.633 Q2089.28 370.975 2091.88 368.985 Q2094.47 366.994 2099.24 366.994 Q2101.6 366.994 2103.68 367.341 Q2105.77 367.688 2107.52 368.383 Z" fill="#000000" fill-rule="nonzero" fill-opacity="1" /><path clip-path="url(#clip440)" d="M2113.84 367.619 L2134.08 367.619 L2134.08 371.508 L2118.06 390.142 L2134.08 390.142 L2134.08 393.545 L2113.27 393.545 L2113.27 389.656 L2129.28 371.022 L2113.84 371.022 L2113.84 367.619 Z" fill="#000000" fill-rule="nonzero" fill-opacity="1" /><path clip-path="url(#clip440)" d="M2162.76 379.517 L2162.76 381.6 L2143.17 381.6 Q2143.45 385.998 2145.81 388.313 Q2148.2 390.605 2152.43 390.605 Q2154.89 390.605 2157.18 390.003 Q2159.49 389.401 2161.76 388.197 L2161.76 392.225 Q2159.47 393.197 2157.06 393.707 Q2154.65 394.216 2152.18 394.216 Q2145.97 394.216 2142.34 390.605 Q2138.73 386.994 2138.73 380.836 Q2138.73 374.471 2142.15 370.744 Q2145.6 366.994 2151.44 366.994 Q2156.67 366.994 2159.7 370.373 Q2162.76 373.73 2162.76 379.517 M2158.5 378.267 Q2158.45 374.772 2156.53 372.688 Q2154.63 370.605 2151.48 370.605 Q2147.92 370.605 2145.77 372.619 Q2143.64 374.633 2143.31 378.29 L2158.5 378.267 Z" fill="#000000" fill-rule="nonzero" fill-opacity="1" /><path clip-path="url(#clip440)" d="M2167.27 367.619 L2171.53 367.619 L2176.85 387.85 L2182.15 367.619 L2187.18 367.619 L2192.5 387.85 L2197.8 367.619 L2202.06 367.619 L2195.28 393.545 L2190.26 393.545 L2184.68 372.295 L2179.08 393.545 L2174.05 393.545 L2167.27 367.619 Z" fill="#000000" fill-rule="nonzero" fill-opacity="1" /><path clip-path="url(#clip440)" d="M2220.3 380.512 Q2215.14 380.512 2213.15 381.693 Q2211.16 382.873 2211.16 385.721 Q2211.16 387.989 2212.64 389.332 Q2214.14 390.651 2216.71 390.651 Q2220.26 390.651 2222.39 388.151 Q2224.54 385.628 2224.54 381.461 L2224.54 380.512 L2220.3 380.512 M2228.8 378.753 L2228.8 393.545 L2224.54 393.545 L2224.54 389.609 Q2223.08 391.971 2220.9 393.105 Q2218.73 394.216 2215.58 394.216 Q2211.6 394.216 2209.24 391.994 Q2206.9 389.748 2206.9 385.998 Q2206.9 381.623 2209.82 379.401 Q2212.76 377.179 2218.57 377.179 L2224.54 377.179 L2224.54 376.762 Q2224.54 373.823 2222.59 372.225 Q2220.67 370.605 2217.18 370.605 Q2214.95 370.605 2212.85 371.137 Q2210.74 371.67 2208.8 372.735 L2208.8 368.799 Q2211.14 367.897 2213.33 367.457 Q2215.53 366.994 2217.62 366.994 Q2223.24 366.994 2226.02 369.911 Q2228.8 372.827 2228.8 378.753 Z" fill="#000000" fill-rule="nonzero" fill-opacity="1" /></svg>
