<?xml version="1.0" encoding="utf-8"?>
<svg xmlns="http://www.w3.org/2000/svg" xmlns:xlink="http://www.w3.org/1999/xlink" width="600" height="400" viewBox="0 0 2400 1600">
<defs>
  <clipPath id="clip480">
    <rect x="0" y="0" width="2400" height="1600"/>
  </clipPath>
</defs>
<path clip-path="url(#clip480)" d="M0 1600 L2400 1600 L2400 0 L0 0  Z" fill="#ffffff" fill-rule="evenodd" fill-opacity="1"/>
<defs>
  <clipPath id="clip481">
    <rect x="480" y="0" width="1681" height="1600"/>
  </clipPath>
</defs>
<path clip-path="url(#clip480)" d="M192.941 1486.45 L2352.76 1486.45 L2352.76 47.2441 L192.941 47.2441  Z" fill="#ffffff" fill-rule="evenodd" fill-opacity="1"/>
<defs>
  <clipPath id="clip482">
    <rect x="192" y="47" width="2161" height="1440"/>
  </clipPath>
</defs>
<polyline clip-path="url(#clip482)" style="stroke:#000000; stroke-linecap:round; stroke-linejoin:round; stroke-width:2; stroke-opacity:0.1; fill:none" points="447.037,1486.45 447.037,47.2441 "/>
<polyline clip-path="url(#clip482)" style="stroke:#000000; stroke-linecap:round; stroke-linejoin:round; stroke-width:2; stroke-opacity:0.1; fill:none" points="1082.28,1486.45 1082.28,47.2441 "/>
<polyline clip-path="url(#clip482)" style="stroke:#000000; stroke-linecap:round; stroke-linejoin:round; stroke-width:2; stroke-opacity:0.1; fill:none" points="1717.52,1486.45 1717.52,47.2441 "/>
<polyline clip-path="url(#clip482)" style="stroke:#000000; stroke-linecap:round; stroke-linejoin:round; stroke-width:2; stroke-opacity:0.1; fill:none" points="2352.76,1486.45 2352.76,47.2441 "/>
<polyline clip-path="url(#clip480)" style="stroke:#000000; stroke-linecap:round; stroke-linejoin:round; stroke-width:4; stroke-opacity:1; fill:none" points="192.941,1486.45 2352.76,1486.45 "/>
<polyline clip-path="url(#clip480)" style="stroke:#000000; stroke-linecap:round; stroke-linejoin:round; stroke-width:4; stroke-opacity:1; fill:none" points="447.037,1486.45 447.037,1467.55 "/>
<polyline clip-path="url(#clip480)" style="stroke:#000000; stroke-linecap:round; stroke-linejoin:round; stroke-width:4; stroke-opacity:1; fill:none" points="1082.28,1486.45 1082.28,1467.55 "/>
<polyline clip-path="url(#clip480)" style="stroke:#000000; stroke-linecap:round; stroke-linejoin:round; stroke-width:4; stroke-opacity:1; fill:none" points="1717.52,1486.45 1717.52,1467.55 "/>
<polyline clip-path="url(#clip480)" style="stroke:#000000; stroke-linecap:round; stroke-linejoin:round; stroke-width:4; stroke-opacity:1; fill:none" points="2352.76,1486.45 2352.76,1467.55 "/>
<path clip-path="url(#clip480)" d="M414.19 1544.91 L421.828 1544.91 L421.828 1518.55 L413.518 1520.21 L413.518 1515.95 L421.782 1514.29 L426.458 1514.29 L426.458 1544.91 L434.097 1544.91 L434.097 1548.85 L414.19 1548.85 L414.19 1544.91 Z" fill="#000000" fill-rule="nonzero" fill-opacity="1" /><path clip-path="url(#clip480)" d="M443.541 1542.97 L448.425 1542.97 L448.425 1548.85 L443.541 1548.85 L443.541 1542.97 Z" fill="#000000" fill-rule="nonzero" fill-opacity="1" /><path clip-path="url(#clip480)" d="M468.611 1517.37 Q464.999 1517.37 463.171 1520.93 Q461.365 1524.47 461.365 1531.6 Q461.365 1538.71 463.171 1542.27 Q464.999 1545.82 468.611 1545.82 Q472.245 1545.82 474.05 1542.27 Q475.879 1538.71 475.879 1531.6 Q475.879 1524.47 474.05 1520.93 Q472.245 1517.37 468.611 1517.37 M468.611 1513.66 Q474.421 1513.66 477.476 1518.27 Q480.555 1522.85 480.555 1531.6 Q480.555 1540.33 477.476 1544.94 Q474.421 1549.52 468.611 1549.52 Q462.8 1549.52 459.722 1544.94 Q456.666 1540.33 456.666 1531.6 Q456.666 1522.85 459.722 1518.27 Q462.8 1513.66 468.611 1513.66 Z" fill="#000000" fill-rule="nonzero" fill-opacity="1" /><path clip-path="url(#clip480)" d="M1049.93 1544.91 L1057.57 1544.91 L1057.57 1518.55 L1049.26 1520.21 L1049.26 1515.95 L1057.52 1514.29 L1062.2 1514.29 L1062.2 1544.91 L1069.83 1544.91 L1069.83 1548.85 L1049.93 1548.85 L1049.93 1544.91 Z" fill="#000000" fill-rule="nonzero" fill-opacity="1" /><path clip-path="url(#clip480)" d="M1079.28 1542.97 L1084.16 1542.97 L1084.16 1548.85 L1079.28 1548.85 L1079.28 1542.97 Z" fill="#000000" fill-rule="nonzero" fill-opacity="1" /><path clip-path="url(#clip480)" d="M1094.39 1514.29 L1112.75 1514.29 L1112.75 1518.22 L1098.68 1518.22 L1098.68 1526.7 Q1099.7 1526.35 1100.71 1526.19 Q1101.73 1526 1102.75 1526 Q1108.54 1526 1111.92 1529.17 Q1115.3 1532.34 1115.3 1537.76 Q1115.3 1543.34 1111.82 1546.44 Q1108.35 1549.52 1102.03 1549.52 Q1099.86 1549.52 1097.59 1549.15 Q1095.34 1548.78 1092.94 1548.04 L1092.94 1543.34 Q1095.02 1544.47 1097.24 1545.03 Q1099.46 1545.58 1101.94 1545.58 Q1105.95 1545.58 1108.28 1543.48 Q1110.62 1541.37 1110.62 1537.76 Q1110.62 1534.15 1108.28 1532.04 Q1105.95 1529.94 1101.94 1529.94 Q1100.07 1529.94 1098.19 1530.35 Q1096.34 1530.77 1094.39 1531.65 L1094.39 1514.29 Z" fill="#000000" fill-rule="nonzero" fill-opacity="1" /><path clip-path="url(#clip480)" d="M1688.75 1544.91 L1705.07 1544.91 L1705.07 1548.85 L1683.13 1548.85 L1683.13 1544.91 Q1685.79 1542.16 1690.38 1537.53 Q1694.98 1532.88 1696.16 1531.53 Q1698.41 1529.01 1699.29 1527.27 Q1700.19 1525.51 1700.19 1523.82 Q1700.19 1521.07 1698.25 1519.33 Q1696.32 1517.6 1693.22 1517.6 Q1691.02 1517.6 1688.57 1518.36 Q1686.14 1519.13 1683.36 1520.68 L1683.36 1515.95 Q1686.19 1514.82 1688.64 1514.24 Q1691.09 1513.66 1693.13 1513.66 Q1698.5 1513.66 1701.69 1516.35 Q1704.89 1519.03 1704.89 1523.52 Q1704.89 1525.65 1704.08 1527.57 Q1703.29 1529.47 1701.19 1532.07 Q1700.61 1532.74 1697.5 1535.95 Q1694.4 1539.15 1688.75 1544.91 Z" fill="#000000" fill-rule="nonzero" fill-opacity="1" /><path clip-path="url(#clip480)" d="M1714.89 1542.97 L1719.77 1542.97 L1719.77 1548.85 L1714.89 1548.85 L1714.89 1542.97 Z" fill="#000000" fill-rule="nonzero" fill-opacity="1" /><path clip-path="url(#clip480)" d="M1739.96 1517.37 Q1736.35 1517.37 1734.52 1520.93 Q1732.71 1524.47 1732.71 1531.6 Q1732.71 1538.71 1734.52 1542.27 Q1736.35 1545.82 1739.96 1545.82 Q1743.59 1545.82 1745.4 1542.27 Q1747.23 1538.71 1747.23 1531.6 Q1747.23 1524.47 1745.4 1520.93 Q1743.59 1517.37 1739.96 1517.37 M1739.96 1513.66 Q1745.77 1513.66 1748.82 1518.27 Q1751.9 1522.85 1751.9 1531.6 Q1751.9 1540.33 1748.82 1544.94 Q1745.77 1549.52 1739.96 1549.52 Q1734.15 1549.52 1731.07 1544.94 Q1728.01 1540.33 1728.01 1531.6 Q1728.01 1522.85 1731.07 1518.27 Q1734.15 1513.66 1739.96 1513.66 Z" fill="#000000" fill-rule="nonzero" fill-opacity="1" /><path clip-path="url(#clip480)" d="M2324.49 1544.91 L2340.81 1544.91 L2340.81 1548.85 L2318.87 1548.85 L2318.87 1544.91 Q2321.53 1542.16 2326.11 1537.53 Q2330.72 1532.88 2331.9 1531.53 Q2334.14 1529.01 2335.02 1527.27 Q2335.93 1525.51 2335.93 1523.82 Q2335.93 1521.07 2333.98 1519.33 Q2332.06 1517.6 2328.96 1517.6 Q2326.76 1517.6 2324.31 1518.36 Q2321.88 1519.13 2319.1 1520.68 L2319.1 1515.95 Q2321.92 1514.82 2324.38 1514.24 Q2326.83 1513.66 2328.87 1513.66 Q2334.24 1513.66 2337.43 1516.35 Q2340.63 1519.03 2340.63 1523.52 Q2340.63 1525.65 2339.82 1527.57 Q2339.03 1529.47 2336.92 1532.07 Q2336.34 1532.74 2333.24 1535.95 Q2330.14 1539.15 2324.49 1544.91 Z" fill="#000000" fill-rule="nonzero" fill-opacity="1" /><path clip-path="url(#clip480)" d="M2350.63 1542.97 L2355.51 1542.97 L2355.51 1548.85 L2350.63 1548.85 L2350.63 1542.97 Z" fill="#000000" fill-rule="nonzero" fill-opacity="1" /><path clip-path="url(#clip480)" d="M2365.74 1514.29 L2384.1 1514.29 L2384.1 1518.22 L2370.02 1518.22 L2370.02 1526.7 Q2371.04 1526.35 2372.06 1526.19 Q2373.08 1526 2374.1 1526 Q2379.89 1526 2383.27 1529.17 Q2386.64 1532.34 2386.64 1537.76 Q2386.64 1543.34 2383.17 1546.44 Q2379.7 1549.52 2373.38 1549.52 Q2371.2 1549.52 2368.94 1549.15 Q2366.69 1548.78 2364.28 1548.04 L2364.28 1543.34 Q2366.37 1544.47 2368.59 1545.03 Q2370.81 1545.58 2373.29 1545.58 Q2377.29 1545.58 2379.63 1543.48 Q2381.97 1541.37 2381.97 1537.76 Q2381.97 1534.15 2379.63 1532.04 Q2377.29 1529.94 2373.29 1529.94 Q2371.41 1529.94 2369.54 1530.35 Q2367.69 1530.77 2365.74 1531.65 L2365.74 1514.29 Z" fill="#000000" fill-rule="nonzero" fill-opacity="1" /><polyline clip-path="url(#clip482)" style="stroke:#000000; stroke-linecap:round; stroke-linejoin:round; stroke-width:2; stroke-opacity:0.1; fill:none" points="192.941,1365.38 2352.76,1365.38 "/>
<polyline clip-path="url(#clip482)" style="stroke:#000000; stroke-linecap:round; stroke-linejoin:round; stroke-width:2; stroke-opacity:0.1; fill:none" points="192.941,929.119 2352.76,929.119 "/>
<polyline clip-path="url(#clip482)" style="stroke:#000000; stroke-linecap:round; stroke-linejoin:round; stroke-width:2; stroke-opacity:0.1; fill:none" points="192.941,492.854 2352.76,492.854 "/>
<polyline clip-path="url(#clip482)" style="stroke:#000000; stroke-linecap:round; stroke-linejoin:round; stroke-width:2; stroke-opacity:0.1; fill:none" points="192.941,56.5895 2352.76,56.5895 "/>
<polyline clip-path="url(#clip480)" style="stroke:#000000; stroke-linecap:round; stroke-linejoin:round; stroke-width:4; stroke-opacity:1; fill:none" points="192.941,1486.45 192.941,47.2441 "/>
<polyline clip-path="url(#clip480)" style="stroke:#000000; stroke-linecap:round; stroke-linejoin:round; stroke-width:4; stroke-opacity:1; fill:none" points="192.941,1365.38 211.838,1365.38 "/>
<polyline clip-path="url(#clip480)" style="stroke:#000000; stroke-linecap:round; stroke-linejoin:round; stroke-width:4; stroke-opacity:1; fill:none" points="192.941,929.119 211.838,929.119 "/>
<polyline clip-path="url(#clip480)" style="stroke:#000000; stroke-linecap:round; stroke-linejoin:round; stroke-width:4; stroke-opacity:1; fill:none" points="192.941,492.854 211.838,492.854 "/>
<polyline clip-path="url(#clip480)" style="stroke:#000000; stroke-linecap:round; stroke-linejoin:round; stroke-width:4; stroke-opacity:1; fill:none" points="192.941,56.5895 211.838,56.5895 "/>
<path clip-path="url(#clip480)" d="M50.9921 1365.83 L80.6679 1365.83 L80.6679 1369.77 L50.9921 1369.77 L50.9921 1365.83 Z" fill="#000000" fill-rule="nonzero" fill-opacity="1" /><path clip-path="url(#clip480)" d="M100.76 1351.18 Q97.1493 1351.18 95.3206 1354.75 Q93.515 1358.29 93.515 1365.42 Q93.515 1372.52 95.3206 1376.09 Q97.1493 1379.63 100.76 1379.63 Q104.395 1379.63 106.2 1376.09 Q108.029 1372.52 108.029 1365.42 Q108.029 1358.29 106.2 1354.75 Q104.395 1351.18 100.76 1351.18 M100.76 1347.48 Q106.571 1347.48 109.626 1352.09 Q112.705 1356.67 112.705 1365.42 Q112.705 1374.15 109.626 1378.75 Q106.571 1383.33 100.76 1383.33 Q94.9502 1383.33 91.8715 1378.75 Q88.816 1374.15 88.816 1365.42 Q88.816 1356.67 91.8715 1352.09 Q94.9502 1347.48 100.76 1347.48 Z" fill="#000000" fill-rule="nonzero" fill-opacity="1" /><path clip-path="url(#clip480)" d="M120.922 1376.78 L125.807 1376.78 L125.807 1382.66 L120.922 1382.66 L120.922 1376.78 Z" fill="#000000" fill-rule="nonzero" fill-opacity="1" /><path clip-path="url(#clip480)" d="M136.038 1348.1 L154.394 1348.1 L154.394 1352.04 L140.32 1352.04 L140.32 1360.51 Q141.339 1360.16 142.357 1360 Q143.376 1359.82 144.394 1359.82 Q150.181 1359.82 153.561 1362.99 Q156.941 1366.16 156.941 1371.58 Q156.941 1377.15 153.468 1380.26 Q149.996 1383.33 143.677 1383.33 Q141.501 1383.33 139.232 1382.96 Q136.987 1382.59 134.58 1381.85 L134.58 1377.15 Q136.663 1378.29 138.885 1378.84 Q141.107 1379.4 143.584 1379.4 Q147.589 1379.4 149.927 1377.29 Q152.265 1375.19 152.265 1371.58 Q152.265 1367.96 149.927 1365.86 Q147.589 1363.75 143.584 1363.75 Q141.709 1363.75 139.834 1364.17 Q137.982 1364.58 136.038 1365.46 L136.038 1348.1 Z" fill="#000000" fill-rule="nonzero" fill-opacity="1" /><path clip-path="url(#clip480)" d="M99.765 914.918 Q96.1539 914.918 94.3252 918.482 Q92.5197 922.024 92.5197 929.154 Q92.5197 936.26 94.3252 939.825 Q96.1539 943.367 99.765 943.367 Q103.399 943.367 105.205 939.825 Q107.033 936.26 107.033 929.154 Q107.033 922.024 105.205 918.482 Q103.399 914.918 99.765 914.918 M99.765 911.214 Q105.575 911.214 108.631 915.82 Q111.709 920.404 111.709 929.154 Q111.709 937.88 108.631 942.487 Q105.575 947.07 99.765 947.07 Q93.9549 947.07 90.8762 942.487 Q87.8206 937.88 87.8206 929.154 Q87.8206 920.404 90.8762 915.82 Q93.9549 911.214 99.765 911.214 Z" fill="#000000" fill-rule="nonzero" fill-opacity="1" /><path clip-path="url(#clip480)" d="M119.927 940.519 L124.811 940.519 L124.811 946.399 L119.927 946.399 L119.927 940.519 Z" fill="#000000" fill-rule="nonzero" fill-opacity="1" /><path clip-path="url(#clip480)" d="M144.996 914.918 Q141.385 914.918 139.556 918.482 Q137.751 922.024 137.751 929.154 Q137.751 936.26 139.556 939.825 Q141.385 943.367 144.996 943.367 Q148.63 943.367 150.436 939.825 Q152.265 936.26 152.265 929.154 Q152.265 922.024 150.436 918.482 Q148.63 914.918 144.996 914.918 M144.996 911.214 Q150.806 911.214 153.862 915.82 Q156.941 920.404 156.941 929.154 Q156.941 937.88 153.862 942.487 Q150.806 947.07 144.996 947.07 Q139.186 947.07 136.107 942.487 Q133.052 937.88 133.052 929.154 Q133.052 920.404 136.107 915.82 Q139.186 911.214 144.996 911.214 Z" fill="#000000" fill-rule="nonzero" fill-opacity="1" /><path clip-path="url(#clip480)" d="M100.76 478.653 Q97.1493 478.653 95.3206 482.218 Q93.515 485.759 93.515 492.889 Q93.515 499.995 95.3206 503.56 Q97.1493 507.102 100.76 507.102 Q104.395 507.102 106.2 503.56 Q108.029 499.995 108.029 492.889 Q108.029 485.759 106.2 482.218 Q104.395 478.653 100.76 478.653 M100.76 474.949 Q106.571 474.949 109.626 479.556 Q112.705 484.139 112.705 492.889 Q112.705 501.616 109.626 506.222 Q106.571 510.806 100.76 510.806 Q94.9502 510.806 91.8715 506.222 Q88.816 501.616 88.816 492.889 Q88.816 484.139 91.8715 479.556 Q94.9502 474.949 100.76 474.949 Z" fill="#000000" fill-rule="nonzero" fill-opacity="1" /><path clip-path="url(#clip480)" d="M120.922 504.255 L125.807 504.255 L125.807 510.134 L120.922 510.134 L120.922 504.255 Z" fill="#000000" fill-rule="nonzero" fill-opacity="1" /><path clip-path="url(#clip480)" d="M136.038 475.574 L154.394 475.574 L154.394 479.509 L140.32 479.509 L140.32 487.982 Q141.339 487.634 142.357 487.472 Q143.376 487.287 144.394 487.287 Q150.181 487.287 153.561 490.458 Q156.941 493.63 156.941 499.046 Q156.941 504.625 153.468 507.727 Q149.996 510.806 143.677 510.806 Q141.501 510.806 139.232 510.435 Q136.987 510.065 134.58 509.324 L134.58 504.625 Q136.663 505.759 138.885 506.315 Q141.107 506.87 143.584 506.87 Q147.589 506.87 149.927 504.764 Q152.265 502.657 152.265 499.046 Q152.265 495.435 149.927 493.329 Q147.589 491.222 143.584 491.222 Q141.709 491.222 139.834 491.639 Q137.982 492.056 136.038 492.935 L136.038 475.574 Z" fill="#000000" fill-rule="nonzero" fill-opacity="1" /><path clip-path="url(#clip480)" d="M90.5752 69.9344 L98.2141 69.9344 L98.2141 43.5688 L89.904 45.2354 L89.904 40.9762 L98.1678 39.3095 L102.844 39.3095 L102.844 69.9344 L110.483 69.9344 L110.483 73.8695 L90.5752 73.8695 L90.5752 69.9344 Z" fill="#000000" fill-rule="nonzero" fill-opacity="1" /><path clip-path="url(#clip480)" d="M119.927 67.9899 L124.811 67.9899 L124.811 73.8695 L119.927 73.8695 L119.927 67.9899 Z" fill="#000000" fill-rule="nonzero" fill-opacity="1" /><path clip-path="url(#clip480)" d="M144.996 42.3882 Q141.385 42.3882 139.556 45.953 Q137.751 49.4947 137.751 56.6242 Q137.751 63.7307 139.556 67.2955 Q141.385 70.8371 144.996 70.8371 Q148.63 70.8371 150.436 67.2955 Q152.265 63.7307 152.265 56.6242 Q152.265 49.4947 150.436 45.953 Q148.63 42.3882 144.996 42.3882 M144.996 38.6845 Q150.806 38.6845 153.862 43.291 Q156.941 47.8743 156.941 56.6242 Q156.941 65.3511 153.862 69.9575 Q150.806 74.5408 144.996 74.5408 Q139.186 74.5408 136.107 69.9575 Q133.052 65.3511 133.052 56.6242 Q133.052 47.8743 136.107 43.291 Q139.186 38.6845 144.996 38.6845 Z" fill="#000000" fill-rule="nonzero" fill-opacity="1" /><polyline clip-path="url(#clip482)" style="stroke:#e26f46; stroke-linecap:round; stroke-linejoin:round; stroke-width:4; stroke-opacity:1; fill:none" points="192.941,1415.43 199.971,1416.84 207.002,1418.23 272.012,1429.46 337.022,1437.81 376.09,1441.42 415.158,1443.95 448.19,1445.23 481.221,1445.72 552.985,1444.01 619.144,1439.03 654.609,1435 690.074,1430 731.163,1422.99 772.253,1414.67 808.769,1406.16 845.284,1396.6 877.305,1387.35 909.326,1377.28 944.237,1365.37 979.149,1352.48 1014.27,1338.52 1049.39,1323.57 1088.21,1305.88 1127.04,1286.97 1163.99,1267.84 1200.93,1247.61 1239.34,1225.4 1277.76,1201.99 1310.09,1181.36 1342.43,1159.89 1381.91,1132.53 1421.39,1103.92 1457.55,1076.61 1493.72,1048.26 1560.52,993.174 1628.19,933.798 1666.11,898.968 1704.02,863.031 1738.38,829.517 1772.74,795.108 1812.08,754.623 1851.42,712.987 1887.85,673.421 1924.28,632.89 1960.19,591.997 1996.1,550.189 2030.97,508.731 2065.83,466.432 2101.58,422.209 2137.32,377.126 2176.48,326.763 2215.64,275.402 2272.53,199.052 2329.41,120.694 2341.09,104.376 2352.76,87.9763 "/>
<polyline clip-path="url(#clip482)" style="stroke:#3da44d; stroke-linecap:round; stroke-linejoin:round; stroke-width:4; stroke-opacity:1; fill:none" points="319.989,1435.91 2225.71,262.038 "/>
<polyline clip-path="url(#clip482)" style="stroke:#c271d2; stroke-linecap:round; stroke-linejoin:round; stroke-width:4; stroke-opacity:1; fill:none" stroke-dasharray="16, 10" points="319.989,929.119 319.989,1435.91 "/>
<polyline clip-path="url(#clip482)" style="stroke:#ac8d18; stroke-linecap:round; stroke-linejoin:round; stroke-width:4; stroke-opacity:1; fill:none" stroke-dasharray="16, 10" points="2225.71,929.119 2225.71,262.038 "/>
<circle clip-path="url(#clip482)" cx="319.989" cy="929.119" r="14.4" fill="#00a9ad" fill-rule="evenodd" fill-opacity="1" stroke="#000000" stroke-opacity="1" stroke-width="3.2"/>
<circle clip-path="url(#clip482)" cx="319.989" cy="1435.91" r="14.4" fill="#00a9ad" fill-rule="evenodd" fill-opacity="1" stroke="#000000" stroke-opacity="1" stroke-width="3.2"/>
<circle clip-path="url(#clip482)" cx="2225.71" cy="929.119" r="14.4" fill="#00a9ad" fill-rule="evenodd" fill-opacity="1" stroke="#000000" stroke-opacity="1" stroke-width="3.2"/>
<circle clip-path="url(#clip482)" cx="2225.71" cy="262.038" r="14.4" fill="#00a9ad" fill-rule="evenodd" fill-opacity="1" stroke="#000000" stroke-opacity="1" stroke-width="3.2"/>
<polyline clip-path="url(#clip482)" style="stroke:#ed5d92; stroke-linecap:round; stroke-linejoin:round; stroke-width:4; stroke-opacity:1; fill:none" stroke-dasharray="16, 10" points="1142.73,929.119 1142.73,1278.98 "/>
<polyline clip-path="url(#clip482)" style="stroke:#c68125; stroke-linecap:round; stroke-linejoin:round; stroke-width:4; stroke-opacity:1; fill:none" points="1142.73,1278.98 2225.71,262.038 "/>
<circle clip-path="url(#clip482)" cx="1142.73" cy="929.119" r="14.4" fill="#00a98d" fill-rule="evenodd" fill-opacity="1" stroke="#000000" stroke-opacity="1" stroke-width="3.2"/>
<circle clip-path="url(#clip482)" cx="1142.73" cy="1278.98" r="14.4" fill="#00a98d" fill-rule="evenodd" fill-opacity="1" stroke="#000000" stroke-opacity="1" stroke-width="3.2"/>
<circle clip-path="url(#clip482)" cx="2225.71" cy="929.119" r="14.4" fill="#00a98d" fill-rule="evenodd" fill-opacity="1" stroke="#000000" stroke-opacity="1" stroke-width="3.2"/>
<circle clip-path="url(#clip482)" cx="2225.71" cy="262.038" r="14.4" fill="#00a98d" fill-rule="evenodd" fill-opacity="1" stroke="#000000" stroke-opacity="1" stroke-width="3.2"/>
<polyline clip-path="url(#clip482)" style="stroke:#8e971d; stroke-linecap:round; stroke-linejoin:round; stroke-width:4; stroke-opacity:1; fill:none" stroke-dasharray="16, 10" points="1515.31,929.119 1515.31,1030.84 "/>
<polyline clip-path="url(#clip482)" style="stroke:#00a8cb; stroke-linecap:round; stroke-linejoin:round; stroke-width:4; stroke-opacity:1; fill:none" points="1515.31,1030.84 2225.71,262.038 "/>
<circle clip-path="url(#clip482)" cx="1515.31" cy="929.119" r="14.4" fill="#9b7fe8" fill-rule="evenodd" fill-opacity="1" stroke="#000000" stroke-opacity="1" stroke-width="3.2"/>
<circle clip-path="url(#clip482)" cx="1515.31" cy="1030.84" r="14.4" fill="#9b7fe8" fill-rule="evenodd" fill-opacity="1" stroke="#000000" stroke-opacity="1" stroke-width="3.2"/>
<circle clip-path="url(#clip482)" cx="2225.71" cy="929.119" r="14.4" fill="#9b7fe8" fill-rule="evenodd" fill-opacity="1" stroke="#000000" stroke-opacity="1" stroke-width="3.2"/>
<circle clip-path="url(#clip482)" cx="2225.71" cy="262.038" r="14.4" fill="#9b7fe8" fill-rule="evenodd" fill-opacity="1" stroke="#000000" stroke-opacity="1" stroke-width="3.2"/>
<polyline clip-path="url(#clip482)" style="stroke:#608cf6; stroke-linecap:round; stroke-linejoin:round; stroke-width:4; stroke-opacity:1; fill:none" stroke-dasharray="16, 10" points="1609.31,929.119 1609.31,950.725 "/>
<polyline clip-path="url(#clip482)" style="stroke:#f05f73; stroke-linecap:round; stroke-linejoin:round; stroke-width:4; stroke-opacity:1; fill:none" points="1609.31,950.725 2225.71,262.038 "/>
<circle clip-path="url(#clip482)" cx="1609.31" cy="929.119" r="14.4" fill="#dd64b5" fill-rule="evenodd" fill-opacity="1" stroke="#000000" stroke-opacity="1" stroke-width="3.2"/>
<circle clip-path="url(#clip482)" cx="1609.31" cy="950.725" r="14.4" fill="#dd64b5" fill-rule="evenodd" fill-opacity="1" stroke="#000000" stroke-opacity="1" stroke-width="3.2"/>
<circle clip-path="url(#clip482)" cx="2225.71" cy="929.119" r="14.4" fill="#dd64b5" fill-rule="evenodd" fill-opacity="1" stroke="#000000" stroke-opacity="1" stroke-width="3.2"/>
<circle clip-path="url(#clip482)" cx="2225.71" cy="262.038" r="14.4" fill="#dd64b5" fill-rule="evenodd" fill-opacity="1" stroke="#000000" stroke-opacity="1" stroke-width="3.2"/>
<polyline clip-path="url(#clip482)" style="stroke:#6b9e32; stroke-linecap:round; stroke-linejoin:round; stroke-width:4; stroke-opacity:1; fill:none" stroke-dasharray="16, 10" points="1628.64,929.119 1628.64,933.385 "/>
<polyline clip-path="url(#clip482)" style="stroke:#009af9; stroke-linecap:round; stroke-linejoin:round; stroke-width:4; stroke-opacity:1; fill:none" points="1628.64,933.385 2225.71,262.038 "/>
<circle clip-path="url(#clip482)" cx="1628.64" cy="929.119" r="14.4" fill="#e26f46" fill-rule="evenodd" fill-opacity="1" stroke="#000000" stroke-opacity="1" stroke-width="3.2"/>
<circle clip-path="url(#clip482)" cx="1628.64" cy="933.385" r="14.4" fill="#e26f46" fill-rule="evenodd" fill-opacity="1" stroke="#000000" stroke-opacity="1" stroke-width="3.2"/>
<circle clip-path="url(#clip482)" cx="2225.71" cy="929.119" r="14.4" fill="#e26f46" fill-rule="evenodd" fill-opacity="1" stroke="#000000" stroke-opacity="1" stroke-width="3.2"/>
<circle clip-path="url(#clip482)" cx="2225.71" cy="262.038" r="14.4" fill="#e26f46" fill-rule="evenodd" fill-opacity="1" stroke="#000000" stroke-opacity="1" stroke-width="3.2"/>
</svg>
