<?xml version="1.0" encoding="utf-8"?>
<svg xmlns="http://www.w3.org/2000/svg" xmlns:xlink="http://www.w3.org/1999/xlink" width="600" height="400" viewBox="0 0 2400 1600">
<defs>
  <clipPath id="clip810">
    <rect x="0" y="0" width="2400" height="1600"/>
  </clipPath>
</defs>
<path clip-path="url(#clip810)" d="M0 1600 L2400 1600 L2400 0 L0 0  Z" fill="#ffffff" fill-rule="evenodd" fill-opacity="1"/>
<defs>
  <clipPath id="clip811">
    <rect x="480" y="0" width="1681" height="1600"/>
  </clipPath>
</defs>
<path clip-path="url(#clip810)" d="M192.941 1486.45 L2352.76 1486.45 L2352.76 47.2441 L192.941 47.2441  Z" fill="#ffffff" fill-rule="evenodd" fill-opacity="1"/>
<defs>
  <clipPath id="clip812">
    <rect x="192" y="47" width="2161" height="1440"/>
  </clipPath>
</defs>
<polyline clip-path="url(#clip812)" style="stroke:#000000; stroke-linecap:round; stroke-linejoin:round; stroke-width:2; stroke-opacity:0.1; fill:none" points="192.941,1486.45 192.941,47.2441 "/>
<polyline clip-path="url(#clip812)" style="stroke:#000000; stroke-linecap:round; stroke-linejoin:round; stroke-width:2; stroke-opacity:0.1; fill:none" points="912.879,1486.45 912.879,47.2441 "/>
<polyline clip-path="url(#clip812)" style="stroke:#000000; stroke-linecap:round; stroke-linejoin:round; stroke-width:2; stroke-opacity:0.1; fill:none" points="1632.82,1486.45 1632.82,47.2441 "/>
<polyline clip-path="url(#clip812)" style="stroke:#000000; stroke-linecap:round; stroke-linejoin:round; stroke-width:2; stroke-opacity:0.1; fill:none" points="2352.76,1486.45 2352.76,47.2441 "/>
<polyline clip-path="url(#clip810)" style="stroke:#000000; stroke-linecap:round; stroke-linejoin:round; stroke-width:4; stroke-opacity:1; fill:none" points="192.941,1486.45 2352.76,1486.45 "/>
<polyline clip-path="url(#clip810)" style="stroke:#000000; stroke-linecap:round; stroke-linejoin:round; stroke-width:4; stroke-opacity:1; fill:none" points="192.941,1486.45 192.941,1467.55 "/>
<polyline clip-path="url(#clip810)" style="stroke:#000000; stroke-linecap:round; stroke-linejoin:round; stroke-width:4; stroke-opacity:1; fill:none" points="912.879,1486.45 912.879,1467.55 "/>
<polyline clip-path="url(#clip810)" style="stroke:#000000; stroke-linecap:round; stroke-linejoin:round; stroke-width:4; stroke-opacity:1; fill:none" points="1632.82,1486.45 1632.82,1467.55 "/>
<polyline clip-path="url(#clip810)" style="stroke:#000000; stroke-linecap:round; stroke-linejoin:round; stroke-width:4; stroke-opacity:1; fill:none" points="2352.76,1486.45 2352.76,1467.55 "/>
<path clip-path="url(#clip810)" d="M192.941 1517.37 Q189.33 1517.37 187.501 1520.93 Q185.695 1524.47 185.695 1531.6 Q185.695 1538.71 187.501 1542.27 Q189.33 1545.82 192.941 1545.82 Q196.575 1545.82 198.38 1542.27 Q200.209 1538.71 200.209 1531.6 Q200.209 1524.47 198.38 1520.93 Q196.575 1517.37 192.941 1517.37 M192.941 1513.66 Q198.751 1513.66 201.806 1518.27 Q204.885 1522.85 204.885 1531.6 Q204.885 1540.33 201.806 1544.94 Q198.751 1549.52 192.941 1549.52 Q187.13 1549.52 184.052 1544.94 Q180.996 1540.33 180.996 1531.6 Q180.996 1522.85 184.052 1518.27 Q187.13 1513.66 192.941 1513.66 Z" fill="#000000" fill-rule="nonzero" fill-opacity="1" /><path clip-path="url(#clip810)" d="M903.261 1544.91 L910.9 1544.91 L910.9 1518.55 L902.59 1520.21 L902.59 1515.95 L910.854 1514.29 L915.53 1514.29 L915.53 1544.91 L923.168 1544.91 L923.168 1548.85 L903.261 1548.85 L903.261 1544.91 Z" fill="#000000" fill-rule="nonzero" fill-opacity="1" /><path clip-path="url(#clip810)" d="M1627.47 1544.91 L1643.79 1544.91 L1643.79 1548.85 L1621.85 1548.85 L1621.85 1544.91 Q1624.51 1542.16 1629.09 1537.53 Q1633.7 1532.88 1634.88 1531.53 Q1637.12 1529.01 1638 1527.27 Q1638.91 1525.51 1638.91 1523.82 Q1638.91 1521.07 1636.96 1519.33 Q1635.04 1517.6 1631.94 1517.6 Q1629.74 1517.6 1627.29 1518.36 Q1624.85 1519.13 1622.08 1520.68 L1622.08 1515.95 Q1624.9 1514.82 1627.35 1514.24 Q1629.81 1513.66 1631.85 1513.66 Q1637.22 1513.66 1640.41 1516.35 Q1643.6 1519.03 1643.6 1523.52 Q1643.6 1525.65 1642.79 1527.57 Q1642.01 1529.47 1639.9 1532.07 Q1639.32 1532.74 1636.22 1535.95 Q1633.12 1539.15 1627.47 1544.91 Z" fill="#000000" fill-rule="nonzero" fill-opacity="1" /><path clip-path="url(#clip810)" d="M2357 1530.21 Q2360.36 1530.93 2362.24 1533.2 Q2364.13 1535.47 2364.13 1538.8 Q2364.13 1543.92 2360.61 1546.72 Q2357.1 1549.52 2350.61 1549.52 Q2348.44 1549.52 2346.12 1549.08 Q2343.83 1548.66 2341.38 1547.81 L2341.38 1543.29 Q2343.32 1544.43 2345.64 1545.01 Q2347.95 1545.58 2350.48 1545.58 Q2354.87 1545.58 2357.17 1543.85 Q2359.48 1542.11 2359.48 1538.8 Q2359.48 1535.75 2357.33 1534.03 Q2355.2 1532.3 2351.38 1532.3 L2347.35 1532.3 L2347.35 1528.45 L2351.56 1528.45 Q2355.01 1528.45 2356.84 1527.09 Q2358.67 1525.7 2358.67 1523.11 Q2358.67 1520.45 2356.77 1519.03 Q2354.9 1517.6 2351.38 1517.6 Q2349.46 1517.6 2347.26 1518.01 Q2345.06 1518.43 2342.42 1519.31 L2342.42 1515.14 Q2345.08 1514.4 2347.4 1514.03 Q2349.74 1513.66 2351.8 1513.66 Q2357.12 1513.66 2360.22 1516.09 Q2363.32 1518.5 2363.32 1522.62 Q2363.32 1525.49 2361.68 1527.48 Q2360.04 1529.45 2357 1530.21 Z" fill="#000000" fill-rule="nonzero" fill-opacity="1" /><polyline clip-path="url(#clip812)" style="stroke:#000000; stroke-linecap:round; stroke-linejoin:round; stroke-width:2; stroke-opacity:0.1; fill:none" points="192.941,1400.46 2352.76,1400.46 "/>
<polyline clip-path="url(#clip812)" style="stroke:#000000; stroke-linecap:round; stroke-linejoin:round; stroke-width:2; stroke-opacity:0.1; fill:none" points="192.941,1174.17 2352.76,1174.17 "/>
<polyline clip-path="url(#clip812)" style="stroke:#000000; stroke-linecap:round; stroke-linejoin:round; stroke-width:2; stroke-opacity:0.1; fill:none" points="192.941,947.878 2352.76,947.878 "/>
<polyline clip-path="url(#clip812)" style="stroke:#000000; stroke-linecap:round; stroke-linejoin:round; stroke-width:2; stroke-opacity:0.1; fill:none" points="192.941,721.588 2352.76,721.588 "/>
<polyline clip-path="url(#clip812)" style="stroke:#000000; stroke-linecap:round; stroke-linejoin:round; stroke-width:2; stroke-opacity:0.1; fill:none" points="192.941,495.298 2352.76,495.298 "/>
<polyline clip-path="url(#clip812)" style="stroke:#000000; stroke-linecap:round; stroke-linejoin:round; stroke-width:2; stroke-opacity:0.1; fill:none" points="192.941,269.008 2352.76,269.008 "/>
<polyline clip-path="url(#clip810)" style="stroke:#000000; stroke-linecap:round; stroke-linejoin:round; stroke-width:4; stroke-opacity:1; fill:none" points="192.941,1486.45 192.941,47.2441 "/>
<polyline clip-path="url(#clip810)" style="stroke:#000000; stroke-linecap:round; stroke-linejoin:round; stroke-width:4; stroke-opacity:1; fill:none" points="192.941,1400.46 211.838,1400.46 "/>
<polyline clip-path="url(#clip810)" style="stroke:#000000; stroke-linecap:round; stroke-linejoin:round; stroke-width:4; stroke-opacity:1; fill:none" points="192.941,1174.17 211.838,1174.17 "/>
<polyline clip-path="url(#clip810)" style="stroke:#000000; stroke-linecap:round; stroke-linejoin:round; stroke-width:4; stroke-opacity:1; fill:none" points="192.941,947.878 211.838,947.878 "/>
<polyline clip-path="url(#clip810)" style="stroke:#000000; stroke-linecap:round; stroke-linejoin:round; stroke-width:4; stroke-opacity:1; fill:none" points="192.941,721.588 211.838,721.588 "/>
<polyline clip-path="url(#clip810)" style="stroke:#000000; stroke-linecap:round; stroke-linejoin:round; stroke-width:4; stroke-opacity:1; fill:none" points="192.941,495.298 211.838,495.298 "/>
<polyline clip-path="url(#clip810)" style="stroke:#000000; stroke-linecap:round; stroke-linejoin:round; stroke-width:4; stroke-opacity:1; fill:none" points="192.941,269.008 211.838,269.008 "/>
<path clip-path="url(#clip810)" d="M50.9921 1400.91 L80.6679 1400.91 L80.6679 1404.84 L50.9921 1404.84 L50.9921 1400.91 Z" fill="#000000" fill-rule="nonzero" fill-opacity="1" /><path clip-path="url(#clip810)" d="M94.7882 1413.8 L111.108 1413.8 L111.108 1417.74 L89.1632 1417.74 L89.1632 1413.8 Q91.8252 1411.05 96.4085 1406.42 Q101.015 1401.77 102.196 1400.42 Q104.441 1397.9 105.321 1396.16 Q106.223 1394.4 106.223 1392.71 Q106.223 1389.96 104.279 1388.22 Q102.358 1386.49 99.2558 1386.49 Q97.0567 1386.49 94.603 1387.25 Q92.1725 1388.02 89.3947 1389.57 L89.3947 1384.84 Q92.2188 1383.71 94.6724 1383.13 Q97.1261 1382.55 99.1632 1382.55 Q104.534 1382.55 107.728 1385.24 Q110.922 1387.92 110.922 1392.41 Q110.922 1394.54 110.112 1396.46 Q109.325 1398.36 107.219 1400.96 Q106.64 1401.63 103.538 1404.84 Q100.436 1408.04 94.7882 1413.8 Z" fill="#000000" fill-rule="nonzero" fill-opacity="1" /><path clip-path="url(#clip810)" d="M120.922 1411.86 L125.807 1411.86 L125.807 1417.74 L120.922 1417.74 L120.922 1411.86 Z" fill="#000000" fill-rule="nonzero" fill-opacity="1" /><path clip-path="url(#clip810)" d="M136.038 1383.18 L154.394 1383.18 L154.394 1387.11 L140.32 1387.11 L140.32 1395.59 Q141.339 1395.24 142.357 1395.08 Q143.376 1394.89 144.394 1394.89 Q150.181 1394.89 153.561 1398.06 Q156.941 1401.23 156.941 1406.65 Q156.941 1412.23 153.468 1415.33 Q149.996 1418.41 143.677 1418.41 Q141.501 1418.41 139.232 1418.04 Q136.987 1417.67 134.58 1416.93 L134.58 1412.23 Q136.663 1413.36 138.885 1413.92 Q141.107 1414.47 143.584 1414.47 Q147.589 1414.47 149.927 1412.37 Q152.265 1410.26 152.265 1406.65 Q152.265 1403.04 149.927 1400.93 Q147.589 1398.83 143.584 1398.83 Q141.709 1398.83 139.834 1399.24 Q137.982 1399.66 136.038 1400.54 L136.038 1383.18 Z" fill="#000000" fill-rule="nonzero" fill-opacity="1" /><path clip-path="url(#clip810)" d="M99.765 1159.97 Q96.1539 1159.97 94.3252 1163.53 Q92.5197 1167.07 92.5197 1174.2 Q92.5197 1181.31 94.3252 1184.87 Q96.1539 1188.42 99.765 1188.42 Q103.399 1188.42 105.205 1184.87 Q107.033 1181.31 107.033 1174.2 Q107.033 1167.07 105.205 1163.53 Q103.399 1159.97 99.765 1159.97 M99.765 1156.26 Q105.575 1156.26 108.631 1160.87 Q111.709 1165.45 111.709 1174.2 Q111.709 1182.93 108.631 1187.54 Q105.575 1192.12 99.765 1192.12 Q93.9549 1192.12 90.8762 1187.54 Q87.8206 1182.93 87.8206 1174.2 Q87.8206 1165.45 90.8762 1160.87 Q93.9549 1156.26 99.765 1156.26 Z" fill="#000000" fill-rule="nonzero" fill-opacity="1" /><path clip-path="url(#clip810)" d="M119.927 1185.57 L124.811 1185.57 L124.811 1191.45 L119.927 1191.45 L119.927 1185.57 Z" fill="#000000" fill-rule="nonzero" fill-opacity="1" /><path clip-path="url(#clip810)" d="M144.996 1159.97 Q141.385 1159.97 139.556 1163.53 Q137.751 1167.07 137.751 1174.2 Q137.751 1181.31 139.556 1184.87 Q141.385 1188.42 144.996 1188.42 Q148.63 1188.42 150.436 1184.87 Q152.265 1181.31 152.265 1174.2 Q152.265 1167.07 150.436 1163.53 Q148.63 1159.97 144.996 1159.97 M144.996 1156.26 Q150.806 1156.26 153.862 1160.87 Q156.941 1165.45 156.941 1174.2 Q156.941 1182.93 153.862 1187.54 Q150.806 1192.12 144.996 1192.12 Q139.186 1192.12 136.107 1187.54 Q133.052 1182.93 133.052 1174.2 Q133.052 1165.45 136.107 1160.87 Q139.186 1156.26 144.996 1156.26 Z" fill="#000000" fill-rule="nonzero" fill-opacity="1" /><path clip-path="url(#clip810)" d="M94.7882 961.223 L111.108 961.223 L111.108 965.158 L89.1632 965.158 L89.1632 961.223 Q91.8252 958.468 96.4085 953.839 Q101.015 949.186 102.196 947.843 Q104.441 945.32 105.321 943.584 Q106.223 941.825 106.223 940.135 Q106.223 937.38 104.279 935.644 Q102.358 933.908 99.2558 933.908 Q97.0567 933.908 94.603 934.672 Q92.1725 935.436 89.3947 936.987 L89.3947 932.265 Q92.2188 931.13 94.6724 930.552 Q97.1261 929.973 99.1632 929.973 Q104.534 929.973 107.728 932.658 Q110.922 935.343 110.922 939.834 Q110.922 941.964 110.112 943.885 Q109.325 945.783 107.219 948.376 Q106.64 949.047 103.538 952.264 Q100.436 955.459 94.7882 961.223 Z" fill="#000000" fill-rule="nonzero" fill-opacity="1" /><path clip-path="url(#clip810)" d="M120.922 959.278 L125.807 959.278 L125.807 965.158 L120.922 965.158 L120.922 959.278 Z" fill="#000000" fill-rule="nonzero" fill-opacity="1" /><path clip-path="url(#clip810)" d="M136.038 930.598 L154.394 930.598 L154.394 934.533 L140.32 934.533 L140.32 943.005 Q141.339 942.658 142.357 942.496 Q143.376 942.311 144.394 942.311 Q150.181 942.311 153.561 945.482 Q156.941 948.653 156.941 954.07 Q156.941 959.649 153.468 962.751 Q149.996 965.829 143.677 965.829 Q141.501 965.829 139.232 965.459 Q136.987 965.088 134.58 964.348 L134.58 959.649 Q136.663 960.783 138.885 961.338 Q141.107 961.894 143.584 961.894 Q147.589 961.894 149.927 959.788 Q152.265 957.681 152.265 954.07 Q152.265 950.459 149.927 948.352 Q147.589 946.246 143.584 946.246 Q141.709 946.246 139.834 946.663 Q137.982 947.079 136.038 947.959 L136.038 930.598 Z" fill="#000000" fill-rule="nonzero" fill-opacity="1" /><path clip-path="url(#clip810)" d="M89.8114 704.308 L108.168 704.308 L108.168 708.243 L94.0937 708.243 L94.0937 716.715 Q95.1123 716.368 96.1308 716.206 Q97.1493 716.021 98.1678 716.021 Q103.955 716.021 107.334 719.192 Q110.714 722.363 110.714 727.78 Q110.714 733.359 107.242 736.461 Q103.77 739.539 97.4502 739.539 Q95.2743 739.539 93.0058 739.169 Q90.7604 738.799 88.353 738.058 L88.353 733.359 Q90.4364 734.493 92.6586 735.049 Q94.8808 735.604 97.3576 735.604 Q101.362 735.604 103.7 733.498 Q106.038 731.391 106.038 727.78 Q106.038 724.169 103.7 722.063 Q101.362 719.956 97.3576 719.956 Q95.4826 719.956 93.6076 720.373 Q91.7558 720.789 89.8114 721.669 L89.8114 704.308 Z" fill="#000000" fill-rule="nonzero" fill-opacity="1" /><path clip-path="url(#clip810)" d="M119.927 732.988 L124.811 732.988 L124.811 738.868 L119.927 738.868 L119.927 732.988 Z" fill="#000000" fill-rule="nonzero" fill-opacity="1" /><path clip-path="url(#clip810)" d="M144.996 707.387 Q141.385 707.387 139.556 710.951 Q137.751 714.493 137.751 721.623 Q137.751 728.729 139.556 732.294 Q141.385 735.836 144.996 735.836 Q148.63 735.836 150.436 732.294 Q152.265 728.729 152.265 721.623 Q152.265 714.493 150.436 710.951 Q148.63 707.387 144.996 707.387 M144.996 703.683 Q150.806 703.683 153.862 708.289 Q156.941 712.873 156.941 721.623 Q156.941 730.35 153.862 734.956 Q150.806 739.539 144.996 739.539 Q139.186 739.539 136.107 734.956 Q133.052 730.35 133.052 721.623 Q133.052 712.873 136.107 708.289 Q139.186 703.683 144.996 703.683 Z" fill="#000000" fill-rule="nonzero" fill-opacity="1" /><path clip-path="url(#clip810)" d="M89.5799 478.018 L111.802 478.018 L111.802 480.009 L99.2558 512.578 L94.3715 512.578 L106.177 481.953 L89.5799 481.953 L89.5799 478.018 Z" fill="#000000" fill-rule="nonzero" fill-opacity="1" /><path clip-path="url(#clip810)" d="M120.922 506.699 L125.807 506.699 L125.807 512.578 L120.922 512.578 L120.922 506.699 Z" fill="#000000" fill-rule="nonzero" fill-opacity="1" /><path clip-path="url(#clip810)" d="M136.038 478.018 L154.394 478.018 L154.394 481.953 L140.32 481.953 L140.32 490.425 Q141.339 490.078 142.357 489.916 Q143.376 489.731 144.394 489.731 Q150.181 489.731 153.561 492.902 Q156.941 496.074 156.941 501.49 Q156.941 507.069 153.468 510.171 Q149.996 513.249 143.677 513.249 Q141.501 513.249 139.232 512.879 Q136.987 512.509 134.58 511.768 L134.58 507.069 Q136.663 508.203 138.885 508.759 Q141.107 509.314 143.584 509.314 Q147.589 509.314 149.927 507.208 Q152.265 505.101 152.265 501.49 Q152.265 497.879 149.927 495.773 Q147.589 493.666 143.584 493.666 Q141.709 493.666 139.834 494.083 Q137.982 494.499 136.038 495.379 L136.038 478.018 Z" fill="#000000" fill-rule="nonzero" fill-opacity="1" /><path clip-path="url(#clip810)" d="M60.4134 282.353 L68.0522 282.353 L68.0522 255.987 L59.7421 257.654 L59.7421 253.395 L68.0059 251.728 L72.6818 251.728 L72.6818 282.353 L80.3207 282.353 L80.3207 286.288 L60.4134 286.288 L60.4134 282.353 Z" fill="#000000" fill-rule="nonzero" fill-opacity="1" /><path clip-path="url(#clip810)" d="M99.765 254.807 Q96.1539 254.807 94.3252 258.372 Q92.5197 261.913 92.5197 269.043 Q92.5197 276.149 94.3252 279.714 Q96.1539 283.256 99.765 283.256 Q103.399 283.256 105.205 279.714 Q107.033 276.149 107.033 269.043 Q107.033 261.913 105.205 258.372 Q103.399 254.807 99.765 254.807 M99.765 251.103 Q105.575 251.103 108.631 255.71 Q111.709 260.293 111.709 269.043 Q111.709 277.77 108.631 282.376 Q105.575 286.959 99.765 286.959 Q93.9549 286.959 90.8762 282.376 Q87.8206 277.77 87.8206 269.043 Q87.8206 260.293 90.8762 255.71 Q93.9549 251.103 99.765 251.103 Z" fill="#000000" fill-rule="nonzero" fill-opacity="1" /><path clip-path="url(#clip810)" d="M119.927 280.409 L124.811 280.409 L124.811 286.288 L119.927 286.288 L119.927 280.409 Z" fill="#000000" fill-rule="nonzero" fill-opacity="1" /><path clip-path="url(#clip810)" d="M144.996 254.807 Q141.385 254.807 139.556 258.372 Q137.751 261.913 137.751 269.043 Q137.751 276.149 139.556 279.714 Q141.385 283.256 144.996 283.256 Q148.63 283.256 150.436 279.714 Q152.265 276.149 152.265 269.043 Q152.265 261.913 150.436 258.372 Q148.63 254.807 144.996 254.807 M144.996 251.103 Q150.806 251.103 153.862 255.71 Q156.941 260.293 156.941 269.043 Q156.941 277.77 153.862 282.376 Q150.806 286.959 144.996 286.959 Q139.186 286.959 136.107 282.376 Q133.052 277.77 133.052 269.043 Q133.052 260.293 136.107 255.71 Q139.186 251.103 144.996 251.103 Z" fill="#000000" fill-rule="nonzero" fill-opacity="1" /><polyline clip-path="url(#clip812)" style="stroke:#e26f46; stroke-linecap:round; stroke-linejoin:round; stroke-width:4; stroke-opacity:1; fill:none" points="192.941,1445.72 207.002,1436.88 337.022,1355.14 415.158,1306.02 481.221,1264.49 552.985,1219.38 619.144,1177.79 690.074,1133.2 772.253,1081.54 845.284,1035.63 909.326,995.37 979.149,951.476 1049.39,907.322 1127.04,858.505 1200.93,812.056 1277.76,763.759 1342.43,723.104 1421.39,673.469 1493.72,628 1560.52,586.006 1628.19,543.467 1704.02,495.793 1772.74,452.593 1851.42,403.131 1924.28,357.334 1996.1,312.184 2065.83,268.347 2137.32,223.408 2215.64,174.172 2329.41,102.649 2352.76,87.9763 "/>
<polyline clip-path="url(#clip812)" style="stroke:#3da44d; stroke-linecap:round; stroke-linejoin:round; stroke-width:4; stroke-opacity:1; fill:none" points="840.885,1038.39 1920.79,359.524 "/>
<polyline clip-path="url(#clip812)" style="stroke:#c271d2; stroke-linecap:round; stroke-linejoin:round; stroke-width:4; stroke-opacity:1; fill:none" stroke-dasharray="16, 10" points="840.885,1174.17 840.885,1038.39 "/>
<polyline clip-path="url(#clip812)" style="stroke:#ac8d18; stroke-linecap:round; stroke-linejoin:round; stroke-width:4; stroke-opacity:1; fill:none" stroke-dasharray="16, 10" points="1920.79,1174.17 1920.79,359.524 "/>
<circle clip-path="url(#clip812)" cx="840.885" cy="1174.17" r="14.4" fill="#00a9ad" fill-rule="evenodd" fill-opacity="1" stroke="#000000" stroke-opacity="1" stroke-width="3.2"/>
<circle clip-path="url(#clip812)" cx="840.885" cy="1038.39" r="14.4" fill="#00a9ad" fill-rule="evenodd" fill-opacity="1" stroke="#000000" stroke-opacity="1" stroke-width="3.2"/>
<circle clip-path="url(#clip812)" cx="1920.79" cy="1174.17" r="14.4" fill="#00a9ad" fill-rule="evenodd" fill-opacity="1" stroke="#000000" stroke-opacity="1" stroke-width="3.2"/>
<circle clip-path="url(#clip812)" cx="1920.79" cy="359.524" r="14.4" fill="#00a9ad" fill-rule="evenodd" fill-opacity="1" stroke="#000000" stroke-opacity="1" stroke-width="3.2"/>
<polyline clip-path="url(#clip812)" style="stroke:#ed5d92; stroke-linecap:round; stroke-linejoin:round; stroke-width:4; stroke-opacity:1; fill:none" stroke-dasharray="16, 10" points="624.904,1174.17 624.904,1174.17 "/>
<polyline clip-path="url(#clip812)" style="stroke:#c68125; stroke-linecap:round; stroke-linejoin:round; stroke-width:4; stroke-opacity:1; fill:none" points="624.904,1174.17 1920.79,359.524 "/>
<circle clip-path="url(#clip812)" cx="624.904" cy="1174.17" r="14.4" fill="#00a98d" fill-rule="evenodd" fill-opacity="1" stroke="#000000" stroke-opacity="1" stroke-width="3.2"/>
<circle clip-path="url(#clip812)" cx="624.904" cy="1174.17" r="14.4" fill="#00a98d" fill-rule="evenodd" fill-opacity="1" stroke="#000000" stroke-opacity="1" stroke-width="3.2"/>
<circle clip-path="url(#clip812)" cx="1920.79" cy="1174.17" r="14.4" fill="#00a98d" fill-rule="evenodd" fill-opacity="1" stroke="#000000" stroke-opacity="1" stroke-width="3.2"/>
<circle clip-path="url(#clip812)" cx="1920.79" cy="359.524" r="14.4" fill="#00a98d" fill-rule="evenodd" fill-opacity="1" stroke="#000000" stroke-opacity="1" stroke-width="3.2"/>
<polyline clip-path="url(#clip812)" style="stroke:#8e971d; stroke-linecap:round; stroke-linejoin:round; stroke-width:4; stroke-opacity:1; fill:none" stroke-dasharray="16, 10" points="624.904,1174.17 624.904,1174.17 "/>
<polyline clip-path="url(#clip812)" style="stroke:#00a8cb; stroke-linecap:round; stroke-linejoin:round; stroke-width:4; stroke-opacity:1; fill:none" points="624.904,1174.17 624.904,1174.17 "/>
<circle clip-path="url(#clip812)" cx="624.904" cy="1174.17" r="14.4" fill="#9b7fe8" fill-rule="evenodd" fill-opacity="1" stroke="#000000" stroke-opacity="1" stroke-width="3.2"/>
<circle clip-path="url(#clip812)" cx="624.904" cy="1174.17" r="14.4" fill="#9b7fe8" fill-rule="evenodd" fill-opacity="1" stroke="#000000" stroke-opacity="1" stroke-width="3.2"/>
<circle clip-path="url(#clip812)" cx="624.904" cy="1174.17" r="14.4" fill="#9b7fe8" fill-rule="evenodd" fill-opacity="1" stroke="#000000" stroke-opacity="1" stroke-width="3.2"/>
<circle clip-path="url(#clip812)" cx="624.904" cy="1174.17" r="14.4" fill="#9b7fe8" fill-rule="evenodd" fill-opacity="1" stroke="#000000" stroke-opacity="1" stroke-width="3.2"/>
<polyline clip-path="url(#clip812)" style="stroke:#608cf6; stroke-linecap:round; stroke-linejoin:round; stroke-width:4; stroke-opacity:1; fill:none" stroke-dasharray="16, 10" points="624.904,1174.17 624.904,1174.17 "/>
<polyline clip-path="url(#clip812)" style="stroke:#f05f73; stroke-linecap:round; stroke-linejoin:round; stroke-width:4; stroke-opacity:1; fill:none" points="624.904,1174.17 624.904,1174.17 "/>
<circle clip-path="url(#clip812)" cx="624.904" cy="1174.17" r="14.4" fill="#dd64b5" fill-rule="evenodd" fill-opacity="1" stroke="#000000" stroke-opacity="1" stroke-width="3.2"/>
<circle clip-path="url(#clip812)" cx="624.904" cy="1174.17" r="14.4" fill="#dd64b5" fill-rule="evenodd" fill-opacity="1" stroke="#000000" stroke-opacity="1" stroke-width="3.2"/>
<circle clip-path="url(#clip812)" cx="624.904" cy="1174.17" r="14.4" fill="#dd64b5" fill-rule="evenodd" fill-opacity="1" stroke="#000000" stroke-opacity="1" stroke-width="3.2"/>
<circle clip-path="url(#clip812)" cx="624.904" cy="1174.17" r="14.4" fill="#dd64b5" fill-rule="evenodd" fill-opacity="1" stroke="#000000" stroke-opacity="1" stroke-width="3.2"/>
<polyline clip-path="url(#clip812)" style="stroke:#6b9e32; stroke-linecap:round; stroke-linejoin:round; stroke-width:4; stroke-opacity:1; fill:none" stroke-dasharray="16, 10" points="624.904,1174.17 624.904,1174.17 "/>
<polyline clip-path="url(#clip812)" style="stroke:#009af9; stroke-linecap:round; stroke-linejoin:round; stroke-width:4; stroke-opacity:1; fill:none" points="624.904,1174.17 624.904,1174.17 "/>
<circle clip-path="url(#clip812)" cx="624.904" cy="1174.17" r="14.4" fill="#e26f46" fill-rule="evenodd" fill-opacity="1" stroke="#000000" stroke-opacity="1" stroke-width="3.2"/>
<circle clip-path="url(#clip812)" cx="624.904" cy="1174.17" r="14.4" fill="#e26f46" fill-rule="evenodd" fill-opacity="1" stroke="#000000" stroke-opacity="1" stroke-width="3.2"/>
<circle clip-path="url(#clip812)" cx="624.904" cy="1174.17" r="14.4" fill="#e26f46" fill-rule="evenodd" fill-opacity="1" stroke="#000000" stroke-opacity="1" stroke-width="3.2"/>
<circle clip-path="url(#clip812)" cx="624.904" cy="1174.17" r="14.4" fill="#e26f46" fill-rule="evenodd" fill-opacity="1" stroke="#000000" stroke-opacity="1" stroke-width="3.2"/>
</svg>
